<?xml version="1.0" encoding="utf-8"?>
<!-- Generator: Adobe Illustrator 25.2.3, SVG Export Plug-In . SVG Version: 6.00 Build 0)  -->
<svg version="1.1" id="Layer_1" xmlns="http://www.w3.org/2000/svg" xmlns:xlink="http://www.w3.org/1999/xlink" x="0px" y="0px"
	 viewBox="0 0 311.1 44" style="enable-background:new 0 0 311.1 44;" xml:space="preserve">
<style type="text/css">
	.st0{fill:#868686;}
</style>
<path class="st0" d="M55.4,42.2l-13.6-27h-8.5v27h5.2v-5h8.7l2.5,5H55.4z M45,32.8h-6.5V19.9L45,32.8z"/>
<path class="st0" d="M15,42.1l2.5-5h8.7v5h5.2v-27h-8.5l-13.6,27H15z M26.2,19.8v12.9h-6.5L26.2,19.8z"/>
<path class="st0" d="M12.7,29.7c-0.3-1.3-0.4-2.7-0.4-4.2c0-11.2,9.1-20.2,20.2-20.2c11.2,0,20.2,9.1,20.2,20.2
	c0,1.5-0.2,2.9-0.4,4.3l3,6c1.4-3.1,2.2-6.6,2.2-10.2c0-13.8-11.2-25-25-25c-13.8,0-25,11.2-25,25c0,3.6,0.8,7.1,2.2,10.2L12.7,29.7
	z"/>
<g>
	<path class="st0" d="M76.2,7.7h-3.5l-6.6,28.5l0,0.2h3.9l1.4-6.7h6.3l1.4,6.7h3.9L76.3,7.8L76.2,7.7z M76.9,26.3H72l2.5-12.2
		L76.9,26.3z"/>
	<polygon class="st0" points="97.4,26.4 90.4,7.8 90.3,7.7 86.9,7.7 86.9,36.3 90.6,36.3 90.6,17.6 97.7,36.3 101.1,36.3 101.1,7.7 
		97.3,7.7 	"/>
	<path class="st0" d="M115.3,7.7h-3.5l-6.6,28.5l0,0.2h3.9l1.4-6.7h6.3l1.4,6.7h3.9l-6.6-28.6L115.3,7.7z M116,26.3h-4.9l2.5-12.2
		L116,26.3z"/>
	<path class="st0" d="M133,7.7h-6.7v28.7h6.7c2.1,0,3.7-0.7,5-2l0,0c2-2.2,2-5.6,2-12.3s0-10.1-2-12.3C136.7,8.3,135.1,7.7,133,7.7z
		 M136.3,22c0,6.7-0.1,8.7-1.1,10c-0.3,0.5-1,1-2.3,1H130V11h2.9c1.2,0,1.9,0.6,2.3,1h0C136.2,13.3,136.3,15.3,136.3,22z"/>
	<path class="st0" d="M151.4,7.3c-2.1,0-3.7,0.7-5,2.1c-2,2.2-2.1,5.7-2.1,12.6s0.1,10.3,2.1,12.6c1.3,1.4,2.9,2.1,5,2.1
		c2.1,0,3.8-0.7,5-2.1c2-2.2,2.1-5.4,2.1-12.6s-0.1-10.4-2.1-12.6C155.2,8,153.5,7.3,151.4,7.3z M149.2,11.7c0.5-0.7,1.2-1,2.2-1
		c1,0,1.7,0.3,2.2,1c1,1.4,1.2,3.8,1.2,10.3s-0.2,8.9-1.2,10.3c-0.5,0.7-1.2,1-2.2,1c-1,0-1.7-0.3-2.2-1c-1-1.4-1.2-3.8-1.2-10.3
		S148.2,13.1,149.2,11.7z"/>
	<polygon class="st0" points="166.9,7.7 163.2,7.7 163.2,36.3 174.4,36.3 174.4,33 166.9,33 	"/>
	<path class="st0" d="M187.6,29.9c0,2-1.2,3.4-3,3.4c-1.8,0-3-1.3-3-3.4V7.7h-3.7v22.1c0,2,0.6,3.8,1.9,5c1.3,1.3,2.9,1.9,4.8,1.9
		c1.9,0,3.6-0.7,4.8-1.9c1.2-1.2,1.9-3,1.9-5V7.7h-3.7V29.9z"/>
	<path class="st0" d="M212.3,7.6h-3.5l-6.6,28.5l0,0.2h3.9l1.4-6.7h6.3l1.3,6.6l0,0.1h3.9l-6.6-28.6L212.3,7.6z M213,26.2H208
		l2.5-12.2L213,26.2z"/>
	<path class="st0" d="M229.9,29.4c0,2.4-1.3,3.9-3.2,3.9c-0.9,0-1.9-0.5-2.5-1.3l-0.1-0.1l-2.7,2.5l0.1,0.1c1.3,1.4,3.1,2.2,5.2,2.2
		c2.1,0,3.9-0.7,5.1-2c1.2-1.2,1.8-3.1,1.8-5.3V7.6h-3.7V29.4z"/>
	<path class="st0" d="M247.7,7.6h-3.5l-6.6,28.5l0,0.2h3.9l1.4-6.7h6.3l1.3,6.6l0,0.1h3.9l-6.6-28.6L247.7,7.6z M248.4,26.2h-4.9
		l2.5-12.2L248.4,26.2z"/>
	<polygon class="st0" points="268.9,26.4 261.8,7.7 261.8,7.6 258.4,7.6 258.4,36.3 262.1,36.3 262.1,17.5 269.1,36.2 269.2,36.3 
		272.5,36.3 272.5,7.6 268.8,7.6 	"/>
	<path class="st0" d="M287.7,20.6l-3.2-1.3c-2.2-0.9-2.6-1.7-2.6-4.4c0-1.5,0.3-2.6,1-3.3c0.5-0.5,1.2-0.8,2.1-0.8
		c1,0,1.7,0.3,2.2,0.9c0.7,0.9,0.8,1.9,0.8,3.3v0.1h3.7V15c0-2.9-0.6-4.6-1.9-5.9c-1.2-1.1-2.8-1.7-4.8-1.7c-1.8,0-3.4,0.6-4.6,1.7
		c-1.4,1.3-2.2,3.4-2.2,5.9c0,4.3,0.9,6,4,7.2l3.2,1.3c2.2,0.9,2.7,1.8,2.7,5.1c0,1.8-0.1,2.9-0.9,3.7c-0.5,0.6-1.3,0.9-2.3,0.9
		c-1,0-1.8-0.3-2.2-0.8c-0.7-0.7-0.9-1.6-0.9-3.6v-0.1h-3.7v0.1c0,3.1,0.5,4.8,1.8,6.1c1.2,1.2,2.9,1.8,5.1,1.8
		c2.2,0,3.9-0.6,5.1-1.8l0,0c1.5-1.5,1.8-3.6,1.8-6.3C291.7,24.3,291.1,22,287.7,20.6z"/>
	<rect x="297.3" y="7.6" class="st0" width="3.7" height="28.7"/>
</g>
</svg>
