<?xml version="1.0" encoding="utf-8"?>
<!-- Generator: Adobe Illustrator 25.2.3, SVG Export Plug-In . SVG Version: 6.00 Build 0)  -->
<svg version="1.1" id="Layer_1" xmlns="http://www.w3.org/2000/svg" xmlns:xlink="http://www.w3.org/1999/xlink" x="0px" y="0px"
	 viewBox="0 0 563 134" style="enable-background:new 0 0 563 134;" xml:space="preserve">
<style type="text/css">
	.st0{fill:#FFFFFF;}
	.st1{fill:#4B4D4D;}
	.st2{fill:#231F20;}
</style>
<g>
	<path class="st0" d="M88.6,51.8c0,0-0.3,4.9,0.4,6.2c0.7,1.2,2,9.5,2,10.4c0,0.8,0,1.1-0.4,1.5c0,0-3,3.3-3.1,4.4
		c0,1.1-0.2,4.6,0.3,5.9s1,4.8,1,4.8s1.2,2.5-1,2.7c0,0-3.3,1-2.6,1.8c0,0,2.7,3.1,2.6,5.5s0.2,5.8-0.8,7.4c0,0-0.7,1.8,0.1,3.2
		c0,0,1.3,5.7-0.6,9.5c0,0-0.5,1.9-4,2.3l-9.2,2.7l-30.3-11.8L33.2,90l-5.5-26.4l-3-11l0.8-3c0,0,0.7-3.2,1.6-4.1
		c0.9-0.9,1.3-2.3,1.3-2.3l1.4-0.8l1.8-0.7l0-0.9l0.7-1.5l1.5-1.4l0.9-0.6l1.6-0.2c0,0,1.9,0.1,2.4-0.5c0.5-0.6,2.9-3,5.7-2.9
		c2.8,0.1,2.8-0.8,2.8-0.8l1.6-0.6h1.8l1,0.4c0,0,1.6,1.2,3.1,0.2s2.3-2.1,4.8-0.6c2.5,1.5,3.8,0.1,3.8,0.1l1.4-0.4l1.3-0.3
		c0,0,7,0.1,8.9,1.5c0,0,0.1,1.2,2,1.1s3.6,0.2,3.6,0.2s2.5,1,2.4,3.5c0,0,0.5,1.5,1.2,1.2s2.3,0.7,2.3,0.7s1.5,2,1,3.1
		s0.5,2.3,0.5,2.3l0.5,1.8L88.3,48L88.6,51.8z"/>
	<g>
		<path class="st0" d="M51.3,98.2c0,0-0.8,4.3,2,6.6c2.7,2.2,3,2.2,4.7,2.2c1.7-0.1,2.7-1.2,2.7-1.2l1.4-0.2c0,0-2.1,0.7-2.3,1.8
			c-0.2,1.2-2.3,1.1-2.3,1.1s-2.2,0-1.8,2.2s1.5,4.4,1.5,4.4s4.3,5.6,7.8,6l-4.4-1.1l-6.6-6.4c0,0-4.2-4.8-10.2-4.7
			s-8.9,4.4-8.9,4.4s-1.4,2.2-6.2,1c0,0,5.4-4.7,2-17.4c0,0-1-5.4-1.5-6.3s-1.8-1.4-1.6-3.8s-0.9-2.1-0.9-2.1s-1.2-0.7-0.7-1.8
			s0-2.8,0-2.8s-1.8-2.7,0.1-5.9c0,0,0.9-0.5-0.1-2.7c0,0-1.2-0.5-1-2.6c0,0-1.5-3.4-0.6-5.6c0,0-0.3-1.1-0.9-2.1c0,0-1-0.8-0.9-6.8
			c0,0,1-5.2,3-5.5c1.7-0.3-0.3,0.9,1.1-1.4s-0.1,2.6,0.7,3.4s2.9-4,2.9-4s1.7,0.4,0.4,3.6c0,0-0.4,0.9,0.2,1.5
			c0.6,0.7,1.4,1.9,0.5,2.7c0,0,1.7,0.4,1.8-2.2s1.3-5.5,0.2-7.5c0,0-0.2-2.8,1.5-0.8s0.9,8.9,0.9,8.9s-0.1,2.2,3.3,1.5
			c0,0,1.5,0.2,3-0.9s1.2-0.1,1.2-0.1s-1,1.5-1.5,1.5c0,0-0.5,1.1,1,0.4c1.5-0.7,1.2-1.1,1.2-1.1s2.7-0.5,0.5,1.4s-4.2,2.1-4.2,2.1
			s-2.5,0.8-4.2-0.5s-2.5-1.6-2.8-0.8s-3,2.2-2.1,4s0.4,3.7,0.4,3.7s0.5,1.8,1.4,0.7s-0.3-3.5-0.3-3.5s-0.2-1.9,0.5-1.8
			s0.5,6,1.6,5.9s1-1.8,1-1.8l0.7-3.3c0,0,0.7,1.8,0.5,3.4c-0.2,1.5,1-0.8,1-0.8s0.5,0.9,0.2,2s1.2,1.2,1.2,1.2s1.2,0.4,1.5,1.6
			c0.2,1.1,2.6,2.3,4.3,1.8c0,0,0.7-0.7-0.5-1.8s0.5-2.1,0.5-2.1s5.6,0.2,7.5-0.4c0,0-2.5,1.6-4.5,1.4c0,0-1.9,0.9,0,1.1
			c0,0,3,0.8,5.4-0.2c0,0-0.9,2.1-5.3,2.3c0,0-2.3,1-0.6,2.5c0,0,2.1,0.9,4,0c0,0-0.3,1.5-4,1.8c0,0-1.4,0.4,0,0.9s4.7,0,4.7,0
			s-1,1.5-4,1.9c0,0-2.3,0.3-1.2,1.3c0,0,2.4,0.9,4.2,0c0,0-2.2,1.8-4.3,1.3c0,0-1.7,0.3-0.8,0.9c0,0,0.5,0.9,3,0.4
			c0,0-2.4,1.1-2.5,1.4c0,0-3.2-0.2-3.9,2c0,0-0.8,0.2-0.6-0.9c0,0-0.2-3.3-2.8-4c0,0-1-1.8-2.2-0.3c0,0-1.6,0.8-1.5-0.6
			c0,0-3.4-2-4.1-4.5c0,0-1.1-1-0.9,0.8c0,0,0.4,3.6,4.4,7.3c0,0,1.7,0.6,1.6,1.6c0,0,1.2,3.9,4.4,1.4c0,0,0.8-0.8,1.2,0
			c0,0,1.3,0.9,0.7,2.5c0,0,0.4,2.1,1.2,0.8l0.4-2.4c0,0,0.7-0.9,0.8,0.5c0,0-0.4,3.6,0.3,3.5c0,0,0.9,0.3,0.8,1.1
			c0,0,0.6,2.6,2.9,2.4c0,0,2,0.9,1.3,1.6c0,0-0.6,0.7,0,1.5L51.3,98.2z"/>
		<path class="st1" d="M64.1,70.6c0,0,6.6-2.1,10.1-1.8c3.5,0.3,8.2,0.8,8.9,0.4c0,0-3.1,5.6-7.2,6.4c0,0,3.2-4.7-1.3-4.5
			c-4.5,0.2-5.6,1.7-5.6,1.7S67.7,74.4,64.1,70.6z"/>
		<path class="st1" d="M77,84.9c0,0-0.7,2.2,1.7,3.8s9.2-1.1,9.2-1.1s0.2-1.9-3.4-1.9S78.3,86,77,84.9z"/>
		<path class="st1" d="M81.7,74.3l4.4,9.2c0,0-2.9,1.9-4.4,0.4s-3.7-1-3.7-1v-7.3c0,0,2.3-1.1,3.3-2.5L81.7,74.3z"/>
		<path class="st1" d="M83.2,87.8c0,0,4.6,2.6,4.6,8.1s-3.1,5.6-3.1,5.6s1.2-6.2-2.4-6.3c-3.6-0.2-6-0.8-8.7,2.5
			c0,0-1.3,2.6-2.8,2.1c0,0-0.4-2.4,2.1-3.9c0,0,0.1-1.5,0.7-1.5c0.6,0,0.8,0.6,0.8,0.6l0.8-1.7l0.6,1.3l1.1-1.2l0.3,0.6l0-2.3
			c0,0,0.9,1.5,0.9,1.6c0,0.1,0.6-1.3,0.6-1.3s0.8,1.2,0.8,1.3s1.2-1.7,0.8-2.1c-0.4-0.4,0.9,1.7,0.9,1.7s0.6-1.3-0.1-2.2
			s-2-2.4-2-2.4L82,87L83.2,87.8z"/>
		<path class="st1" d="M57.2,76c0,0,5.3-0.3,7,2.8c1.7,3.1,3.4,4.5,3.4,4.5s3.4-0.6,2.9,1.6c-0.5,2.2-4.8,2.9-2.5,4.3
			c0,0,0.8,3.7-3.1,0c0,0-3.6-5.4-5.4-4.7C57.6,85.2,57.2,76,57.2,76z"/>
		<path class="st1" d="M86,114.7c0,0-6.5,1.5-9.1-3.9c0,0-0.3,2.5,1.1,3.4c0,0-1.9-1.4-2.1-2.4c0,0,0,2.4,0.7,2.8
			c0,0,0.4,1.1-1.2,0.2s-2.2-2.3-2.2-2.3s-2,0.8,0.2,2.7c0,0-0.3,1.1-1.2,0c-0.9-1.1-2-1.3-1.7-3.2c0,0-1.8,0.2-0.3,3.1
			s-2.4-0.8-2.4-0.8l-3.3-3.9c0,0-2.7,4.8,0,6.9c2.7,2.1,4.2,4.1,0.6,3.6c-3.6-0.5-3.4,0.1-3.4,0.1s-2.8,1.4,0,3.7
			c2.8,2.3,10.3,2,10.3,2s7.8-0.2,5.8-3.2c0,0-2-1.1-0.9-1.7C78,121.1,83.4,117.6,86,114.7z"/>
		<path class="st1" d="M75.1,75.9c0,0,0.1,2.3-3.1,1.3s-1.6-1.7-1.6-1.7S71.1,76.1,75.1,75.9z"/>
		<path class="st1" d="M69.5,73.1c0,0,4.4-1.6,6-1.3c1.6,0.3,0.6,1.7-0.4,1.8C74.1,73.7,72.1,74.3,69.5,73.1z"/>
		<path class="st1" d="M61,97.8c0,0-2.6,0.5-2,3.7c0.6,3.2,3.5,4.5,3.5,4.5l0.9,0.2c0,0,0-1.1-0.8-1.6s-2.6-1.2-3-4
			C59.7,100.7,59.2,99.5,61,97.8z"/>
		<path class="st1" d="M56.1,98.5c-0.7,1.2-0.5,3.4,0.1,4.6c1,2.1,3,3.5,3,3.5s0.8,0.2,0.7,0.5c0.1-0.1,0.2-0.2,0.3-0.3
			c0.2-0.2,0.3-0.2,0.1-0.4c-0.3-0.5-1.1-0.8-1.5-1.2c-0.6-0.5-1-1-1.4-1.6c-0.4-0.7-0.7-1.4-0.9-2.1
			C56.1,100.4,56.1,99.5,56.1,98.5z"/>
		<path class="st1" d="M56.2,90.5c-1.3-0.3-3.3,0.6-4.3,1.5c-1.7,1.6-2.3,4-2.3,4s0.1,0.8-0.3,0.8c0.1,0.1,0.2,0.1,0.3,0.2
			c0.3,0.1,0.2,0.2,0.4,0c0.4-0.5,0.4-1.3,0.6-1.8c0.3-0.7,0.6-1.3,1.1-1.8c0.5-0.6,1.1-1.1,1.7-1.5C54.4,91.1,55.2,90.8,56.2,90.5z
			"/>
		<path class="st1" d="M58.1,92.7c-1.3-0.5-3.4,0.2-4.5,1c-1.9,1.4-2.8,3.7-2.8,3.7s0,0.8-0.4,0.7c0.1,0.1,0.2,0.2,0.3,0.2
			c0.3,0.2,0.2,0.2,0.4,0c0.5-0.4,0.5-1.2,0.8-1.7c0.3-0.6,0.8-1.2,1.3-1.7c0.6-0.5,1.2-0.9,1.9-1.3C56.3,93.1,57.1,92.8,58.1,92.7z
			"/>
		<path class="st1" d="M59.2,95.7c-1.2-0.7-3.4-0.4-4.6,0.2c-2.1,1-3.4,3.1-3.4,3.1s-0.2,0.8-0.5,0.7c0.1,0.1,0.2,0.2,0.3,0.3
			c0.2,0.2,0.2,0.3,0.4,0.1c0.5-0.3,0.8-1.1,1.1-1.6c0.5-0.6,1-1.1,1.6-1.4c0.7-0.4,1.4-0.7,2.1-0.9C57.3,95.8,58.2,95.7,59.2,95.7z
			"/>
		<path class="st1" d="M53.4,89.7c-1.2-0.2-2.8,0.6-3.6,1.4c-1.4,1.4-1.9,3.5-1.9,3.5s0.1,0.7-0.2,0.7c0.1,0.1,0.2,0.1,0.3,0.2
			c0.2,0.1,0.2,0.2,0.4,0c0.3-0.4,0.3-1.1,0.5-1.6c0.2-0.6,0.5-1.1,0.9-1.6c0.4-0.5,0.9-0.9,1.4-1.3C51.9,90.2,52.6,89.9,53.4,89.7z
			"/>
		<path class="st1" d="M54.2,99c-0.7,1.2-0.5,3.4,0.1,4.6c1,2.1,3,3.5,3,3.5s0.8,0.2,0.7,0.5c0.1-0.1,0.2-0.2,0.3-0.3
			c0.2-0.2,0.3-0.2,0.1-0.4c-0.3-0.5-1.1-0.8-1.5-1.2c-0.6-0.5-1-1-1.4-1.6c-0.4-0.7-0.7-1.4-0.9-2.1C54.2,100.9,54.1,100.1,54.2,99
			z"/>
		<path class="st2" d="M59,111.2c-0.8,1.1-0.8,3.3-0.4,4.5c0.7,2.2,2.7,3.7,2.7,3.7s0.8,0.3,0.6,0.6c0.1-0.1,0.2-0.2,0.3-0.2
			c0.2-0.2,0.3-0.2,0.2-0.4c-0.3-0.6-1-0.9-1.4-1.3c-0.5-0.5-0.9-1.1-1.2-1.8c-0.3-0.7-0.5-1.4-0.7-2.2
			C58.8,113.1,58.8,112.2,59,111.2z"/>
		<path class="st2" d="M61,112.2c-0.8,1.1-0.8,3.3-0.4,4.5c0.7,2.2,2.7,3.7,2.7,3.7s0.8,0.3,0.6,0.6c0.1-0.1,0.2-0.2,0.3-0.2
			c0.2-0.2,0.3-0.2,0.2-0.4c-0.3-0.6-1-0.9-1.4-1.3c-0.5-0.5-0.9-1.1-1.2-1.8c-0.3-0.7-0.5-1.4-0.7-2.2
			C60.8,114.1,60.9,113.2,61,112.2z"/>
		<path class="st1" d="M78.4,110.3c0.1,1.4,1.6,3,2.7,3.7c2,1.1,4.5,1,4.5,1s0.8-0.3,0.8,0c0-0.1,0.1-0.3,0.1-0.4
			c0-0.3,0.1-0.3-0.2-0.4c-0.6-0.2-1.3,0-1.9,0c-0.7,0-1.4-0.2-2.1-0.5c-0.7-0.3-1.3-0.7-2-1.2C79.5,111.9,78.9,111.2,78.4,110.3z"
			/>
		<path class="st1" d="M63.1,100c-0.7,0.7-0.6,2.1-0.1,2.8c0.8,1.4,2.6,2.3,2.6,2.3s0.7,0.2,0.6,0.3c0.1-0.1,0.2-0.1,0.3-0.2
			c0.2-0.1,0.2-0.1,0.1-0.3c-0.3-0.3-0.9-0.5-1.3-0.8c-0.5-0.3-0.9-0.7-1.2-1.1c-0.3-0.4-0.5-0.9-0.7-1.4
			C63,101.2,63,100.6,63.1,100z"/>
		<path class="st1" d="M48.1,85c0.4,0.9,1.7,1.3,2.6,1.2c1.5-0.2,3.1-1.6,3.1-1.6s0.4-0.6,0.5-0.4c0-0.1,0-0.2,0-0.3
			c0-0.2,0-0.3-0.2-0.2c-0.4,0.1-1,0.4-1.4,0.7c-0.5,0.3-1,0.6-1.5,0.7c-0.5,0.1-1,0.2-1.5,0.2C49,85.2,48.7,85.3,48.1,85z"/>
		<path class="st1" d="M79.7,42.7c0.2,0.9-0.6,2.1-1.4,2.5c-1.4,0.8-3.4,0.6-3.4,0.6s-0.7-0.2-0.7,0c-0.1-0.1-0.1-0.2-0.1-0.3
			c-0.1-0.2-0.2-0.2,0-0.3c0.4-0.2,1-0.3,1.5-0.3c0.6,0,1.1-0.1,1.6-0.3c0.5-0.2,0.9-0.5,1.3-0.8C79.1,43.5,79.4,43.3,79.7,42.7z"/>
		<path class="st1" d="M75.7,40.7c0.2,0.9-0.6,2.1-1.4,2.5c-1.4,0.8-3.4,0.6-3.4,0.6s-0.7-0.2-0.7,0c-0.1-0.1-0.1-0.2-0.1-0.3
			c-0.1-0.2-0.2-0.2,0-0.3c0.4-0.2,1-0.3,1.5-0.3c0.6,0,1.1-0.1,1.6-0.3c0.5-0.2,0.9-0.5,1.3-0.8C75.1,41.4,75.4,41.3,75.7,40.7z"/>
		<path class="st1" d="M66.2,49.2c-1.2,0.6-2.6-0.3-3.1-1.3c-1-1.7-0.9-4.7-0.9-4.7s0.2-1,0-0.9c0.1-0.1,0.2-0.2,0.3-0.3
			c0.3-0.2,0.2-0.3,0.3,0c0.2,0.5,0.4,1.4,0.4,2.1c0,0.8,0.2,1.5,0.5,2.2c0.3,0.7,0.6,1.2,1,1.7C65.2,48.6,65.4,49,66.2,49.2z"/>
		<path class="st1" d="M52.8,98.2c0,0-0.8,4.3,2,6.6c2.7,2.2,3,2.2,4.7,2.2c1.7-0.1,2.7-1.2,2.7-1.2l1.4-0.2c0,0-2.1,0.7-2.3,1.8
			c-0.2,1.2-2.3,1.1-2.3,1.1s-2.2,0-1.8,2.2s1.5,4.4,1.5,4.4s4.3,5.6,7.8,6l-5.6,0.9l-7.6-5.9c0,0-2.8-6.1-8.9-6s-8,3.3-8,3.3
			s-4.8,2.8-9.6,1.5c0,0,5.9-5.8,4.5-20.4c0,0-0.1-2.9-0.6-3.8c-0.5-0.9-1.8-1.4-1.6-3.8s-0.9-2.1-0.9-2.1s-1.2-0.7-0.7-1.8
			s0-2.8,0-2.8s-2.9-2.6-1-5.9c0,0,0.9-0.5-0.1-2.7c0,0-1.2-0.5-1-2.6c0,0-1.5-3.4-0.6-5.6c0,0,0.1-0.8-0.5-1.8c0,0-1.4,0-1.3-6
			c0,0,0.6-4.6,1.9-5.8s2,0,3.4-2.2c1.4-2.2-0.1,2.6,0.7,3.4s2.9-4,2.9-4s1.7,0.4,0.4,3.6c0,0-0.4,0.9,0.2,1.5
			c0.6,0.7,1.4,1.9,0.5,2.7c0,0,1.7,0.4,1.8-2.2s1.3-5.5,0.2-7.5c0,0-0.2-2.8,1.5-0.8s0.9,8.9,0.9,8.9s-0.1,2.2,3.3,1.5
			c0,0,1.5,0.2,3-0.9s1.2-0.1,1.2-0.1s-1,1.5-1.5,1.5c0,0-0.5,1.1,1,0.4c1.5-0.7,1.2-1.1,1.2-1.1s2.7-0.5,0.5,1.4s-4.2,2.1-4.2,2.1
			s-2.5,0.8-4.2-0.5s-2.5-1.6-2.8-0.8s-3,2.2-2.2,4s0.4,3.7,0.4,3.7s0.5,1.8,1.4,0.7s-0.3-3.5-0.3-3.5s-0.2-1.9,0.5-1.8
			s0.5,6,1.6,5.9s1-1.8,1-1.8l0.7-3.3c0,0,0.7,1.8,0.5,3.4c-0.2,1.5,1-0.8,1-0.8s0.5,0.9,0.2,2s1.2,1.2,1.2,1.2s1.2,0.4,1.5,1.6
			c0.2,1.1,2.6,2.3,4.3,1.8c0,0,0.7-0.7-0.5-1.8s0.5-2.1,0.5-2.1s5.6,0.2,7.5-0.4c0,0-2.5,1.6-4.5,1.4c0,0-1.9,0.9,0,1.1
			c0,0,3,0.8,5.4-0.2c0,0-0.9,2.1-5.3,2.3c0,0-2.3,1-0.6,2.5c0,0,2.1,0.9,4,0c0,0-0.3,1.5-4,1.8c0,0-1.4,0.4,0,0.9s4.7,0,4.7,0
			s-1,1.5-4,1.9c0,0-2.3,0.3-1.2,1.3c0,0,2.4,0.9,4.2,0c0,0-2.2,1.8-4.3,1.3c0,0-1.7,0.3-0.8,0.9c0,0,0.5,0.9,3,0.4
			c0,0-2.4,1.1-2.5,1.4c0,0-3.2-0.2-3.9,2c0,0-0.8,0.2-0.6-0.9c0,0-0.2-3.3-2.8-4c0,0-1-1.8-2.2-0.3c0,0-1.6,0.8-1.5-0.6
			c0,0-3.4-2-4.1-4.5c0,0-1.1-1-0.9,0.8c0,0,0.3,3.6,4.4,7.3c0,0,1.7,0.6,1.6,1.6c0,0,1.2,3.9,4.4,1.4c0,0,0.8-0.8,1.2,0
			c0,0,1.3,0.9,0.7,2.5c0,0,0.4,2.1,1.2,0.8l0.4-2.4c0,0,0.7-0.9,0.8,0.5c0,0-0.4,3.6,0.3,3.5c0,0,0.9,0.3,0.8,1.1
			c0,0,0.6,2.6,2.9,2.4c0,0,2,0.9,1.3,1.6c0,0-0.6,0.7,0,1.5L52.8,98.2z"/>
		<path class="st1" d="M82,94.8c0,0,2.7,1.4,1.2,2.1c0,0,0.2,1.3-2.4,0.9l-3.9-0.6c0,0-0.8,0.3,0,0.6c0.8,0.2,3.4,0.9,4.4,0.8
			s2.6-0.3,2.3,0.9c0,0-0.1,1.5-0.4,1.6c0,0,0.4,1.7,1.7,0.3l0.2-3.2l-1.5-3.1l-1.1-0.6l-0.8,0.2"/>
		<path class="st1" d="M76.9,102c0,0,2.5-2,5.4-0.5c0,0,0.5,0.8-0.8,0.7c-1.3-0.1-0.9-1.3-4.1,0C77.5,102.2,76,103.2,76.9,102z"/>
		<path class="st1" d="M45.1,59.6c0,0,0.9,1.2,0,1.5c0,0-1.9,1.8,0.4,1.2c0,0,3.4,0.5,2.2,1.6c0,0-0.4,1,1.8,0s2.2-2.5,3.4-1.9
			c1.2,0.5,4.1,1.1,3.9,2.4c0,0-1,2.5,1.2,1.1c0,0,4.3-2.2,5.8-6.8c0,0-2.9,3.4-4.2,3c0,0-2.2-0.2-0.3-1c0,0-2.6,1-4.7,0.1
			c0,0-1.2-0.3-0.5-1.2c0,0-0.3-0.5-1,0.1s-1.7,0.9-1.7,0.9s-1.1-0.1-0.2-0.8s0.5-1.3-0.3-1.6s-3.7,0-3.7,0s2.4,1.7,0.5,1.7
			S45.1,59.6,45.1,59.6z"/>
		<path class="st1" d="M57.2,43.8c0,0-1.8,5.2,2.2,6.3c0,0,1,0.7,0,1.7s-0.2,2.3-0.2,2.3s-3.5-2.9-6.2-3.2l-2.5,0.5
			c0,0-1.6-0.2-1.2-1.3c0.4-1.1-1.2-3.8-2.6-3.8c0,0,0.5-1.9-0.9-2.5c0,0-2.2-1-3.2-0.8s-1.7-0.9,0-1.6c0,0,0.7-0.5-0.5-1.6
			c-1.1-1,1.4-3.1,1.7-2s0.1,4.3,2.2,3.8c0,0-0.5-5.9,2.2-7.1c0,0-2,6.1,0.1,6.4c0,0,1-1.8,2.4-2c0,0-5.2,7.7,3.5,10.4
			c0,0-0.6-1.8,0.9-5c0,0-0.3,3.3,0.9,3.6C55.9,47.9,55.5,45,57.2,43.8z"/>
		<path class="st1" d="M43.1,44.8c0,0,2.5,3.2-2.6,7.8C40.5,52.5,47.1,49.4,43.1,44.8z"/>
		<path class="st1" d="M45,45.6c0,0,2.5,3.2-2.6,7.8C42.4,53.4,49,50.2,45,45.6z"/>
		<path class="st1" d="M51.7,51.6c0,0,2,2.6-2.1,6.4C49.6,58,54.9,55.4,51.7,51.6z"/>
		<path class="st1" d="M50.5,51.8c0,0,1.2,3-3.7,5.7C46.9,57.5,52.6,56.3,50.5,51.8z"/>
		<path class="st1" d="M48.5,50.2c0,0,1.2,3-3.7,5.7C44.8,55.8,50.6,54.7,48.5,50.2z"/>
		<path class="st1" d="M61.7,56.3c0,0-0.5,3.3-6,3.1C55.7,59.3,61.3,61.2,61.7,56.3z"/>
		<path class="st1" d="M60.5,53.7c0,0,0.1,3.3-5.4,4.1C55.1,57.8,60.9,58.7,60.5,53.7z"/>
		<path class="st1" d="M65.8,44.8c0,0,0.5-4,7.3-3.7C73.2,41.1,66.3,38.7,65.8,44.8z"/>
		<path class="st1" d="M83.1,44.4c0,0-0.5,2.9-5.5,2.4C77.7,46.8,82.6,48.8,83.1,44.4z"/>
		<path class="st1" d="M86.2,46.6c0,0-0.5,2.9-5.5,2.4C80.7,48.9,85.6,51,86.2,46.6z"/>
		<path class="st1" d="M88.3,46.4c0,0,0.8,2.8-3.9,4.5C84.4,50.9,89.7,50.6,88.3,46.4z"/>
		<path class="st1" d="M64.7,42.7c0,0,0.5-4,7.3-3.7C72,39.1,65.1,36.7,64.7,42.7z"/>
		<path class="st1" d="M61.5,35.5c0,0,0.5-4,7.3-3.6C68.8,31.9,61.9,29.4,61.5,35.5z"/>
		<path class="st1" d="M34.5,42.1c0,0,0.5-4,7.3-3.7C41.8,38.5,34.9,36.1,34.5,42.1z"/>
		<path class="st1" d="M63.8,40.1c0,0,0.5-4,7.3-3.7C71.1,36.4,64.2,34,63.8,40.1z"/>
		<path class="st1" d="M45.6,34.9c0,0,1.7-3.7,8.1-1.3C53.7,33.6,47.8,29.2,45.6,34.9z"/>
		<path class="st1" d="M31.6,42.7c0,0-0.7-4,5.9-5.7C37.5,37,30.2,36.8,31.6,42.7z"/>
		<path class="st1" d="M27.3,47.2c0,0-0.7-4,5.9-5.7C33.2,41.5,25.9,41.2,27.3,47.2z"/>
		<path class="st1" d="M60.5,107.6c0,0,0,3.6,4,5.5s4.5,8.4,4.5,8.4l-4.4,1l-9.5-8.2v-6.4h2.5L60.5,107.6z"/>
		<path class="st1" d="M62.1,88.2c0,0,3.4,2.2,0.1,8.2C62.2,96.4,67.4,91.3,62.1,88.2z"/>
		<path class="st1" d="M58.6,86.6c0,0,3.3,0.4,2.3,6.1C60.9,92.7,63.7,86.9,58.6,86.6z"/>
		<path class="st1" d="M66.2,100.3c0,0-3.1-1.3-0.6-6.5C65.6,93.8,61.4,98.6,66.2,100.3z"/>
		<path class="st1" d="M65.6,102.1c0,0,3-1.5,5.3,3.8C70.9,105.9,70,99.6,65.6,102.1z"/>
		<path class="st1" d="M69.9,111.4c0,0-3.1,1.1-4.8-4.4C65.1,107,65.2,113.4,69.9,111.4z"/>
		<path class="st1" d="M54.4,85.9c0,0,3.2-0.8,4.4,4.8C58.8,90.8,59.2,84.4,54.4,85.9z"/>
		<path class="st1" d="M84.4,71.6c0,0,2.9-2.9,6.1-1.8c0,0-5,4-4.2,6.7L84.4,71.6z"/>
	</g>
</g>
<g>
	<path class="st0" d="M105.2,40.3h13.7v2.8c2.9-1.8,8-4,11.7-4c13.6,0,20.2,7.4,20.2,26.5c0,21.9-7.6,27.3-23.3,27.3
		c-2.8,0-6.5-0.5-8.5-0.8v21.2h-13.8V40.3z M136.8,65.6c0-10.4-3.5-14.2-8.9-14.2c-3.1,0-6.9,1.1-8.9,2v26.9
		c1.9,0.3,5.4,0.6,7.5,0.6C134.7,81,136.8,76.5,136.8,65.6z"/>
	<path class="st0" d="M157.7,76.1c0-11.6,6.7-14.9,18-15.7l11-0.8v-3.2c0-4.4-1.9-5.5-6.1-5.5c-4.9,0-14,0.5-19.3,0.8l-0.4-9.5
		c4.7-1.2,13.7-3,20.9-3c13.4,0,18.7,5.2,18.7,17.3v21.4c0.2,3.1,0.6,4.3,3.4,4.8l-0.4,10.4c-3.8,0-6.5-0.2-8.9-0.9
		c-2.1-0.5-3.8-1.3-5.8-2.7c-3.2,1.5-9.4,3.6-15.1,3.6C162.8,92.9,157.7,87,157.7,76.1z M186.7,80.1v-11l-9.4,0.8
		c-3.6,0.3-5.8,2.1-5.8,5.8c0,3.6,1.3,6.1,5,6.1C179.8,81.7,184.2,80.8,186.7,80.1z"/>
	<path class="st0" d="M213.6,40.3h13.7v5.5c3.7-2.3,10.8-5.5,16.4-6.7V53c-6.6,1.2-13.1,3.2-16.3,4.3v34.4h-13.8V40.3z"/>
	<path class="st0" d="M248.4,76.1c0-11.6,6.7-14.9,18-15.7l11-0.8v-3.2c0-4.4-2-5.5-6.1-5.5c-4.9,0-14,0.5-19.3,0.8l-0.4-9.5
		c4.7-1.2,13.7-3,20.9-3c13.4,0,18.7,5.2,18.7,17.3v21.4c0.2,3.1,0.6,4.3,3.4,4.8l-0.4,10.4c-3.8,0-6.5-0.2-8.9-0.9
		c-2-0.5-3.8-1.3-5.8-2.7c-3.2,1.5-9.5,3.6-15.1,3.6C253.5,92.9,248.4,87,248.4,76.1z M277.4,80.1v-11l-9.4,0.8
		c-3.6,0.3-5.8,2.1-5.8,5.8c0,3.6,1.3,6.1,5,6.1C270.5,81.7,274.9,80.8,277.4,80.1z"/>
	<path class="st0" d="M306.8,52h-5.5V40.3h5.5v-2.3c0-14.8,3.8-19.5,15-19.5c2.5,0,8.1,0.7,11.7,1.3l-0.2,11.2
		c-2-0.1-5.5-0.2-7.8-0.2c-3.9,0-4.9,2-4.9,7.3v2.2h12.4V52h-12.4v39.7h-13.8L306.8,52L306.8,52z"/>
	<path class="st0" d="M338,66.7c0-18.3,7.7-27.6,22.7-27.6c15.1,0,22.4,7.7,22.4,23.2l-1,9.6h-30.2c0.1,6.2,3,8.9,10.4,8.9
		c6.2,0,14.5-0.5,19-0.9l0.2,10.2c-5,1.2-14.4,2.9-21.4,2.9C344.5,92.9,338,85.2,338,66.7z M369.5,61.4c0-8.3-2.4-11-8.8-11
		c-6.6,0-8.8,3.2-8.9,11H369.5z"/>
	<path class="st0" d="M391.1,90.5l0.4-11.5c5.5,0.7,14.2,1.6,18,1.6c6.6,0,8.3-1.3,8.3-4c0-2.3-1.1-3.3-10.6-4.8
		c-11.1-1.8-17-4.5-17-15.8c0-11.9,9-16.8,19.8-16.8c5.4,0,14.6,1.4,19.9,2.6l-0.2,11.4c-5.5-0.7-14.4-1.6-18.7-1.6
		c-6,0-7.2,1.3-7.2,4.1c0,2.4,2,2.9,11.4,4.6c11.9,2.2,16.1,5.6,16.1,16c0,12-7.8,16.6-20.6,16.6C405.3,92.9,396.3,91.5,391.1,90.5z
		"/>
	<path class="st0" d="M438.8,65.9c0-15.8,5.8-26.8,23.6-26.8s23.6,11,23.6,26.8s-5.8,27-23.6,27S438.8,81.7,438.8,65.9z M444.6,16.9
		h13.1v13.6h-13.1V16.9z M472,65.9c0-10-2-15.1-9.7-15.1s-9.7,5.1-9.7,15.1s2,15.3,9.7,15.3S472,75.9,472,65.9z M466.8,16.9h13.1
		v13.6h-13.1V16.9z"/>
	<path class="st0" d="M496.1,40.3h13.7v5.5c3.7-2.3,10.8-5.5,16.4-6.7V53c-6.6,1.2-13.2,3.2-16.3,4.3v34.4h-13.8L496.1,40.3
		L496.1,40.3z"/>
</g>
<path class="st0" d="M126.3,110.3c0-2.1,1.1-3,3.3-3.2l3.4-0.3v-0.9c0-1.5-0.7-2.1-1.9-2.1c-1.1,0-3,0.2-4.1,0.3l-0.1-1.2
	c1-0.2,2.9-0.5,4.2-0.5c2.4,0,3.5,1.1,3.5,3.5v5.5c0,0.7,0.6,0.9,1.2,0.9l-0.1,1.3c-0.6,0-1.1-0.1-1.6-0.2c-0.4-0.1-0.7-0.3-1-0.6
	c-0.8,0.4-2.5,0.9-3.9,0.9C127.3,113.6,126.3,112.5,126.3,110.3z M133,111.6V108l-3.2,0.3c-1.3,0.1-1.8,0.8-1.8,1.9
	c0,1.2,0.5,2,1.6,2C130.7,112.3,132.2,111.9,133,111.6z M140.8,102.6h1.6v1.5c0.8-0.6,2.4-1.4,3.9-1.7v1.6c-1.5,0.3-3.1,1-3.9,1.5
	v7.9h-1.6V102.6z M150.6,110.3c0-2.1,1.1-3,3.3-3.2l3.4-0.3v-0.9c0-1.5-0.7-2.1-1.9-2.1c-1.1,0-3,0.2-4.1,0.3l-0.1-1.2
	c1-0.2,2.9-0.5,4.2-0.5c2.4,0,3.5,1.1,3.5,3.5v5.5c0,0.7,0.6,0.9,1.2,0.9l-0.1,1.3c-0.6,0-1.1-0.1-1.6-0.2c-0.4-0.1-0.7-0.3-1-0.6
	c-0.8,0.4-2.5,0.9-3.9,0.9C151.7,113.6,150.6,112.5,150.6,110.3z M157.3,111.6V108l-3.2,0.3c-1.3,0.1-1.8,0.8-1.8,1.9
	c0,1.2,0.5,2,1.6,2C155.1,112.3,156.5,111.9,157.3,111.6z M165.1,102.6h1.6v0.8c0.7-0.4,2.2-1,3.4-1c3,0,3.6,1.5,3.6,5.3v5.7h-1.6
	v-5.7c0-2.8-0.3-3.9-2.3-3.9c-1.1,0-2.4,0.4-3,0.8v8.8h-1.6L165.1,102.6L165.1,102.6z M179.8,102.6h1.6v10.8h-1.6V102.6z
	 M186.9,111.9l6-7.9h-6v-1.5h8v1.5l-6,7.9h6v1.5h-8V111.9z M199.7,110.3c0-2.1,1.1-3,3.3-3.2l3.4-0.3v-0.9c0-1.5-0.7-2.1-1.9-2.1
	c-1.1,0-3,0.2-4.1,0.3l-0.1-1.2c1-0.2,2.9-0.5,4.2-0.5c2.4,0,3.5,1.1,3.5,3.5v5.5c0,0.7,0.6,0.9,1.2,0.9l-0.1,1.3
	c-0.6,0-1.1-0.1-1.6-0.2c-0.4-0.1-0.7-0.3-1-0.6c-0.8,0.4-2.5,0.9-3.9,0.9C200.7,113.6,199.7,112.5,199.7,110.3z M206.4,111.6V108
	l-3.2,0.3c-1.3,0.1-1.8,0.8-1.8,1.9c0,1.2,0.5,2,1.6,2C204.1,112.3,205.6,111.9,206.4,111.6z M221.3,110.3c0-2.1,1.1-3,3.3-3.2
	l3.4-0.3v-0.9c0-1.5-0.7-2.1-1.9-2.1c-1.1,0-3,0.2-4.1,0.3l-0.1-1.2c1-0.2,2.9-0.5,4.2-0.5c2.4,0,3.5,1.1,3.5,3.5v5.5
	c0,0.7,0.6,0.9,1.2,0.9l-0.1,1.3c-0.6,0-1.1-0.1-1.6-0.2c-0.4-0.1-0.7-0.3-1-0.6c-0.8,0.4-2.5,0.9-3.9,0.9
	C222.4,113.6,221.3,112.5,221.3,110.3z M228,111.6V108l-3.2,0.3c-1.3,0.1-1.8,0.8-1.8,1.9c0,1.2,0.5,2,1.6,2
	C225.7,112.3,227.2,111.9,228,111.6z M235.8,97.9h1.6v9.2l1.7-0.1l3.1-4.4h1.9l-3.5,5l3.7,5.8h-1.9l-3.2-5l-1.7,0.1v4.9h-1.6V97.9z
	 M249.2,102.6h1.6v10.8h-1.6V102.6z M257,97.9h1.6v15.5H257V97.9z M271.7,102.6h1.8l2.5,9.4h0.8l2.6-9.4h1.7l-3,10.8h-3.3
	L271.7,102.6z M285.4,108.1c0-4.1,1.8-5.7,4.5-5.7c2.9,0,4.4,1.5,4.4,5.1l-0.1,1.2h-7.1c0,2.3,0.7,3.5,2.9,3.5c1.2,0,2.9-0.1,4-0.2
	l0,1.3c-1.1,0.2-2.9,0.3-4.2,0.3C286.5,113.6,285.4,111.7,285.4,108.1z M292.7,107.4c0-2.7-0.8-3.6-2.7-3.6c-1.8,0-2.9,1-2.9,3.6
	H292.7z M299.8,102.6h1.6v1.5c0.8-0.6,2.4-1.4,3.9-1.7v1.6c-1.5,0.3-3.1,1-3.9,1.5v7.9h-1.6V102.6z M310.3,98.3h1.6v1.9h-1.6V98.3z
	 M310.3,102.6h1.6v10.8h-1.6V102.6z M318.1,102.6h1.6v1.5c0.8-0.6,2.4-1.4,3.9-1.7v1.6c-1.5,0.3-3.1,1-3.9,1.5v7.9h-1.6V102.6z"/>
</svg>
