<?xml version="1.0" encoding="utf-8"?>
<!-- Generator: Adobe Illustrator 25.2.3, SVG Export Plug-In . SVG Version: 6.00 Build 0)  -->
<svg version="1.1" id="Layer_1" xmlns="http://www.w3.org/2000/svg" xmlns:xlink="http://www.w3.org/1999/xlink" x="0px" y="0px"
	 viewBox="0 0 184 44" style="enable-background:new 0 0 184 44;" xml:space="preserve">
<style type="text/css">
	.st0{fill-rule:evenodd;clip-rule:evenodd;fill:#868686;}
</style>
<g>
	<g>
		<g>
			<g>
				<path class="st0" d="M81.3,13.6c-3.2,0-5,0.4-5.5,1.2c-0.5,0.8-0.8,3.6-0.8,8.4c0,3.5,0.3,5.7,0.9,6.4c0.6,0.7,2.5,1.1,5.5,1.1
					c2.9,0,4.7-0.4,5.2-1.2c0.6-0.8,0.9-3.3,0.9-7.4c0-4.1-0.3-6.6-0.8-7.3C86.2,13.9,84.4,13.6,81.3,13.6 M81.7,9.6
					c4.5,0,7.4,0.7,8.7,2.2c1.3,1.5,1.9,4.8,1.9,10c0,5.6-0.6,9.2-1.9,10.7c-1.3,1.5-4.4,2.2-9.4,2.2c-4.5,0-7.4-0.7-8.7-2.2
					c-1.3-1.5-2-4.6-2-9.6c0-5.9,0.6-9.6,1.9-11.1C73.5,10.3,76.6,9.6,81.7,9.6 M100.2,22.2h6.7c1.6,0,2.7-0.3,3.2-0.9
					c0.5-0.6,0.8-1.7,0.8-3.4c0-1.8-0.2-2.9-0.7-3.4c-0.5-0.5-1.5-0.8-3-0.8h-7.1V22.2z M95.5,34.4V9.8h12.2c3,0,5.1,0.5,6.3,1.6
					c1.1,1,1.7,2.9,1.7,5.7c0,2.5-0.3,4.2-0.9,5.1c-0.6,0.9-1.8,1.5-3.5,1.9v0.2c2.7,0.2,4.1,1.8,4.1,4.8v5.4h-4.7v-4.5
					c0-2.5-1.3-3.8-3.8-3.8h-6.8v8.3C100.2,34.4,95.5,34.4,95.5,34.4z M56.8,13.7v6.6H68v3.9H56.8v10.1h-4.7V9.8h16.4v3.9H56.8z
					 M123.7,13.7v6.4h11.6v3.4h-11.6v7H136v3.9H119V9.8h16.9v3.9H123.7z M144.2,9.8v10h2.2l8.2-10h5.8l-10,12l11.1,12.7h-6
					l-9.1-10.7h-2.2v10.7h-4.7V9.8H144.2z M181.9,17h-4.6c0-0.2,0-0.4,0-0.5c-0.1-1.4-0.4-2.3-0.9-2.6c-0.5-0.4-1.7-0.5-3.6-0.5
					c-2.2,0-3.7,0.2-4.4,0.6c-0.7,0.4-1,1.3-1,2.6c0,1.6,0.3,2.5,0.8,2.8c0.6,0.3,2.4,0.6,5.5,0.7c3.7,0.2,6.1,0.7,7.2,1.6
					c1.1,0.8,1.6,2.6,1.6,5.2c0,3.3-0.6,5.4-1.9,6.3c-1.3,1-4.1,1.4-8.4,1.4c-3.9,0-6.5-0.5-7.8-1.4s-1.9-2.8-1.9-5.7l0-0.9h4.6
					l0,0.5c0,1.7,0.3,2.8,0.9,3.2c0.6,0.4,2.3,0.6,5,0.6c2.1,0,3.4-0.2,4-0.7c0.6-0.4,0.9-1.5,0.9-3.1c0-1.2-0.2-2-0.7-2.4
					c-0.4-0.4-1.4-0.6-2.9-0.7l-2.6-0.2c-3.9-0.2-6.4-0.8-7.5-1.6c-1.1-0.9-1.6-2.7-1.6-5.5c0-2.9,0.7-4.8,2-5.7
					c1.3-1,3.9-1.4,7.9-1.4c3.7,0,6.2,0.4,7.5,1.3c1.3,0.9,1.9,2.6,1.9,5.1L181.9,17L181.9,17z"/>
			</g>
			<path class="st0" d="M9.9,22l12.2,12.1l5.8,5.8l-2.8,2.8c-1.7,1.7-4.4,1.7-6.1,0L1.3,25c-1.7-1.7-1.7-4.4,0-6.1L19,1.3
				c1.7-1.7,4.4-1.7,6.1,0L27.9,4l-5.8,5.8L9.9,22L9.9,22z M42.9,25L34,33.8L28.2,28l6.1-6.1l-6.1-6.1l5.8-5.8l8.9,8.8
				C44.6,20.6,44.6,23.3,42.9,25z"/>
		</g>
	</g>
</g>
</svg>
