<?xml version="1.0" encoding="utf-8"?>
<!-- Generator: Adobe Illustrator 25.2.3, SVG Export Plug-In . SVG Version: 6.00 Build 0)  -->
<svg version="1.1" id="Layer_1" xmlns="http://www.w3.org/2000/svg" xmlns:xlink="http://www.w3.org/1999/xlink" x="0px" y="0px"
	 viewBox="0 0 563 134" style="enable-background:new 0 0 563 134;" xml:space="preserve">
<style type="text/css">
	.st0{fill:#FFFFFF;}
	.st1{fill:#4B4D4D;}
	.st2{fill:#231F20;}
</style>
<g>
	<path class="st0" d="M88.56,51.82c0,0-0.33,4.94,0.37,6.19c0.71,1.25,1.99,9.51,1.99,10.35c0,0.83,0.01,1.13-0.4,1.48
		c0,0-3.01,3.29-3.05,4.42c-0.04,1.12-0.17,4.55,0.33,5.9c0.5,1.35,1.01,4.76,1.01,4.76s1.18,2.54-1.01,2.7c0,0-3.35,0.98-2.63,1.83
		c0,0,2.7,3.12,2.63,5.51c-0.07,2.39,0.18,5.8-0.78,7.39c0,0-0.67,1.84,0.05,3.15c0,0,1.27,5.69-0.64,9.51c0,0-0.52,1.95-3.98,2.33
		l-9.21,2.7l-30.35-11.78l-9.73-18.27l-5.46-26.44l-2.98-10.99l0.77-3.05c0,0,0.73-3.22,1.61-4.08c0.88-0.86,1.32-2.26,1.32-2.26
		l1.42-0.75l1.75-0.65l0.02-0.87l0.72-1.47l1.49-1.42l0.87-0.58l1.61-0.19c0,0,1.87,0.1,2.4-0.5c0.53-0.6,2.87-3.03,5.67-2.93
		c2.79,0.1,2.82-0.84,2.82-0.84l1.59-0.6h1.79l0.97,0.36c0,0,1.63,1.2,3.14,0.24c1.51-0.96,2.31-2.1,4.81-0.6
		c2.5,1.5,3.81,0.06,3.81,0.06l1.42-0.44l1.31-0.34c0,0,6.99,0.11,8.88,1.52c0,0,0.1,1.22,1.99,1.12s3.62,0.22,3.62,0.22
		s2.47,0.96,2.44,3.51c0,0,0.48,1.55,1.22,1.17s2.33,0.74,2.33,0.74s1.52,1.99,1.04,3.08s0.48,2.28,0.48,2.28l0.49,1.79L88.29,48
		L88.56,51.82z"/>
	<g>
		<path class="st0" d="M51.33,98.23c0,0-0.75,4.33,1.95,6.59c2.7,2.25,3,2.25,4.66,2.18c1.65-0.08,2.7-1.23,2.7-1.23l1.38-0.16
			c0,0-2.12,0.68-2.27,1.84c-0.16,1.16-2.27,1.09-2.27,1.09s-2.19,0.04-1.76,2.22c0.43,2.18,1.51,4.39,1.51,4.39s4.28,5.6,7.85,5.97
			l-4.41-1.08l-6.6-6.37c0,0-4.17-4.76-10.25-4.65s-8.86,4.42-8.86,4.42s-1.4,2.24-6.24,1c0,0,5.36-4.72,1.96-17.36
			c0,0-0.95-5.36-1.45-6.29c-0.5-0.93-1.8-1.43-1.65-3.76s-0.9-2.13-0.9-2.13s-1.2-0.65-0.7-1.8c0.5-1.15,0-2.75,0-2.75
			s-1.76-2.68,0.09-5.94c0,0,0.85-0.51-0.1-2.73c0,0-1.2-0.47-1-2.57c0,0-1.5-3.41-0.6-5.56c0,0-0.26-1.11-0.91-2.06
			c0,0-0.99-0.77-0.89-6.83c0,0,0.99-5.16,3-5.47c1.68-0.26-0.29,0.87,1.06-1.38c1.35-2.25-0.15,2.63,0.68,3.38
			c0.83,0.75,2.93-3.97,2.93-3.97s1.73,0.44,0.38,3.59c0,0-0.38,0.9,0.23,1.55c0.6,0.65,1.4,1.9,0.5,2.7c0,0,1.7,0.4,1.8-2.25
			s1.3-5.51,0.2-7.51c0,0-0.2-2.8,1.5-0.85c1.7,1.95,0.9,8.91,0.9,8.91s-0.1,2.25,3.31,1.5c0,0,1.5,0.15,3.05-0.9s1.15-0.1,1.15-0.1
			s-0.95,1.5-1.45,1.55c0,0-0.5,1.1,1.05,0.4c1.55-0.7,1.25-1.1,1.25-1.1s2.65-0.55,0.5,1.4c-2.15,1.95-4.21,2.1-4.21,2.1
			s-2.55,0.8-4.21-0.45s-2.55-1.6-2.75-0.8c-0.2,0.8-2.95,2.15-2.15,4.01s0.4,3.71,0.4,3.71s0.5,1.85,1.4,0.7
			c0.9-1.15-0.35-3.46-0.35-3.46s-0.15-1.9,0.55-1.75c0.7,0.15,0.45,6.01,1.6,5.86s1.05-1.85,1.05-1.85l0.65-3.26
			c0,0,0.7,1.85,0.5,3.36c-0.2,1.5,0.95-0.8,0.95-0.8s0.5,0.9,0.2,2.05c-0.3,1.15,1.25,1.2,1.25,1.2s1.25,0.45,1.5,1.55
			c0.25,1.1,2.6,2.3,4.26,1.75c0,0,0.65-0.65-0.55-1.75c-1.2-1.1,0.45-2.05,0.45-2.05s5.61,0.15,7.46-0.45c0,0-2.45,1.55-4.51,1.4
			c0,0-1.9,0.95,0,1.1c0,0,3,0.8,5.36-0.25c0,0-0.9,2.1-5.31,2.3c0,0-2.35,0.98-0.6,2.47c0,0,2.1,0.92,4.01,0
			c0,0-0.3,1.54-4.01,1.84c0,0-1.4,0.45,0,0.95s4.66,0,4.66,0s-1.05,1.49-3.96,1.9c0,0-2.3,0.29-1.25,1.3c0,0,2.4,0.89,4.21,0
			c0,0-2.2,1.76-4.26,1.26c0,0-1.7,0.3-0.85,0.95c0,0,0.55,0.9,3.05,0.45c0,0-2.4,1.07-2.5,1.41c0,0-3.2-0.21-3.86,2.04
			c0,0-0.8,0.25-0.6-0.9c0,0-0.15-3.31-2.85-3.96c0,0-1-1.85-2.15-0.3c0,0-1.6,0.75-1.55-0.55c0,0-3.41-2-4.06-4.46
			c0,0-1.15-1-0.9,0.85c0,0,0.35,3.58,4.36,7.27c0,0,1.7,0.64,1.6,1.64c0,0,1.22,3.95,4.36,1.4c0,0,0.85-0.75,1.25,0
			c0,0,1.3,0.95,0.7,2.5c0,0,0.4,2.11,1.15,0.75l0.4-2.41c0,0,0.7-0.9,0.75,0.5c0,0-0.4,3.61,0.35,3.53c0,0,0.9,0.32,0.8,1.07
			c0,0,0.6,2.61,2.9,2.4c0,0,1.95,0.9,1.3,1.6c0,0-0.63,0.65,0.05,1.5L51.33,98.23z"/>
		<path class="st1" d="M64.13,70.63c0,0,6.61-2.1,10.14-1.8c3.53,0.3,8.19,0.83,8.94,0.38c0,0-3.08,5.56-7.21,6.38
			c0,0,3.23-4.66-1.28-4.51c-4.51,0.15-5.63,1.73-5.63,1.73S67.74,74.39,64.13,70.63z"/>
		<path class="st1" d="M76.98,84.91c0,0-0.68,2.18,1.65,3.76c2.33,1.58,9.16-1.05,9.16-1.05s0.15-1.88-3.38-1.88
			S78.33,85.96,76.98,84.91z"/>
		<path class="st1" d="M81.66,74.29l4.36,9.21c0,0-2.9,1.95-4.36,0.4s-3.71-1-3.71-1v-7.31c0,0,2.3-1.09,3.26-2.52L81.66,74.29z"/>
		<path class="st1" d="M83.21,87.84c0,0,4.58,2.55,4.58,8.11c0,5.56-3.08,5.56-3.08,5.56s1.19-6.16-2.37-6.31
			c-3.56-0.15-6.04-0.83-8.67,2.48c0,0-1.35,2.63-2.78,2.1c0,0-0.45-2.4,2.1-3.91c0,0,0.11-1.54,0.68-1.5
			c0.56,0.04,0.75,0.64,0.75,0.64l0.75-1.65l0.64,1.31l1.07-1.16l0.35,0.56l0.04-2.33c0,0,0.9,1.46,0.94,1.58
			c0.04,0.11,0.64-1.35,0.64-1.35s0.79,1.2,0.79,1.31c0,0.11,1.24-1.65,0.83-2.07c-0.41-0.41,0.94,1.65,0.94,1.65
			s0.6-1.31-0.11-2.25s-1.97-2.44-1.97-2.44l2.66-1.14L83.21,87.84z"/>
		<path class="st1" d="M57.17,75.99c0,0,5.31-0.32,6.96,2.8c1.65,3.11,3.36,4.52,3.36,4.52s3.41-0.6,2.9,1.6
			c-0.5,2.2-4.81,2.91-2.5,4.26c0,0,0.8,3.66-3.1,0c0,0-3.61-5.36-5.41-4.66C57.57,85.21,57.17,75.99,57.17,75.99z"/>
		<path class="st1" d="M86.02,114.65c0,0-6.54,1.5-9.13-3.91c0,0-0.28,2.5,1.07,3.41c0,0-1.95-1.4-2.05-2.4c0,0,0,2.45,0.7,2.85
			c0,0,0.45,1.13-1.25,0.24c-1.7-0.89-2.2-2.34-2.2-2.34s-2,0.77,0.2,2.69c0,0-0.3,1.14-1.2,0c-0.9-1.14-2-1.29-1.7-3.19
			c0,0-1.75,0.15-0.3,3.1c1.45,2.95-2.4-0.85-2.4-0.85l-3.26-3.91c0,0-2.7,4.76,0,6.86c2.7,2.1,4.16,4.11,0.55,3.61
			c-3.61-0.5-3.36,0.08-3.36,0.08s-2.76,1.37,0,3.68c2.76,2.3,10.32,2,10.32,2s7.81-0.2,5.81-3.2c0,0-2.04-1.1-0.92-1.7
			C78,121.06,83.36,117.56,86.02,114.65z"/>
		<path class="st1" d="M75.09,75.95c0,0,0.07,2.28-3.11,1.29s-1.61-1.71-1.61-1.71S71.05,76.13,75.09,75.95z"/>
		<path class="st1" d="M69.49,73.07c0,0,4.4-1.55,5.96-1.28c1.56,0.26,0.63,1.65-0.36,1.8C74.1,73.74,72.1,74.31,69.49,73.07z"/>
		<path class="st1" d="M61.05,97.83c0,0-2.63,0.53-2.03,3.68c0.6,3.15,3.53,4.51,3.53,4.51l0.93,0.23c0,0,0-1.1-0.8-1.55
			s-2.6-1.2-2.95-3.96C59.73,100.73,59.23,99.53,61.05,97.83z"/>
		<path class="st1" d="M56.12,98.47c-0.72,1.17-0.48,3.37,0.06,4.56c0.95,2.1,3.05,3.46,3.05,3.46s0.8,0.2,0.65,0.5
			c0.09-0.09,0.19-0.18,0.28-0.27c0.22-0.23,0.26-0.17,0.11-0.43c-0.32-0.53-1.07-0.77-1.53-1.16c-0.56-0.46-1.04-1.01-1.41-1.63
			c-0.39-0.66-0.66-1.38-0.9-2.11C56.1,100.38,56.06,99.52,56.12,98.47z"/>
		<path class="st1" d="M56.2,90.54c-1.33-0.32-3.35,0.6-4.31,1.48c-1.7,1.56-2.32,3.98-2.32,3.98s0.06,0.82-0.27,0.78
			c0.11,0.06,0.23,0.13,0.34,0.18c0.29,0.14,0.25,0.19,0.44-0.03c0.4-0.47,0.4-1.26,0.62-1.82c0.26-0.67,0.64-1.3,1.11-1.85
			c0.5-0.58,1.1-1.06,1.72-1.51C54.39,91.12,55.19,90.82,56.2,90.54z"/>
		<path class="st1" d="M58.13,92.67c-1.29-0.46-3.39,0.22-4.45,1c-1.86,1.37-2.75,3.7-2.75,3.7s-0.03,0.83-0.36,0.74
			c0.11,0.07,0.21,0.15,0.32,0.22c0.28,0.17,0.22,0.22,0.44,0.02c0.45-0.42,0.54-1.21,0.82-1.74c0.34-0.64,0.78-1.22,1.31-1.71
			c0.56-0.52,1.21-0.93,1.88-1.31C56.27,93.05,57.1,92.83,58.13,92.67z"/>
		<path class="st1" d="M59.22,95.74c-1.18-0.69-3.38-0.41-4.56,0.16c-2.08,1-3.39,3.13-3.39,3.13s-0.18,0.81-0.49,0.66
			c0.09,0.09,0.18,0.19,0.28,0.27c0.24,0.22,0.18,0.26,0.43,0.1c0.52-0.33,0.75-1.09,1.12-1.56c0.45-0.57,0.99-1.06,1.6-1.44
			c0.65-0.41,1.36-0.69,2.09-0.94C57.32,95.77,58.18,95.71,59.22,95.74z"/>
		<path class="st1" d="M53.43,89.67c-1.15-0.23-2.84,0.6-3.64,1.38c-1.41,1.38-1.87,3.47-1.87,3.47s0.07,0.7-0.21,0.67
			c0.1,0.05,0.2,0.1,0.3,0.15c0.25,0.11,0.22,0.16,0.37-0.04c0.33-0.41,0.31-1.08,0.48-1.57c0.21-0.58,0.51-1.13,0.9-1.61
			c0.41-0.51,0.91-0.94,1.43-1.34C51.91,90.21,52.58,89.93,53.43,89.67z"/>
		<path class="st1" d="M54.2,99.04c-0.72,1.17-0.48,3.37,0.06,4.56c0.95,2.1,3.05,3.46,3.05,3.46s0.8,0.2,0.65,0.5
			c0.09-0.09,0.19-0.18,0.28-0.27c0.22-0.23,0.26-0.17,0.11-0.43c-0.32-0.53-1.07-0.77-1.53-1.16c-0.56-0.46-1.04-1.01-1.41-1.63
			c-0.39-0.66-0.66-1.38-0.9-2.11C54.19,100.94,54.14,100.08,54.2,99.04z"/>
		<path class="st2" d="M58.98,111.19c-0.83,1.09-0.81,3.3-0.39,4.54c0.74,2.19,2.7,3.74,2.7,3.74s0.78,0.28,0.6,0.56
			c0.1-0.08,0.21-0.16,0.31-0.24c0.24-0.21,0.28-0.15,0.15-0.42c-0.27-0.56-0.99-0.88-1.41-1.31c-0.51-0.51-0.93-1.11-1.24-1.77
			c-0.33-0.69-0.52-1.44-0.68-2.18C58.78,113.08,58.83,112.22,58.98,111.19z"/>
		<path class="st2" d="M61.04,112.17c-0.83,1.09-0.81,3.3-0.39,4.54c0.74,2.19,2.7,3.74,2.7,3.74s0.78,0.28,0.6,0.56
			c0.1-0.08,0.21-0.16,0.31-0.24c0.24-0.21,0.28-0.15,0.15-0.42c-0.27-0.56-0.99-0.88-1.41-1.31c-0.51-0.51-0.93-1.11-1.24-1.77
			c-0.33-0.69-0.52-1.44-0.68-2.18C60.84,114.06,60.88,113.2,61.04,112.17z"/>
		<path class="st1" d="M78.36,110.35c0.11,1.37,1.59,3.01,2.73,3.65c2.01,1.14,4.5,0.99,4.5,0.99s0.77-0.31,0.82,0.02
			c0.02-0.13,0.05-0.26,0.07-0.38c0.04-0.32,0.11-0.29-0.17-0.41c-0.57-0.24-1.32,0-1.92-0.03c-0.72-0.04-1.43-0.21-2.1-0.49
			c-0.7-0.3-1.35-0.72-1.97-1.17C79.47,111.89,78.93,111.22,78.36,110.35z"/>
		<path class="st1" d="M63.06,99.96c-0.68,0.69-0.56,2.08-0.13,2.85c0.76,1.37,2.56,2.33,2.56,2.33s0.7,0.17,0.56,0.35
			c0.09-0.05,0.18-0.1,0.26-0.15c0.2-0.13,0.24-0.09,0.11-0.26c-0.26-0.35-0.91-0.54-1.31-0.81c-0.47-0.32-0.87-0.69-1.18-1.1
			c-0.32-0.43-0.53-0.9-0.71-1.37C62.98,101.15,62.97,100.61,63.06,99.96z"/>
		<path class="st1" d="M48.12,84.98c0.4,0.88,1.74,1.27,2.61,1.15c1.55-0.22,3.1-1.55,3.1-1.55s0.41-0.59,0.53-0.39
			c-0.02-0.1-0.03-0.2-0.05-0.3c-0.05-0.24,0-0.26-0.2-0.2c-0.42,0.12-0.98,0.39-1.37,0.67c-0.47,0.33-0.96,0.57-1.45,0.7
			c-0.52,0.14-1.03,0.17-1.53,0.17C49.05,85.23,48.69,85.3,48.12,84.98z"/>
		<path class="st1" d="M79.7,42.73c0.22,0.94-0.61,2.06-1.38,2.5c-1.36,0.77-3.4,0.64-3.4,0.64s-0.69-0.22-0.66,0.01
			c-0.05-0.09-0.1-0.18-0.14-0.27c-0.1-0.22-0.15-0.2,0.04-0.28c0.4-0.16,1.02-0.28,1.5-0.3c0.57-0.02,1.11-0.13,1.58-0.32
			c0.5-0.2,0.92-0.49,1.32-0.79C79.12,43.49,79.44,43.33,79.7,42.73z"/>
		<path class="st1" d="M75.71,40.67c0.22,0.94-0.61,2.06-1.38,2.5c-1.36,0.77-3.4,0.64-3.4,0.64s-0.69-0.22-0.66,0.01
			c-0.05-0.09-0.1-0.18-0.14-0.27c-0.1-0.22-0.15-0.2,0.04-0.28c0.4-0.16,1.02-0.28,1.5-0.3c0.57-0.02,1.11-0.13,1.58-0.32
			c0.5-0.2,0.92-0.49,1.32-0.79C75.12,41.42,75.44,41.27,75.71,40.67z"/>
		<path class="st1" d="M66.16,49.23c-1.15,0.57-2.56-0.31-3.12-1.3c-0.99-1.74-0.91-4.71-0.91-4.71s0.25-1.04-0.03-0.94
			c0.11-0.09,0.21-0.19,0.32-0.27c0.27-0.21,0.25-0.28,0.35-0.02c0.21,0.54,0.38,1.39,0.42,2.07c0.05,0.81,0.2,1.55,0.45,2.18
			c0.26,0.66,0.63,1.19,1.02,1.68C65.21,48.59,65.42,49.02,66.16,49.23z"/>
		<path class="st1" d="M52.79,98.23c0,0-0.75,4.33,1.95,6.59c2.7,2.25,3,2.25,4.66,2.18c1.65-0.08,2.7-1.23,2.7-1.23l1.38-0.16
			c0,0-2.12,0.68-2.27,1.84c-0.16,1.16-2.27,1.09-2.27,1.09s-2.19,0.04-1.76,2.22c0.43,2.18,1.51,4.39,1.51,4.39s4.28,5.6,7.85,5.97
			l-5.63,0.86l-7.59-5.9c0,0-2.82-6.1-8.9-5.98s-8,3.35-8,3.35s-4.81,2.78-9.65,1.54c0,0,5.9-5.75,4.54-20.39
			c0,0-0.13-2.88-0.63-3.8c-0.5-0.93-1.8-1.43-1.65-3.76c0.15-2.33-0.9-2.13-0.9-2.13s-1.2-0.65-0.7-1.8c0.5-1.15,0-2.75,0-2.75
			s-2.85-2.6-1-5.86c0,0,0.85-0.51-0.1-2.73c0,0-1.2-0.47-1-2.57c0,0-1.5-3.41-0.6-5.56c0,0,0.1-0.85-0.55-1.8
			c0,0-1.4,0.05-1.3-6.01c0,0,0.65-4.61,1.85-5.81c1.2-1.2,2,0.05,3.36-2.2c1.35-2.25-0.15,2.63,0.68,3.38
			c0.83,0.75,2.93-3.97,2.93-3.97s1.73,0.44,0.38,3.59c0,0-0.38,0.9,0.23,1.55c0.6,0.65,1.4,1.9,0.5,2.7c0,0,1.7,0.4,1.8-2.25
			s1.3-5.51,0.2-7.51c0,0-0.2-2.8,1.5-0.85c1.7,1.95,0.9,8.91,0.9,8.91s-0.1,2.25,3.31,1.5c0,0,1.5,0.15,3.05-0.9s1.15-0.1,1.15-0.1
			s-0.95,1.5-1.45,1.55c0,0-0.5,1.1,1.05,0.4c1.55-0.7,1.25-1.1,1.25-1.1s2.65-0.55,0.5,1.4c-2.15,1.95-4.21,2.1-4.21,2.1
			s-2.55,0.8-4.21-0.45s-2.55-1.6-2.75-0.8c-0.2,0.8-2.95,2.15-2.15,4.01s0.4,3.71,0.4,3.71s0.5,1.85,1.4,0.7
			c0.9-1.15-0.35-3.46-0.35-3.46s-0.15-1.9,0.55-1.75c0.7,0.15,0.45,6.01,1.6,5.86s1.05-1.85,1.05-1.85l0.65-3.26
			c0,0,0.7,1.85,0.5,3.36c-0.2,1.5,0.95-0.8,0.95-0.8s0.5,0.9,0.2,2.05c-0.3,1.15,1.25,1.2,1.25,1.2s1.25,0.45,1.5,1.55
			c0.25,1.1,2.6,2.3,4.26,1.75c0,0,0.65-0.65-0.55-1.75c-1.2-1.1,0.45-2.05,0.45-2.05s5.61,0.15,7.46-0.45c0,0-2.45,1.55-4.51,1.4
			c0,0-1.9,0.95,0,1.1c0,0,3,0.8,5.36-0.25c0,0-0.9,2.1-5.31,2.3c0,0-2.35,0.98-0.6,2.47c0,0,2.1,0.92,4.01,0
			c0,0-0.3,1.54-4.01,1.84c0,0-1.4,0.45,0,0.95s4.66,0,4.66,0s-1.05,1.49-3.96,1.9c0,0-2.3,0.29-1.25,1.3c0,0,2.4,0.89,4.21,0
			c0,0-2.2,1.76-4.26,1.26c0,0-1.7,0.3-0.85,0.95c0,0,0.55,0.9,3.05,0.45c0,0-2.4,1.07-2.5,1.41c0,0-3.2-0.21-3.86,2.04
			c0,0-0.8,0.25-0.6-0.9c0,0-0.15-3.31-2.85-3.96c0,0-1-1.85-2.15-0.3c0,0-1.6,0.75-1.55-0.55c0,0-3.41-2-4.06-4.46
			c0,0-1.15-1-0.9,0.85c0,0,0.35,3.58,4.36,7.27c0,0,1.7,0.64,1.6,1.64c0,0,1.22,3.95,4.36,1.4c0,0,0.85-0.75,1.25,0
			c0,0,1.3,0.95,0.7,2.5c0,0,0.4,2.11,1.15,0.75l0.4-2.41c0,0,0.7-0.9,0.75,0.5c0,0-0.4,3.61,0.35,3.53c0,0,0.9,0.32,0.8,1.07
			c0,0,0.6,2.61,2.9,2.4c0,0,1.95,0.9,1.3,1.6c0,0-0.63,0.65,0.05,1.5L52.79,98.23z"/>
		<path class="st1" d="M81.99,94.77c0,0,2.68,1.4,1.23,2.1c0,0,0.15,1.3-2.45,0.95l-3.87-0.55c0,0-0.82,0.35,0,0.55
			c0.82,0.2,3.42,0.95,4.42,0.85c1-0.1,2.57-0.35,2.33,0.9c0,0-0.13,1.5-0.43,1.6c0,0,0.41,1.66,1.74,0.3l0.21-3.25l-1.46-3.1
			l-1.05-0.56l-0.83,0.19"/>
		<path class="st1" d="M76.89,102.01c0,0,2.53-2.04,5.45-0.51c0,0,0.52,0.83-0.78,0.73c-1.3-0.1-0.95-1.29-4.06,0.01
			C77.5,102.24,76.02,103.15,76.89,102.01z"/>
		<path class="st1" d="M45.1,59.62c0,0,0.9,1.2,0,1.55c0,0-1.9,1.75,0.4,1.2c0,0,3.41,0.55,2.25,1.6c0,0-0.4,1.05,1.75,0
			c2.15-1.05,2.15-2.49,3.41-1.94c1.25,0.54,4.06,1.08,3.86,2.41c0,0-1.05,2.54,1.2,1.14c0,0,4.26-2.2,5.83-6.81
			c0,0-2.88,3.36-4.18,3c0,0-2.2-0.2-0.35-1.05c0,0-2.6,1.05-4.66,0.1c0,0-1.21-0.35-0.53-1.25c0,0-0.27-0.5-1,0.1
			c-0.73,0.6-1.73,0.88-1.73,0.88s-1.1-0.08-0.25-0.83c0.85-0.75,0.45-1.35-0.3-1.6c-0.75-0.25-3.66,0-3.66,0s2.4,1.7,0.55,1.7
			S45.1,59.62,45.1,59.62z"/>
		<path class="st1" d="M57.17,43.75c0,0-1.83,5.25,2.15,6.3c0,0,0.98,0.68,0,1.73s-0.23,2.33-0.23,2.33s-3.53-2.93-6.23-3.15
			l-2.48,0.45c0,0-1.58-0.23-1.2-1.35c0.38-1.13-1.2-3.76-2.63-3.76c0,0,0.53-1.86-0.9-2.54c0,0-2.18-0.99-3.23-0.76
			s-1.73-0.9,0-1.58c0,0,0.68-0.53-0.45-1.58c-1.13-1.05,1.43-3.08,1.65-2.03s0.08,4.28,2.25,3.76c0,0-0.53-5.86,2.18-7.06
			c0,0-2.03,6.08,0.08,6.38c0,0,0.95-1.8,2.43-1.95c0,0-5.17,7.66,3.52,10.37c0,0-0.62-1.8,0.88-5c0,0-0.29,3.32,0.9,3.57
			C55.87,47.87,55.47,44.96,57.17,43.75z"/>
		<path class="st1" d="M43.07,44.79c0,0,2.48,3.17-2.57,7.76C40.5,52.55,47.07,49.38,43.07,44.79z"/>
		<path class="st1" d="M45.01,45.62c0,0,2.48,3.17-2.57,7.76C42.43,53.38,49.01,50.21,45.01,45.62z"/>
		<path class="st1" d="M51.66,51.58c0,0,1.99,2.63-2.07,6.43C49.59,58,54.87,55.38,51.66,51.58z"/>
		<path class="st1" d="M50.52,51.82c0,0,1.25,3.05-3.66,5.68C46.86,57.49,52.64,56.32,50.52,51.82z"/>
		<path class="st1" d="M48.45,50.16c0,0,1.25,3.05-3.66,5.68C44.8,55.84,50.58,54.67,48.45,50.16z"/>
		<path class="st1" d="M61.71,56.29c0,0-0.46,3.26-6.02,3.06C55.69,59.35,61.27,61.25,61.71,56.29z"/>
		<path class="st1" d="M60.46,53.69c0,0,0.12,3.29-5.38,4.07C55.07,57.77,60.9,58.65,60.46,53.69z"/>
		<path class="st1" d="M65.83,44.79c0,0,0.5-3.99,7.31-3.65C73.15,41.14,66.27,38.72,65.83,44.79z"/>
		<path class="st1" d="M83.14,44.39c0,0-0.52,2.89-5.48,2.36C77.66,46.75,82.58,48.8,83.14,44.39z"/>
		<path class="st1" d="M86.2,46.58c0,0-0.52,2.89-5.48,2.36C80.72,48.94,85.64,50.99,86.2,46.58z"/>
		<path class="st1" d="M88.32,46.42c0,0,0.78,2.83-3.91,4.5C84.41,50.92,89.74,50.64,88.32,46.42z"/>
		<path class="st1" d="M64.71,42.73c0,0,0.5-3.99,7.31-3.65C72.03,39.08,65.14,36.66,64.71,42.73z"/>
		<path class="st1" d="M61.46,35.51c0,0,0.5-3.99,7.31-3.65C68.77,31.86,61.89,29.44,61.46,35.51z"/>
		<path class="st1" d="M34.48,42.14c0,0,0.5-3.99,7.31-3.65C41.79,38.49,34.91,36.07,34.48,42.14z"/>
		<path class="st1" d="M63.81,40.08c0,0,0.5-3.99,7.31-3.65C71.12,36.43,64.24,34.01,63.81,40.08z"/>
		<path class="st1" d="M45.59,34.9c0,0,1.66-3.66,8.07-1.32C53.65,33.58,47.8,29.23,45.59,34.9z"/>
		<path class="st1" d="M31.63,42.73c0,0-0.72-3.96,5.88-5.68C37.51,37.05,30.21,36.81,31.63,42.73z"/>
		<path class="st1" d="M27.27,47.15c0,0-0.72-3.96,5.88-5.68C33.15,41.47,25.86,41.23,27.27,47.15z"/>
		<path class="st1" d="M60.45,107.55c0,0-0.05,3.59,4.02,5.52s4.51,8.41,4.51,8.41l-4.44,1.03l-9.53-8.24v-6.38h2.48L60.45,107.55z"
			/>
		<path class="st1" d="M62.11,88.22c0,0,3.37,2.2,0.08,8.17C62.19,96.39,67.38,91.26,62.11,88.22z"/>
		<path class="st1" d="M58.59,86.57c0,0,3.31,0.42,2.32,6.12C60.91,92.68,63.66,86.93,58.59,86.57z"/>
		<path class="st1" d="M66.22,100.34c0,0-3.08-1.3-0.6-6.51C65.63,93.83,61.44,98.63,66.22,100.34z"/>
		<path class="st1" d="M65.57,102.08c0,0,3-1.46,5.3,3.84C70.86,105.92,70.01,99.61,65.57,102.08z"/>
		<path class="st1" d="M69.88,111.4c0,0-3.14,1.12-4.84-4.4C65.05,106.99,65.19,113.36,69.88,111.4z"/>
		<path class="st1" d="M54.37,85.93c0,0,3.24-0.82,4.41,4.84C58.78,90.77,59.22,84.41,54.37,85.93z"/>
		<path class="st1" d="M84.41,71.61c0,0,2.95-2.9,6.11-1.78c0,0-5.03,4.03-4.21,6.74L84.41,71.61z"/>
	</g>
</g>
<g>
	<g>
		<path class="st1" d="M107.2,40.32h13.66v2.77c2.88-1.75,8.01-4.01,11.71-4.01c13.56,0,20.24,7.4,20.24,26.51
			c0,21.88-7.6,27.33-23.32,27.33c-2.77,0-6.47-0.51-8.53-0.82v21.16H107.2V40.32z M138.84,65.6c0-10.38-3.49-14.18-8.94-14.18
			c-3.08,0-6.88,1.13-8.94,2.05v26.92c1.95,0.31,5.45,0.62,7.5,0.62C136.68,81.01,138.84,76.49,138.84,65.6z"/>
		<path class="st1" d="M159.69,76.08c0-11.61,6.68-14.9,17.98-15.72l10.99-0.82v-3.18c0-4.42-1.95-5.55-6.06-5.55
			c-4.93,0-13.97,0.51-19.31,0.82l-0.41-9.55c4.73-1.23,13.66-2.98,20.86-2.98c13.36,0,18.7,5.24,18.7,17.26v21.37
			c0.21,3.08,0.62,4.32,3.39,4.83l-0.41,10.38c-3.8,0-6.47-0.21-8.94-0.92c-2.05-0.51-3.8-1.34-5.75-2.67
			c-3.18,1.54-9.45,3.6-15.1,3.6C164.83,92.93,159.69,86.97,159.69,76.08z M188.66,80.08V69.09l-9.35,0.82
			c-3.6,0.31-5.75,2.05-5.75,5.75c0,3.6,1.34,6.06,5.03,6.06C181.78,81.73,186.2,80.8,188.66,80.08z"/>
		<path class="st1" d="M215.58,40.32h13.66v5.45c3.7-2.26,10.79-5.55,16.44-6.68v13.87c-6.58,1.23-13.15,3.19-16.33,4.32v34.42
			h-13.77V40.32z"/>
		<path class="st1" d="M250.4,76.08c0-11.61,6.68-14.9,17.98-15.72l10.99-0.82v-3.18c0-4.42-1.95-5.55-6.06-5.55
			c-4.93,0-13.97,0.51-19.31,0.82l-0.41-9.55c4.73-1.23,13.66-2.98,20.86-2.98c13.36,0,18.7,5.24,18.7,17.26v21.37
			c0.21,3.08,0.62,4.32,3.39,4.83l-0.41,10.38c-3.8,0-6.47-0.21-8.94-0.92c-2.05-0.51-3.8-1.34-5.75-2.67
			c-3.18,1.54-9.45,3.6-15.1,3.6C255.54,92.93,250.4,86.97,250.4,76.08z M279.37,80.08V69.09l-9.35,0.82
			c-3.6,0.31-5.75,2.05-5.75,5.75c0,3.6,1.34,6.06,5.03,6.06C272.49,81.73,276.91,80.8,279.37,80.08z"/>
		<path class="st1" d="M308.75,52.04h-5.55V40.32h5.55v-2.26c0-14.79,3.8-19.52,15-19.52c2.47,0,8.12,0.72,11.71,1.34l-0.21,11.2
			c-1.95-0.1-5.45-0.21-7.81-0.21c-3.9,0-4.93,2.05-4.93,7.29v2.16h12.43v11.71h-12.43v39.66h-13.77V52.04z"/>
		<path class="st1" d="M339.98,66.73c0-18.29,7.71-27.64,22.7-27.64c15.1,0,22.4,7.71,22.4,23.22l-1.03,9.55h-30.21
			c0.1,6.16,2.98,8.94,10.38,8.94c6.17,0,14.49-0.51,19.01-0.92l0.21,10.17c-5.03,1.23-14.38,2.88-21.37,2.88
			C346.55,92.93,339.98,85.22,339.98,66.73z M371.52,61.39c0-8.32-2.36-10.99-8.84-10.99c-6.58,0-8.83,3.19-8.94,10.99H371.52z"/>
		<path class="st1" d="M393.09,90.46l0.41-11.51c5.45,0.72,14.18,1.64,17.98,1.64c6.58,0,8.32-1.34,8.32-4.01
			c0-2.26-1.13-3.29-10.58-4.83c-11.1-1.85-16.95-4.52-16.95-15.82c0-11.92,9.04-16.75,19.83-16.75c5.44,0,14.59,1.44,19.93,2.57
			l-0.21,11.4c-5.45-0.72-14.38-1.64-18.7-1.64c-5.96,0-7.19,1.33-7.19,4.11c0,2.36,1.95,2.88,11.4,4.62
			c11.92,2.16,16.13,5.65,16.13,16.03c0,12.02-7.81,16.64-20.65,16.64C407.27,92.93,398.33,91.49,393.09,90.46z"/>
		<path class="st1" d="M440.75,65.91c0-15.82,5.75-26.81,23.63-26.81s23.63,10.99,23.63,26.81s-5.75,27.02-23.63,27.02
			S440.75,81.73,440.75,65.91z M446.61,16.9h13.15v13.56h-13.15V16.9z M474.04,65.91c0-9.97-2.05-15.1-9.66-15.1
			s-9.66,5.14-9.66,15.1s2.05,15.31,9.66,15.31S474.04,75.87,474.04,65.91z M468.8,16.9h13.15v13.56H468.8V16.9z"/>
		<path class="st1" d="M498.08,40.32h13.66v5.45c3.7-2.26,10.79-5.55,16.44-6.68v13.87c-6.58,1.23-13.15,3.19-16.33,4.32v34.42
			h-13.77V40.32z"/>
	</g>
</g>
<path class="st1" d="M126.27,110.31c0-2.07,1.08-3,3.3-3.19l3.39-0.32v-0.93c0-1.51-0.67-2.05-1.94-2.05c-1.1,0-2.98,0.17-4.08,0.28
	l-0.06-1.23c1.01-0.19,2.87-0.47,4.23-0.47c2.44,0,3.48,1.12,3.48,3.47v5.5c0.04,0.65,0.56,0.88,1.25,0.95l-0.06,1.3
	c-0.63,0-1.12-0.06-1.58-0.24c-0.37-0.13-0.71-0.32-0.99-0.63c-0.84,0.37-2.46,0.86-3.88,0.86
	C127.35,113.62,126.27,112.5,126.27,110.31z M132.96,111.59v-3.56l-3.19,0.3c-1.32,0.13-1.83,0.76-1.83,1.94
	c0,1.25,0.54,1.98,1.64,1.98C130.74,112.26,132.19,111.89,132.96,111.59z M140.8,102.61h1.62v1.47c0.8-0.56,2.42-1.4,3.93-1.71v1.64
	c-1.47,0.3-3.11,1.01-3.93,1.47v7.92h-1.62V102.61z M150.6,110.31c0-2.07,1.08-3,3.3-3.19l3.39-0.32v-0.93
	c0-1.51-0.67-2.05-1.94-2.05c-1.1,0-2.98,0.17-4.08,0.28l-0.06-1.23c1.01-0.19,2.87-0.47,4.23-0.47c2.44,0,3.48,1.12,3.48,3.47v5.5
	c0.04,0.65,0.56,0.88,1.25,0.95l-0.06,1.3c-0.63,0-1.12-0.06-1.58-0.24c-0.37-0.13-0.71-0.32-0.99-0.63
	c-0.84,0.37-2.46,0.86-3.88,0.86C151.68,113.62,150.6,112.5,150.6,110.31z M157.29,111.59v-3.56l-3.19,0.3
	c-1.32,0.13-1.83,0.76-1.83,1.94c0,1.25,0.54,1.98,1.64,1.98C155.07,112.26,156.51,111.89,157.29,111.59z M165.13,102.61h1.62v0.76
	c0.73-0.41,2.16-0.97,3.35-0.97c2.96,0,3.63,1.47,3.63,5.31v5.7h-1.62v-5.66c0-2.85-0.3-3.91-2.31-3.91c-1.12,0-2.4,0.45-3.04,0.8
	v8.76h-1.62V102.61z M179.76,102.61h1.62v10.79h-1.62V102.61z M186.86,111.93l6.02-7.86h-6.02v-1.47h8.01v1.47l-6.04,7.86h6.04v1.47
	h-8.01V111.93z M199.67,110.31c0-2.07,1.08-3,3.3-3.19l3.39-0.32v-0.93c0-1.51-0.67-2.05-1.94-2.05c-1.1,0-2.98,0.17-4.08,0.28
	l-0.06-1.23c1.01-0.19,2.87-0.47,4.23-0.47c2.44,0,3.47,1.12,3.47,3.47v5.5c0.04,0.65,0.56,0.88,1.25,0.95l-0.06,1.3
	c-0.63,0-1.12-0.06-1.58-0.24c-0.37-0.13-0.71-0.32-0.99-0.63c-0.84,0.37-2.46,0.86-3.88,0.86
	C200.74,113.62,199.67,112.5,199.67,110.31z M206.36,111.59v-3.56l-3.19,0.3c-1.32,0.13-1.83,0.76-1.83,1.94
	c0,1.25,0.54,1.98,1.64,1.98C204.13,112.26,205.58,111.89,206.36,111.59z M221.27,110.31c0-2.07,1.08-3,3.3-3.19l3.39-0.32v-0.93
	c0-1.51-0.67-2.05-1.94-2.05c-1.1,0-2.98,0.17-4.08,0.28l-0.06-1.23c1.01-0.19,2.87-0.47,4.23-0.47c2.44,0,3.47,1.12,3.47,3.47v5.5
	c0.04,0.65,0.56,0.88,1.25,0.95l-0.06,1.3c-0.63,0-1.12-0.06-1.58-0.24c-0.37-0.13-0.71-0.32-0.99-0.63
	c-0.84,0.37-2.46,0.86-3.88,0.86C222.35,113.62,221.27,112.5,221.27,110.31z M227.96,111.59v-3.56l-3.19,0.3
	c-1.32,0.13-1.83,0.76-1.83,1.94c0,1.25,0.54,1.98,1.64,1.98C225.74,112.26,227.19,111.89,227.96,111.59z M235.8,97.9h1.62v9.15
	l1.68-0.09l3.07-4.36h1.86l-3.5,4.96l3.67,5.83h-1.86l-3.19-5.01l-1.73,0.09v4.92h-1.62V97.9z M249.16,102.61h1.62v10.79h-1.62
	V102.61z M257.04,97.9h1.62v15.5h-1.62V97.9z M271.68,102.61h1.75l2.5,9.39h0.8l2.61-9.39H281l-3.04,10.79h-3.26L271.68,102.61z
	 M285.43,108.07c0-4.1,1.77-5.68,4.51-5.68c2.87,0,4.36,1.51,4.36,5.05l-0.11,1.23h-7.12c0.02,2.31,0.71,3.5,2.85,3.5
	c1.17,0,2.93-0.11,3.95-0.19l0.04,1.3c-1.06,0.15-2.93,0.35-4.21,0.35C286.48,113.62,285.43,111.74,285.43,108.07z M292.66,107.38
	c0-2.68-0.82-3.63-2.72-3.63c-1.84,0-2.87,1.01-2.87,3.63H292.66z M299.83,102.61h1.62v1.47c0.8-0.56,2.42-1.4,3.93-1.71v1.64
	c-1.47,0.3-3.11,1.01-3.93,1.47v7.92h-1.62V102.61z M310.32,98.29h1.62v1.9h-1.62V98.29z M310.32,102.61h1.62v10.79h-1.62V102.61z
	 M318.07,102.61h1.62v1.47c0.8-0.56,2.42-1.4,3.93-1.71v1.64c-1.47,0.3-3.11,1.01-3.93,1.47v7.92h-1.62V102.61z"/>
</svg>
