<?xml version="1.0" encoding="utf-8"?>
<!-- Generator: Adobe Illustrator 25.2.3, SVG Export Plug-In . SVG Version: 6.00 Build 0)  -->
<svg version="1.1" id="Layer_1" xmlns="http://www.w3.org/2000/svg" xmlns:xlink="http://www.w3.org/1999/xlink" x="0px" y="0px"
	 viewBox="0 0 298.87 284.86" style="enable-background:new 0 0 298.87 284.86;" xml:space="preserve">
<style type="text/css">
	.st0{fill:#4B4D4D;}
	.st1{fill:#FFFFFF;}
	.st2{opacity:0.34;}
	.st3{fill:#F2F2F2;}
	.st4{fill:#231F20;}
</style>
<g>
	<circle class="st0" cx="149.44" cy="142.43" r="135.43"/>
	<path class="st1" d="M149.44,269.27c-69.94,0-126.83-56.9-126.83-126.83S79.5,15.6,149.44,15.6s126.83,56.9,126.83,126.83
		S219.37,269.27,149.44,269.27z M149.44,17.78C80.7,17.78,24.78,73.7,24.78,142.43c0,68.74,55.92,124.66,124.66,124.66
		c68.74,0,124.66-55.92,124.66-124.66C274.09,73.7,218.17,17.78,149.44,17.78z"/>
	<g>
		<path class="st1" d="M75.66,201.31l5.06,5.5c3.23,3.52,3.18,6.9-0.29,10.09c-3.47,3.2-7.07,3.17-10.3-0.34l-2.27-2.46l-4.35,4
			l-2.79-3.03L75.66,201.31z M72.69,214.14c1.4,1.52,3.01,1.42,4.9-0.32c1.87-1.72,1.91-3.13,0.51-4.65l-2.24-2.44l-5.41,4.97
			L72.69,214.14z"/>
		<path class="st1" d="M91.33,216.64l6.35,4.57l-8.15,19.15l-3.35-2.41l1.49-3.45l-5.77-4.15l-2.8,2.51l-3.35-2.41L91.33,216.64z
			 M89.14,231.14l3.96-9.03l-1.16-0.84l-7.31,6.63L89.14,231.14z"/>
		<path class="st1" d="M105.6,226.08l7.24,3.13c4.25,1.84,5.76,4.74,3.92,8.99c-1.12,2.58-2.9,3.85-5.07,4.19l-0.43,8.28l-4.14-1.79
			l0.54-7.19l-3.65-1.58l-2.7,6.25l-3.78-1.64L105.6,226.08z M108.93,238.4c1.89,0.82,3.23-0.17,3.94-1.81
			c0.77-1.78,0.38-3.35-1.43-4.14l-3.46-1.5l-2.56,5.92L108.93,238.4z"/>
		<path class="st1" d="M127.24,234.06l7.68,1.51l0.55,20.8l-4.04-0.8l-0.08-3.76l-6.97-1.38l-1.5,3.45l-4.04-0.8L127.24,234.06z
			 M131.28,248.15l-0.15-9.86l-1.41-0.28l-3.89,9.06L131.28,248.15z"/>
		<path class="st1" d="M143.95,236.69l12.96-0.21l0.06,3.58l-8.84,0.14l0.1,5.97l7.23-0.12l0.06,3.58l-7.23,0.12l0.12,7.17
			l-4.12,0.07L143.95,236.69z"/>
		<path class="st1" d="M162.24,235.93l12.88-2.6l0.71,3.51l-8.84,1.79l0.94,4.66l7.09-1.43l0.7,3.45l-7.09,1.43l0.96,4.77l8.84-1.79
			l0.71,3.51l-12.88,2.6L162.24,235.93z"/>
		<path class="st1" d="M187.2,250.14l-0.85-3.11c1.69-0.45,4.42-1.27,5.86-1.87c2.04-0.85,2.52-2.19,1.9-3.65
			c-0.48-1.16-1.37-1.4-4.39-1.04c-4.72,0.55-6.92-0.21-8.18-3.21c-1.63-3.88,0.26-6.65,4.06-8.24c1.82-0.76,4.77-1.52,6.48-1.84
			l0.96,3.13c-1.76,0.51-4.51,1.37-5.67,1.86c-2.04,0.85-2.69,2-2.17,3.24c0.5,1.18,1.41,1.29,4.97,0.96
			c4.59-0.4,6.31,0.21,7.61,3.32c1.71,4.08-0.28,7.14-3.97,8.69C191.94,249.16,188.95,249.83,187.2,250.14z"/>
		<path class="st1" d="M195.31,217.39l3.14-2.18l2.25,3.23l-3.14,2.18L195.31,217.39z M202.14,233.01
			c-3.92-5.64-4.41-9.89,0.84-13.54c5.24-3.65,9.06-1.72,12.99,3.91c3.93,5.64,4.27,9.69-0.97,13.34
			C209.75,240.37,206.07,238.64,202.14,233.01z M200.55,213.74l3.14-2.18l2.25,3.23l-3.14,2.18L200.55,213.74z M212.48,225.8
			c-2.68-3.85-4.71-5.31-7.46-3.39c-2.74,1.91-2.08,4.32,0.6,8.17c2.68,3.85,4.58,5.11,7.32,3.2
			C215.69,231.87,215.16,229.65,212.48,225.8z"/>
		<path class="st1" d="M214.13,211.21l5.32-5.81c3.13-3.41,6.36-3.89,9.77-0.77c2.07,1.9,2.69,4,2.3,6.16l7.68,3.11l-3.05,3.32
			l-6.61-2.86l-2.68,2.93l5.02,4.6l-2.78,3.04L214.13,211.21z M226.85,212.09c1.39-1.52,0.9-3.1-0.42-4.31
			c-1.43-1.31-3.04-1.45-4.37,0l-2.54,2.77l4.76,4.36L226.85,212.09z"/>
	</g>
	<g>
		<g>
			<path class="st1" d="M61.68,75.2l1.04-1.25l0.6,0.5c0.11-0.81,0.55-2.23,1.3-3.13c1.75-2.11,3.8-1.96,6.76,0.49
				c3.3,2.73,3.58,4.74,1.43,7.33c-0.6,0.72-1.36,1.41-1.74,1.72l3.73,3.09l-1.04,1.25L61.68,75.2z M70.3,73.1
				c-2.29-1.9-3.71-1.89-4.72-0.67c-0.68,0.82-1.11,2.13-1.24,2.86l5.64,4.67c0.34-0.31,1.11-1,1.66-1.67
				C73.15,76.47,72.71,75.09,70.3,73.1z"/>
			<path class="st1" d="M76.04,70.43c-1.42-1.52-1.27-2.95,0.24-4.62l2.27-2.56l-0.64-0.68c-1.04-1.11-1.9-1.05-2.84-0.18
				c-0.81,0.76-2.07,2.17-2.81,3.01l-0.89-0.86c0.61-0.84,1.79-2.32,2.79-3.26c1.8-1.67,3.33-1.56,4.94,0.17l3.78,4.05
				c0.48,0.45,1.02,0.27,1.57-0.16l0.84,1c-0.46,0.43-0.87,0.72-1.32,0.91c-0.36,0.16-0.75,0.25-1.16,0.22
				c-0.37,0.85-1.22,2.33-2.27,3.3C79.1,72.12,77.54,72.04,76.04,70.43z M81.84,66.78l-2.44-2.62l-2.14,2.42
				c-0.88,1-0.83,1.82-0.02,2.69c0.86,0.92,1.76,1.09,2.57,0.33C80.66,68.8,81.48,67.53,81.84,66.78z"/>
			<path class="st1" d="M81.65,55.19l1.3-0.98l0.88,1.18c0.31-0.93,1.1-2.59,2.14-3.74l0.99,1.32c-1,1.13-1.89,2.69-2.28,3.55
				l4.77,6.38l-1.3,0.97L81.65,55.19z"/>
			<path class="st1" d="M93.53,56.14c-1.06-1.8-0.59-3.15,1.24-4.45l2.77-2.01l-0.47-0.81c-0.77-1.31-1.62-1.44-2.73-0.79
				c-0.95,0.56-2.5,1.67-3.4,2.32l-0.68-1.03c0.78-0.68,2.25-1.87,3.43-2.57c2.12-1.24,3.59-0.8,4.79,1.24l2.81,4.78
				c0.37,0.54,0.94,0.48,1.57,0.19l0.6,1.16c-0.54,0.32-1.01,0.52-1.49,0.6c-0.38,0.08-0.78,0.08-1.18-0.04
				c-0.54,0.75-1.7,2-2.93,2.73C96.15,58.45,94.64,58.03,93.53,56.14z M99.98,53.83l-1.81-3.09l-2.62,1.89
				c-1.08,0.78-1.21,1.59-0.6,2.62c0.64,1.09,1.48,1.45,2.44,0.89C98.4,55.54,99.46,54.49,99.98,53.83z"/>
			<path class="st1" d="M102.45,42.33l1.5-0.64l0.3,0.7c0.52-0.67,1.62-1.75,2.72-2.21c2.74-1.16,3.94-0.06,5.45,3.5l2.24,5.28
				l-1.5,0.63l-2.22-5.24c-1.12-2.64-1.81-3.5-3.67-2.71c-1.04,0.44-2.04,1.36-2.51,1.94l3.44,8.12l-1.5,0.63L102.45,42.33z"/>
			<path class="st1" d="M116.06,37.1l1.56-0.48l3.2,10.38l-1.56,0.48L116.06,37.1z"/>
			<path class="st1" d="M124.62,44.34l4.3-8.98L123,36.6l-0.3-1.45l7.88-1.66l0.3,1.45l-4.32,8.99l5.95-1.25l0.3,1.45l-7.89,1.66
				L124.62,44.34z"/>
			<path class="st1" d="M136.05,40.48c-0.18-2.08,0.83-3.1,3.04-3.49l3.37-0.61l-0.08-0.93c-0.13-1.52-0.85-2-2.12-1.89
				c-1.1,0.09-2.97,0.43-4.07,0.63l-0.17-1.23c1-0.28,2.84-0.72,4.2-0.84c2.45-0.21,3.58,0.83,3.78,3.19l0.47,5.52
				c0.1,0.65,0.64,0.84,1.34,0.85l0.05,1.3c-0.63,0.05-1.13,0.03-1.6-0.1c-0.38-0.1-0.74-0.26-1.05-0.54
				c-0.81,0.44-2.39,1.08-3.82,1.2C137.41,43.7,136.23,42.67,136.05,40.48z M142.87,41.19l-0.3-3.57l-3.18,0.58
				c-1.31,0.24-1.78,0.91-1.67,2.11c0.11,1.26,0.71,1.95,1.81,1.85C140.69,42.05,142.11,41.56,142.87,41.19z"/>
			<path class="st1" d="M155.91,39.82c0.22-2.07,1.4-2.89,3.65-2.84l3.43,0.04l0.1-0.93c0.16-1.51-0.45-2.12-1.72-2.26
				c-1.1-0.12-3-0.15-4.11-0.16l0.07-1.24c1.04-0.09,2.92-0.17,4.28-0.02c2.44,0.26,3.36,1.5,3.11,3.85l-0.59,5.51
				c-0.03,0.65,0.47,0.95,1.15,1.08l-0.2,1.29c-0.63-0.07-1.12-0.19-1.55-0.41c-0.35-0.17-0.68-0.4-0.93-0.73
				c-0.88,0.28-2.56,0.6-3.98,0.45C156.64,43.24,155.68,42,155.91,39.82z M162.47,41.81l0.38-3.56l-3.23-0.04
				c-1.33-0.01-1.92,0.56-2.04,1.75c-0.13,1.25,0.33,2.04,1.43,2.16C160.18,42.24,161.66,42.03,162.47,41.81z"/>
			<path class="st1" d="M172.33,29.45l1.59,0.37l-2.11,8.97l1.67,0.3l4.01-3.57l1.82,0.43l-4.57,4.06l2.25,6.56l-1.82-0.43
				l-1.98-5.64l-1.71-0.31l-1.13,4.82l-1.59-0.37L172.33,29.45z"/>
			<path class="st1" d="M184.01,37.48l1.54,0.52l-3.47,10.29l-1.54-0.52L184.01,37.48z"/>
			<path class="st1" d="M192.92,35.72l1.5,0.63l-5.99,14.4l-1.5-0.63L192.92,35.72z"/>
			<path class="st1" d="M203.89,46.19l1.49,0.93l-2.86,9.35l0.68,0.43l7.23-6.62l1.42,0.88l-8.35,7.59l-2.78-1.74L203.89,46.19z"/>
			<path class="st1" d="M212.03,58.04c2.6-3.21,4.98-3.32,7.12-1.58c2.24,1.82,2.45,3.94,0.21,6.71l-0.86,0.89l-5.57-4.51
				c-1.45,1.82-1.66,3.19,0.01,4.54c0.91,0.74,2.36,1.77,3.21,2.35l-0.79,1.04c-0.92-0.55-2.51-1.59-3.51-2.4
				C209.34,63.05,209.71,60.92,212.03,58.04z M218.12,62.09c1.7-2.09,1.66-3.36,0.17-4.56c-1.44-1.16-2.89-1.03-4.54,1.02
				L218.12,62.09z"/>
			<path class="st1" d="M226.41,63.17l1.15,1.16l-1.05,1.04c0.97,0.17,2.71,0.73,4,1.6l-1.17,1.16c-1.26-0.84-2.93-1.5-3.83-1.77
				l-5.66,5.61l-1.15-1.16L226.41,63.17z"/>
			<path class="st1" d="M233.4,70.64l1.05,1.25l-8.3,7l-1.05-1.25L233.4,70.64z M236.72,67.84l1.05,1.24l-1.46,1.23l-1.05-1.24
				L236.72,67.84z"/>
			<path class="st1" d="M238.1,76.49l0.95,1.33l-1.2,0.86c0.93,0.33,2.56,1.16,3.69,2.22l-1.34,0.96c-1.11-1.03-2.65-1.95-3.5-2.36
				l-6.49,4.63l-0.95-1.33L238.1,76.49z"/>
		</g>
	</g>
	<g class="st2">
		<g>
			<path class="st3" d="M253.23,105.17c0.66-0.21,1.35-0.14,1.93,0.16c0.58,0.3,1.04,0.81,1.25,1.48c0.21,0.66,0.14,1.35-0.16,1.93
				c-0.3,0.58-0.81,1.04-1.48,1.25c-0.67,0.21-1.36,0.14-1.93-0.16c-0.58-0.3-1.04-0.81-1.25-1.48c-0.21-0.67-0.14-1.36,0.16-1.93
				C252.05,105.84,252.57,105.38,253.23,105.17z"/>
			<path class="st3" d="M256.73,119.16c0.71-0.23,1.45-0.15,2.07,0.17s1.12,0.87,1.35,1.59c0.23,0.71,0.15,1.45-0.17,2.07
				c-0.32,0.62-0.87,1.12-1.59,1.35c-0.71,0.23-1.46,0.15-2.07-0.17c-0.62-0.32-1.12-0.87-1.35-1.59c-0.23-0.71-0.15-1.46,0.17-2.07
				S256.02,119.39,256.73,119.16z"/>
			<path class="st3" d="M258.15,132.84c0.95-0.3,1.93-0.2,2.75,0.23c0.82,0.42,1.48,1.16,1.78,2.1s0.2,1.93-0.22,2.75
				c-0.42,0.82-1.16,1.48-2.1,1.78s-1.93,0.2-2.75-0.22c-0.82-0.42-1.48-1.16-1.78-2.1s-0.2-1.93,0.23-2.75
				C256.46,133.81,257.2,133.15,258.15,132.84z"/>
			<path class="st3" d="M257.72,146.88c1.11-0.36,2.25-0.23,3.21,0.26c0.96,0.49,1.73,1.35,2.08,2.46c0.36,1.11,0.23,2.26-0.26,3.21
				c-0.49,0.96-1.35,1.73-2.46,2.09c-1.11,0.36-2.25,0.23-3.21-0.26c-0.96-0.49-1.73-1.35-2.08-2.46c-0.36-1.11-0.23-2.25,0.26-3.21
				C255.75,148,256.61,147.23,257.72,146.88z"/>
			<path class="st3" d="M255.71,161.78c0.98-0.32,2-0.2,2.86,0.23c0.85,0.44,1.54,1.2,1.85,2.19c0.32,0.98,0.2,2.01-0.23,2.86
				c-0.44,0.85-1.2,1.54-2.19,1.85c-0.99,0.32-2,0.21-2.86-0.23c-0.85-0.44-1.54-1.2-1.85-2.19s-0.2-2.01,0.23-2.86
				C253.96,162.78,254.72,162.1,255.71,161.78z"/>
			<path class="st3" d="M251.82,176.28c0.86-0.28,1.75-0.18,2.5,0.21c0.75,0.38,1.34,1.05,1.62,1.91c0.28,0.86,0.18,1.75-0.2,2.5
				c-0.38,0.75-1.05,1.34-1.91,1.62c-0.86,0.28-1.75,0.18-2.5-0.2c-0.75-0.38-1.35-1.05-1.62-1.91c-0.28-0.86-0.18-1.75,0.21-2.5
				S250.96,176.55,251.82,176.28z"/>
			<path class="st3" d="M246.14,190.13c0.74-0.24,1.5-0.15,2.14,0.18c0.64,0.33,1.15,0.9,1.39,1.64c0.24,0.74,0.15,1.5-0.18,2.14
				c-0.33,0.64-0.9,1.15-1.64,1.39c-0.74,0.24-1.5,0.15-2.14-0.18c-0.64-0.33-1.15-0.9-1.39-1.64c-0.24-0.74-0.15-1.5,0.18-2.14
				C244.83,190.88,245.4,190.37,246.14,190.13z"/>
		</g>
		<g>
			<path class="st3" d="M235.4,100.69c0.49-0.16,0.99-0.1,1.41,0.12c0.42,0.22,0.76,0.59,0.91,1.08c0.16,0.49,0.1,0.99-0.12,1.41
				c-0.22,0.42-0.59,0.76-1.08,0.91c-0.49,0.16-0.99,0.1-1.41-0.12c-0.42-0.22-0.76-0.59-0.91-1.08c-0.16-0.49-0.1-0.99,0.12-1.41
				C234.53,101.19,234.91,100.85,235.4,100.69z"/>
			<path class="st3" d="M240.06,113.73c0.84-0.27,1.7-0.17,2.43,0.2c0.72,0.37,1.3,1.02,1.57,1.85c0.27,0.84,0.17,1.7-0.2,2.42
				c-0.37,0.72-1.02,1.3-1.86,1.57s-1.7,0.17-2.42-0.2c-0.72-0.37-1.3-1.02-1.57-1.86c-0.27-0.84-0.17-1.7,0.2-2.42
				C238.58,114.58,239.23,114,240.06,113.73z"/>
			<path class="st3" d="M242.73,128.39c0.91-0.29,1.85-0.19,2.64,0.22c0.79,0.4,1.42,1.11,1.71,2.02c0.29,0.91,0.19,1.85-0.22,2.64
				c-0.41,0.79-1.11,1.42-2.02,1.71c-0.91,0.29-1.85,0.19-2.64-0.22c-0.79-0.41-1.42-1.11-1.71-2.02s-0.19-1.85,0.22-2.64
				C241.12,129.32,241.83,128.68,242.73,128.39z"/>
			<path class="st3" d="M242.74,142.4c1.23-0.4,2.51-0.25,3.57,0.29c1.07,0.55,1.92,1.5,2.32,2.73c0.4,1.23,0.26,2.51-0.29,3.57
				c-0.55,1.07-1.5,1.92-2.74,2.32c-1.23,0.39-2.51,0.25-3.57-0.29c-1.07-0.55-1.92-1.5-2.32-2.73c-0.4-1.23-0.25-2.51,0.29-3.57
				C240.55,143.65,241.51,142.79,242.74,142.4z"/>
			<path class="st3" d="M241.33,159.23c0.74-0.24,1.5-0.15,2.14,0.18c0.64,0.33,1.15,0.9,1.39,1.64c0.24,0.74,0.15,1.5-0.18,2.14
				c-0.33,0.64-0.9,1.15-1.64,1.39c-0.74,0.24-1.5,0.15-2.14-0.18c-0.64-0.33-1.15-0.9-1.39-1.64c-0.24-0.74-0.15-1.5,0.18-2.14
				C240.02,159.98,240.59,159.47,241.33,159.23z"/>
			<path class="st3" d="M237.21,174.32c0.59-0.19,1.2-0.12,1.71,0.14c0.51,0.26,0.92,0.72,1.11,1.31c0.19,0.59,0.12,1.2-0.14,1.71
				c-0.26,0.51-0.72,0.92-1.31,1.11c-0.59,0.19-1.2,0.12-1.71-0.14c-0.51-0.26-0.92-0.72-1.11-1.31c-0.19-0.59-0.12-1.2,0.14-1.71
				C236.16,174.92,236.62,174.51,237.21,174.32z"/>
			<path class="st3" d="M230.87,188.57c0.44-0.14,0.9-0.09,1.29,0.1c0.38,0.2,0.69,0.54,0.83,0.98s0.09,0.9-0.1,1.29
				c-0.2,0.38-0.54,0.69-0.98,0.83c-0.44,0.14-0.9,0.09-1.28-0.11c-0.38-0.2-0.69-0.54-0.84-0.98c-0.14-0.44-0.09-0.9,0.11-1.29
				C230.09,189.02,230.43,188.71,230.87,188.57z"/>
		</g>
		<g>
			<path class="st3" d="M219.46,102.43c0.38-0.12,0.77-0.08,1.09,0.09c0.33,0.17,0.59,0.46,0.71,0.84c0.12,0.38,0.08,0.77-0.09,1.09
				c-0.17,0.33-0.46,0.59-0.84,0.71c-0.38,0.12-0.77,0.08-1.09-0.09c-0.33-0.17-0.59-0.46-0.71-0.84c-0.12-0.38-0.08-0.77,0.09-1.09
				C218.79,102.81,219.08,102.55,219.46,102.43z"/>
			<path class="st3" d="M224.68,114.66c0.63-0.2,1.27-0.13,1.82,0.15c0.54,0.28,0.98,0.76,1.18,1.39c0.2,0.63,0.13,1.28-0.15,1.82
				c-0.28,0.54-0.76,0.98-1.39,1.18c-0.63,0.2-1.28,0.13-1.82-0.15c-0.54-0.28-0.98-0.76-1.18-1.39c-0.2-0.63-0.13-1.27,0.15-1.82
				C223.57,115.3,224.05,114.86,224.68,114.66z"/>
			<path class="st3" d="M227.6,127.86c0.82-0.26,1.67-0.17,2.38,0.2c0.71,0.37,1.28,1,1.55,1.82s0.17,1.67-0.2,2.38
				c-0.36,0.71-1,1.28-1.82,1.54c-0.82,0.26-1.67,0.17-2.38-0.19c-0.71-0.37-1.28-1-1.55-1.82c-0.26-0.82-0.17-1.67,0.2-2.38
				C226.14,128.69,226.78,128.12,227.6,127.86z"/>
			<path class="st3" d="M228.03,141.26c1.05-0.34,2.13-0.22,3.04,0.25c0.91,0.47,1.64,1.28,1.97,2.33c0.34,1.05,0.22,2.13-0.25,3.05
				c-0.47,0.91-1.28,1.64-2.33,1.97c-1.05,0.34-2.14,0.22-3.04-0.25c-0.91-0.47-1.64-1.28-1.98-2.33c-0.34-1.05-0.22-2.14,0.25-3.04
				C226.17,142.33,226.99,141.6,228.03,141.26z"/>
			<path class="st3" d="M226.55,156.28c0.81-0.26,1.64-0.17,2.34,0.19c0.7,0.36,1.26,0.98,1.52,1.79c0.26,0.81,0.17,1.64-0.19,2.34
				c-0.36,0.7-0.98,1.26-1.79,1.52c-0.81,0.26-1.64,0.17-2.34-0.19c-0.7-0.36-1.26-0.99-1.52-1.79c-0.26-0.81-0.17-1.64,0.19-2.34
				C225.12,157.1,225.75,156.54,226.55,156.28z"/>
			<path class="st3" d="M222.92,171.63c0.33-0.11,0.67-0.07,0.95,0.08c0.28,0.15,0.51,0.4,0.62,0.73c0.11,0.33,0.07,0.67-0.08,0.95
				c-0.15,0.28-0.4,0.51-0.73,0.62c-0.33,0.11-0.67,0.07-0.95-0.08c-0.29-0.15-0.51-0.4-0.62-0.73c-0.11-0.33-0.07-0.67,0.08-0.95
				C222.34,171.97,222.59,171.74,222.92,171.63z"/>
			<path class="st3" d="M216.61,184.9c0.17-0.05,0.33-0.03,0.48,0.04c0.14,0.07,0.26,0.2,0.31,0.37c0.05,0.16,0.03,0.33-0.04,0.48
				c-0.07,0.14-0.2,0.26-0.36,0.31c-0.17,0.05-0.33,0.03-0.48-0.04c-0.14-0.07-0.26-0.2-0.31-0.36c-0.05-0.17-0.03-0.34,0.04-0.48
				C216.32,185.07,216.44,184.96,216.61,184.9z"/>
		</g>
	</g>
	<g class="st2">
		<g>
			<path class="st3" d="M46.3,105.17c-0.66-0.21-1.35-0.14-1.93,0.16c-0.58,0.3-1.04,0.81-1.25,1.48c-0.21,0.66-0.14,1.35,0.16,1.93
				c0.3,0.58,0.81,1.04,1.48,1.25c0.67,0.21,1.36,0.14,1.93-0.16c0.58-0.3,1.04-0.81,1.25-1.48c0.21-0.67,0.14-1.36-0.16-1.93
				C47.48,105.84,46.96,105.38,46.3,105.17z"/>
			<path class="st3" d="M42.79,119.16c-0.71-0.23-1.45-0.15-2.07,0.17c-0.62,0.32-1.12,0.87-1.35,1.59
				c-0.23,0.71-0.15,1.45,0.17,2.07c0.32,0.62,0.87,1.12,1.59,1.35s1.46,0.15,2.07-0.17c0.62-0.32,1.12-0.87,1.35-1.59
				s0.15-1.46-0.17-2.07S43.51,119.39,42.79,119.16z"/>
			<path class="st3" d="M41.38,132.84c-0.95-0.3-1.93-0.2-2.75,0.23c-0.82,0.42-1.48,1.16-1.78,2.1s-0.2,1.93,0.22,2.75
				c0.42,0.82,1.16,1.48,2.1,1.78c0.95,0.3,1.93,0.2,2.75-0.22c0.82-0.42,1.48-1.16,1.78-2.1s0.2-1.93-0.23-2.75
				C43.06,133.81,42.33,133.15,41.38,132.84z"/>
			<path class="st3" d="M41.81,146.88c-1.11-0.36-2.25-0.23-3.21,0.26c-0.96,0.49-1.73,1.35-2.08,2.46
				c-0.36,1.11-0.23,2.26,0.26,3.21c0.49,0.96,1.35,1.73,2.46,2.09s2.25,0.23,3.21-0.26c0.96-0.49,1.73-1.35,2.08-2.46
				c0.36-1.11,0.23-2.25-0.26-3.21C43.77,148,42.92,147.23,41.81,146.88z"/>
			<path class="st3" d="M43.82,161.78c-0.98-0.32-2-0.2-2.86,0.23c-0.85,0.44-1.54,1.2-1.85,2.19s-0.2,2.01,0.23,2.86
				c0.44,0.85,1.2,1.54,2.19,1.85c0.99,0.32,2,0.21,2.86-0.23c0.85-0.44,1.54-1.2,1.85-2.19c0.32-0.98,0.2-2.01-0.23-2.86
				C45.57,162.78,44.81,162.1,43.82,161.78z"/>
			<path class="st3" d="M47.71,176.28c-0.86-0.28-1.75-0.18-2.5,0.21s-1.34,1.05-1.62,1.91c-0.28,0.86-0.18,1.75,0.2,2.5
				c0.38,0.75,1.05,1.34,1.91,1.62c0.86,0.28,1.75,0.18,2.5-0.2c0.75-0.38,1.35-1.05,1.62-1.91c0.28-0.86,0.18-1.75-0.21-2.5
				S48.57,176.55,47.71,176.28z"/>
			<path class="st3" d="M53.39,190.13c-0.74-0.24-1.5-0.15-2.14,0.18c-0.64,0.33-1.15,0.9-1.39,1.64c-0.24,0.74-0.15,1.5,0.18,2.14
				c0.33,0.64,0.9,1.15,1.64,1.39c0.74,0.24,1.5,0.15,2.14-0.18c0.64-0.33,1.15-0.9,1.39-1.64c0.24-0.74,0.15-1.5-0.18-2.14
				C54.7,190.88,54.13,190.37,53.39,190.13z"/>
		</g>
		<g>
			<path class="st3" d="M64.13,100.69c-0.49-0.16-0.99-0.1-1.41,0.12c-0.42,0.22-0.76,0.59-0.91,1.08c-0.16,0.49-0.1,0.99,0.12,1.41
				c0.22,0.42,0.59,0.76,1.08,0.91c0.49,0.16,0.99,0.1,1.41-0.12c0.42-0.22,0.76-0.59,0.91-1.08c0.16-0.49,0.1-0.99-0.12-1.41
				C64.99,101.19,64.62,100.85,64.13,100.69z"/>
			<path class="st3" d="M59.46,113.73c-0.84-0.27-1.7-0.17-2.43,0.2c-0.72,0.37-1.3,1.02-1.57,1.85c-0.27,0.84-0.17,1.7,0.2,2.42
				c0.37,0.72,1.02,1.3,1.86,1.57c0.84,0.27,1.7,0.17,2.42-0.2c0.72-0.37,1.3-1.02,1.57-1.86c0.27-0.84,0.17-1.7-0.2-2.42
				C60.95,114.58,60.3,114,59.46,113.73z"/>
			<path class="st3" d="M56.79,128.39c-0.91-0.29-1.85-0.19-2.64,0.22c-0.79,0.4-1.42,1.11-1.71,2.02s-0.19,1.85,0.22,2.64
				c0.41,0.79,1.11,1.42,2.02,1.71c0.91,0.29,1.85,0.19,2.64-0.22c0.79-0.41,1.42-1.11,1.71-2.02s0.19-1.85-0.22-2.64
				C58.41,129.32,57.7,128.68,56.79,128.39z"/>
			<path class="st3" d="M56.79,142.4c-1.23-0.4-2.51-0.25-3.57,0.29c-1.07,0.55-1.92,1.5-2.32,2.73c-0.4,1.23-0.26,2.51,0.29,3.57
				c0.55,1.07,1.5,1.92,2.74,2.32c1.23,0.39,2.51,0.25,3.57-0.29c1.07-0.55,1.92-1.5,2.32-2.73c0.4-1.23,0.25-2.51-0.29-3.57
				C58.97,143.65,58.02,142.79,56.79,142.4z"/>
			<path class="st3" d="M58.2,159.23c-0.74-0.24-1.5-0.15-2.14,0.18c-0.64,0.33-1.15,0.9-1.39,1.64c-0.24,0.74-0.15,1.5,0.18,2.14
				c0.33,0.64,0.9,1.15,1.64,1.39c0.74,0.24,1.5,0.15,2.14-0.18c0.64-0.33,1.15-0.9,1.39-1.64c0.24-0.74,0.15-1.5-0.18-2.14
				C59.51,159.98,58.94,159.47,58.2,159.23z"/>
			<path class="st3" d="M62.32,174.32c-0.59-0.19-1.2-0.12-1.71,0.14c-0.51,0.26-0.92,0.72-1.11,1.31c-0.19,0.59-0.12,1.2,0.14,1.71
				c0.26,0.51,0.72,0.92,1.31,1.11c0.59,0.19,1.2,0.12,1.71-0.14c0.51-0.26,0.92-0.72,1.11-1.31c0.19-0.59,0.12-1.2-0.14-1.71
				C63.37,174.92,62.91,174.51,62.32,174.32z"/>
			<path class="st3" d="M68.66,188.57c-0.44-0.14-0.9-0.09-1.29,0.1c-0.38,0.2-0.69,0.54-0.83,0.98s-0.09,0.9,0.1,1.29
				c0.2,0.38,0.54,0.69,0.98,0.83c0.44,0.14,0.9,0.09,1.28-0.11c0.38-0.2,0.69-0.54,0.84-0.98c0.14-0.44,0.09-0.9-0.11-1.29
				C69.44,189.02,69.1,188.71,68.66,188.57z"/>
		</g>
		<g>
			<path class="st3" d="M80.07,102.43c-0.38-0.12-0.77-0.08-1.09,0.09c-0.33,0.17-0.59,0.46-0.71,0.84
				c-0.12,0.38-0.08,0.77,0.09,1.09c0.17,0.33,0.46,0.59,0.84,0.71c0.38,0.12,0.77,0.08,1.09-0.09c0.33-0.17,0.59-0.46,0.71-0.84
				c0.12-0.38,0.08-0.77-0.09-1.09C80.74,102.81,80.45,102.55,80.07,102.43z"/>
			<path class="st3" d="M74.85,114.66c-0.63-0.2-1.27-0.13-1.82,0.15c-0.54,0.28-0.98,0.76-1.18,1.39c-0.2,0.63-0.13,1.28,0.15,1.82
				c0.28,0.54,0.76,0.98,1.39,1.18c0.63,0.2,1.28,0.13,1.82-0.15c0.54-0.28,0.98-0.76,1.18-1.39c0.2-0.63,0.13-1.27-0.15-1.82
				C75.96,115.3,75.48,114.86,74.85,114.66z"/>
			<path class="st3" d="M71.93,127.86c-0.82-0.26-1.67-0.17-2.38,0.2c-0.71,0.37-1.28,1-1.55,1.82s-0.17,1.67,0.2,2.38
				c0.36,0.71,1,1.28,1.82,1.54c0.82,0.26,1.67,0.17,2.38-0.19c0.71-0.37,1.28-1,1.55-1.82c0.26-0.82,0.17-1.67-0.2-2.38
				C73.39,128.69,72.75,128.12,71.93,127.86z"/>
			<path class="st3" d="M71.49,141.26c-1.05-0.34-2.13-0.22-3.04,0.25c-0.91,0.47-1.64,1.28-1.97,2.33
				c-0.34,1.05-0.22,2.13,0.25,3.05c0.47,0.91,1.28,1.64,2.33,1.97c1.05,0.34,2.14,0.22,3.04-0.25c0.91-0.47,1.64-1.28,1.98-2.33
				s0.22-2.14-0.25-3.04C73.36,142.33,72.54,141.6,71.49,141.26z"/>
			<path class="st3" d="M72.98,156.28c-0.81-0.26-1.64-0.17-2.34,0.19c-0.7,0.36-1.26,0.98-1.52,1.79
				c-0.26,0.81-0.17,1.64,0.19,2.34c0.36,0.7,0.98,1.26,1.79,1.52c0.81,0.26,1.64,0.17,2.34-0.19c0.7-0.36,1.26-0.99,1.52-1.79
				c0.26-0.81,0.17-1.64-0.19-2.34C74.41,157.1,73.78,156.54,72.98,156.28z"/>
			<path class="st3" d="M76.61,171.63c-0.33-0.11-0.67-0.07-0.95,0.08c-0.28,0.15-0.51,0.4-0.62,0.73
				c-0.11,0.33-0.07,0.67,0.08,0.95c0.15,0.28,0.4,0.51,0.73,0.62c0.33,0.11,0.67,0.07,0.95-0.08c0.29-0.15,0.51-0.4,0.62-0.73
				c0.11-0.33,0.07-0.67-0.08-0.95C77.19,171.97,76.93,171.74,76.61,171.63z"/>
			<path class="st3" d="M82.92,184.9c-0.17-0.05-0.33-0.03-0.48,0.04c-0.14,0.07-0.26,0.2-0.31,0.37c-0.05,0.16-0.03,0.33,0.04,0.48
				c0.07,0.14,0.2,0.26,0.36,0.31c0.17,0.05,0.33,0.03,0.48-0.04c0.14-0.07,0.26-0.2,0.31-0.36c0.05-0.17,0.03-0.34-0.04-0.48
				C83.21,185.07,83.08,184.96,82.92,184.9z"/>
		</g>
	</g>
	<g>
		<path class="st1" d="M202.84,105.1c0,0-0.54,7.99,0.6,10.01c1.14,2.02,3.22,15.4,3.22,16.74c0,1.35,0.02,1.83-0.64,2.4
			c0,0-4.88,5.33-4.94,7.14c-0.07,1.82-0.28,7.36,0.53,9.54c0.81,2.18,1.64,7.71,1.64,7.71s1.91,4.11-1.64,4.38
			c0,0-5.42,1.59-4.25,2.95c0,0,4.38,5.05,4.26,8.92c-0.12,3.87,0.29,9.39-1.27,11.95c0,0-1.09,2.98,0.08,5.11
			c0,0,2.05,9.21-1.04,15.4c0,0-0.84,3.15-6.43,3.77l-14.9,4.37l-49.12-19.07l-15.75-29.56l-8.83-42.79l-4.82-17.79l1.25-4.94
			c0,0,1.18-5.22,2.6-6.6c1.43-1.39,2.14-3.66,2.14-3.66l2.29-1.21l2.84-1.05l0.04-1.4l1.17-2.37l2.41-2.3l1.4-0.93l2.6-0.31
			c0,0,3.03,0.16,3.89-0.82c0.86-0.97,4.65-4.9,9.17-4.75c4.52,0.16,4.56-1.36,4.56-1.36l2.57-0.97h2.9l1.57,0.58
			c0,0,2.64,1.94,5.08,0.39s3.73-3.4,7.78-0.97s6.17,0.09,6.17,0.09l2.29-0.71l2.12-0.56c0,0,11.31,0.17,14.37,2.46
			c0,0,0.16,1.97,3.22,1.82c3.06-0.16,5.86,0.36,5.86,0.36s3.99,1.56,3.94,5.69c0,0,0.78,2.52,1.97,1.89
			c1.19-0.62,3.77,1.19,3.77,1.19s2.45,3.22,1.68,4.98c-0.78,1.76,0.78,3.68,0.78,3.68l0.79,2.9l-0.32,1.5L202.84,105.1z"/>
		<g>
			<path class="st1" d="M142.59,180.19c0,0-1.22,7.01,3.16,10.66c4.38,3.65,4.86,3.65,7.54,3.53c2.67-0.12,4.37-1.99,4.37-1.99
				l2.23-0.26c0,0-3.43,1.09-3.68,2.98c-0.25,1.88-3.68,1.76-3.68,1.76s-3.54,0.06-2.85,3.59c0.69,3.53,2.45,7.11,2.45,7.11
				s6.93,9.06,12.7,9.66l-7.13-1.74l-10.68-10.3c0,0-6.75-7.71-16.59-7.52c-9.85,0.19-14.33,7.16-14.33,7.16s-2.26,3.62-10.1,1.61
				c0,0,8.67-7.63,3.17-28.1c0,0-1.54-8.68-2.35-10.18s-2.92-2.31-2.67-6.08c0.24-3.77-1.46-3.45-1.46-3.45s-1.94-1.05-1.13-2.92
				s0-4.46,0-4.46s-2.85-4.34,0.15-9.61c0,0,1.38-0.83-0.16-4.43c0,0-1.94-0.76-1.62-4.16c0,0-2.43-5.51-0.97-8.99
				c0,0-0.42-1.79-1.47-3.33c0,0-1.6-1.25-1.44-11.06c0,0,1.59-8.34,4.86-8.86c2.72-0.43-0.47,1.41,1.72-2.24
				c2.19-3.65-0.24,4.25,1.09,5.47c1.34,1.22,4.74-6.42,4.74-6.42s2.8,0.71,0.61,5.82c0,0-0.61,1.46,0.36,2.51
				c0.97,1.05,2.27,3.08,0.81,4.38c0,0,2.76,0.65,2.92-3.65c0.16-4.29,2.11-8.91,0.32-12.16c0,0-0.32-4.54,2.43-1.38
				c2.76,3.16,1.46,14.42,1.46,14.42s-0.16,3.65,5.35,2.43c0,0,2.43,0.24,4.94-1.46c2.51-1.7,1.86-0.16,1.86-0.16
				s-1.54,2.43-2.35,2.51c0,0-0.81,1.78,1.7,0.65c2.51-1.13,2.03-1.78,2.03-1.78s4.29-0.89,0.81,2.27c-3.48,3.16-6.81,3.4-6.81,3.4
				s-4.13,1.3-6.81-0.73c-2.67-2.03-4.13-2.59-4.46-1.3s-4.78,3.48-3.48,6.48s0.65,6,0.65,6s0.81,3,2.27,1.13
				c1.46-1.86-0.57-5.59-0.57-5.59s-0.24-3.08,0.89-2.84c1.13,0.24,0.73,9.72,2.59,9.48c1.86-0.24,1.7-3,1.7-3l1.05-5.27
				c0,0,1.13,3,0.81,5.43s1.54-1.3,1.54-1.3s0.81,1.46,0.32,3.32s2.03,1.94,2.03,1.94s2.03,0.73,2.43,2.51
				c0.41,1.78,4.21,3.73,6.89,2.84c0,0,1.05-1.05-0.89-2.84c-1.94-1.78,0.73-3.32,0.73-3.32s9.08,0.24,12.07-0.73
				c0,0-3.97,2.51-7.29,2.27c0,0-3.08,1.54,0,1.78c0,0,4.86,1.3,8.67-0.41c0,0-1.46,3.4-8.59,3.73c0,0-3.81,1.59-0.97,3.99
				c0,0,3.4,1.48,6.48,0c0,0-0.49,2.49-6.48,2.97c0,0-2.27,0.73,0,1.54c2.27,0.81,7.54,0,7.54,0s-1.7,2.41-6.4,3.07
				c0,0-3.73,0.47-2.03,2.1c0,0,3.89,1.44,6.81,0c0,0-3.57,2.85-6.89,2.04c0,0-2.76,0.49-1.38,1.54c0,0,0.89,1.46,4.94,0.73
				c0,0-3.89,1.74-4.05,2.29c0,0-5.19-0.34-6.24,3.3c0,0-1.3,0.41-0.97-1.46c0,0-0.24-5.35-4.62-6.4c0,0-1.62-3-3.48-0.49
				c0,0-2.59,1.22-2.51-0.89c0,0-5.51-3.24-6.56-7.21c0,0-1.86-1.62-1.46,1.38c0,0,0.57,5.79,7.05,11.77c0,0,2.76,1.03,2.59,2.65
				c0,0,1.98,6.39,7.05,2.27c0,0,1.38-1.22,2.03,0c0,0,2.11,1.54,1.13,4.05c0,0,0.65,3.41,1.86,1.22l0.65-3.89
				c0,0,1.13-1.46,1.22,0.81c0,0-0.65,5.84,0.57,5.72c0,0,1.46,0.52,1.3,1.74c0,0,0.97,4.22,4.7,3.89c0,0,3.16,1.46,2.11,2.59
				c0,0-1.01,1.05,0.08,2.43L142.59,180.19z"/>
			<path class="st0" d="M163.31,135.54c0,0,10.7-3.4,16.41-2.92c5.71,0.49,13.25,1.34,14.46,0.61c0,0-4.98,8.99-11.67,10.33
				c0,0,5.23-7.54-2.07-7.29c-7.29,0.24-9.12,2.8-9.12,2.8S169.14,141.62,163.31,135.54z"/>
			<path class="st0" d="M184.09,158.64c0,0-1.09,3.53,2.67,6.08s14.83-1.7,14.83-1.7s0.24-3.04-5.47-3.04
				C190.41,159.98,186.28,160.34,184.09,158.64z"/>
			<path class="st0" d="M191.67,141.46l7.05,14.91c0,0-4.7,3.16-7.05,0.65c-2.35-2.51-6-1.62-6-1.62v-11.83c0,0,3.73-1.76,5.27-4.08
				L191.67,141.46z"/>
			<path class="st0" d="M194.18,163.38c0,0,7.42,4.13,7.42,13.13s-4.99,8.99-4.99,8.99s1.92-9.97-3.84-10.21
				c-5.76-0.24-9.77-1.34-14.03,4.01c0,0-2.19,4.25-4.5,3.4c0,0-0.73-3.89,3.4-6.32c0,0,0.18-2.49,1.09-2.43s1.22,1.03,1.22,1.03
				l1.22-2.67l1.03,2.13l1.74-1.88l0.57,0.91l0.06-3.77c0,0,1.46,2.37,1.52,2.55c0.06,0.18,1.03-2.19,1.03-2.19s1.28,1.94,1.28,2.13
				c0,0.18,2.01-2.67,1.34-3.34c-0.67-0.67,1.52,2.67,1.52,2.67s0.97-2.13-0.18-3.65c-1.15-1.52-3.18-3.95-3.18-3.95l4.3-1.84
				L194.18,163.38z"/>
			<path class="st0" d="M152.04,144.21c0,0,8.59-0.52,11.26,4.52c2.67,5.04,5.43,7.31,5.43,7.31s5.51-0.97,4.7,2.59
				c-0.81,3.57-7.78,4.71-4.05,6.89c0,0,1.3,5.92-5.02,0c0,0-5.83-8.68-8.75-7.54S152.04,144.21,152.04,144.21z"/>
			<path class="st0" d="M198.72,206.77c0,0-10.59,2.43-14.77-6.32c0,0-0.46,4.05,1.73,5.51c0,0-3.16-2.27-3.32-3.89
				c0,0,0,3.97,1.13,4.62c0,0,0.73,1.84-2.03,0.39c-2.76-1.44-3.57-3.79-3.57-3.79s-3.24,1.24,0.32,4.35c0,0-0.49,1.84-1.94,0
				c-1.46-1.84-3.24-2.08-2.75-5.16c0,0-2.84,0.24-0.49,5.02c2.35,4.78-3.89-1.38-3.89-1.38l-5.27-6.32c0,0-4.38,7.7,0,11.1
				c4.38,3.4,6.73,6.64,0.89,5.83c-5.83-0.81-5.43,0.13-5.43,0.13s-4.47,2.22-0.01,5.95c4.46,3.73,16.7,3.24,16.7,3.24
				s12.64-0.32,9.4-5.19c0,0-3.29-1.78-1.48-2.76S194.43,211.47,198.72,206.77z"/>
			<path class="st0" d="M181.04,144.14c0,0,0.12,3.69-5.03,2.09c-5.15-1.6-2.6-2.77-2.6-2.77S174.5,144.44,181.04,144.14z"/>
			<path class="st0" d="M171.98,139.49c0,0,7.12-2.51,9.64-2.08c2.53,0.43,1.02,2.67-0.58,2.92
				C179.43,140.57,176.19,141.48,171.98,139.49z"/>
			<path class="st0" d="M158.32,179.55c0,0-4.25,0.85-3.28,5.96s5.71,7.29,5.71,7.29l1.5,0.36c0,0,0-1.78-1.3-2.51
				c-1.3-0.73-4.21-1.94-4.78-6.4C156.18,184.25,155.37,182.3,158.32,179.55z"/>
			<path class="st0" d="M150.33,180.59c-1.16,1.89-0.78,5.45,0.09,7.38c1.54,3.4,4.94,5.59,4.94,5.59s1.3,0.32,1.05,0.81
				c0.15-0.14,0.31-0.28,0.45-0.44c0.36-0.38,0.42-0.28,0.17-0.69c-0.52-0.85-1.73-1.25-2.48-1.88c-0.9-0.74-1.68-1.64-2.28-2.64
				c-0.64-1.06-1.07-2.23-1.45-3.41C150.31,183.67,150.25,182.28,150.33,180.59z"/>
			<path class="st0" d="M150.47,167.76c-2.16-0.51-5.42,0.96-6.98,2.4c-2.75,2.53-3.76,6.45-3.76,6.45s0.1,1.33-0.44,1.25
				c0.18,0.1,0.37,0.21,0.56,0.3c0.47,0.22,0.4,0.31,0.71-0.05c0.65-0.76,0.65-2.03,1-2.95c0.42-1.09,1.03-2.11,1.8-2.99
				c0.81-0.94,1.78-1.72,2.78-2.45C147.54,168.7,148.84,168.2,150.47,167.76z"/>
			<path class="st0" d="M153.59,171.2c-2.09-0.75-5.49,0.36-7.2,1.61c-3.01,2.21-4.45,5.99-4.45,5.99s-0.05,1.34-0.58,1.2
				c0.17,0.12,0.34,0.25,0.52,0.36c0.45,0.27,0.36,0.36,0.71,0.03c0.73-0.68,0.87-1.95,1.32-2.82c0.54-1.03,1.26-1.98,2.12-2.77
				c0.91-0.84,1.96-1.51,3.04-2.12C150.58,171.81,151.93,171.46,153.59,171.2z"/>
			<path class="st0" d="M155.36,176.17c-1.92-1.12-5.47-0.66-7.37,0.26c-3.37,1.62-5.48,5.07-5.48,5.07s-0.29,1.3-0.79,1.07
				c0.15,0.15,0.29,0.31,0.45,0.44c0.39,0.35,0.29,0.42,0.7,0.16c0.84-0.53,1.21-1.76,1.82-2.52c0.72-0.92,1.6-1.71,2.59-2.34
				c1.05-0.66,2.21-1.12,3.37-1.53C152.29,176.22,153.68,176.12,155.36,176.17z"/>
			<path class="st0" d="M146,166.34c-1.86-0.38-4.6,0.97-5.89,2.24c-2.28,2.24-3.03,5.61-3.03,5.61s0.12,1.14-0.34,1.08
				c0.16,0.08,0.32,0.17,0.48,0.24c0.41,0.17,0.35,0.26,0.61-0.06c0.53-0.66,0.5-1.76,0.78-2.54c0.33-0.94,0.82-1.83,1.45-2.6
				c0.67-0.82,1.47-1.52,2.31-2.17C143.52,167.23,144.62,166.76,146,166.34z"/>
			<path class="st0" d="M147.23,181.51c-1.16,1.89-0.78,5.45,0.09,7.38c1.54,3.4,4.94,5.59,4.94,5.59s1.3,0.32,1.05,0.81
				c0.15-0.14,0.31-0.28,0.45-0.44c0.36-0.38,0.42-0.28,0.17-0.69c-0.52-0.85-1.73-1.25-2.48-1.88c-0.9-0.74-1.68-1.64-2.28-2.64
				c-0.64-1.06-1.07-2.23-1.45-3.41C147.21,184.58,147.15,183.19,147.23,181.51z"/>
			<path class="st4" d="M154.98,201.17c-1.34,1.77-1.32,5.35-0.64,7.35c1.2,3.54,4.37,6.05,4.37,6.05s1.26,0.45,0.97,0.91
				c0.16-0.13,0.34-0.25,0.5-0.39c0.39-0.34,0.45-0.24,0.24-0.67c-0.43-0.9-1.6-1.42-2.29-2.11c-0.82-0.83-1.51-1.8-2-2.86
				c-0.53-1.12-0.85-2.33-1.11-3.54C154.65,204.23,154.72,202.84,154.98,201.17z"/>
			<path class="st4" d="M158.3,202.75c-1.34,1.77-1.32,5.35-0.64,7.35c1.2,3.54,4.37,6.05,4.37,6.05s1.26,0.45,0.97,0.91
				c0.16-0.13,0.34-0.25,0.5-0.39c0.39-0.34,0.45-0.24,0.24-0.67c-0.43-0.9-1.6-1.42-2.29-2.11c-0.82-0.83-1.51-1.8-2-2.86
				c-0.53-1.12-0.85-2.33-1.11-3.54C157.97,205.81,158.05,204.42,158.3,202.75z"/>
			<path class="st0" d="M186.33,199.8c0.17,2.21,2.58,4.86,4.42,5.91c3.25,1.84,7.29,1.6,7.29,1.6s1.24-0.5,1.33,0.03
				c0.04-0.21,0.08-0.41,0.11-0.62c0.06-0.52,0.18-0.48-0.27-0.66c-0.92-0.39-2.14,0.01-3.11-0.05c-1.17-0.07-2.32-0.34-3.4-0.79
				c-1.14-0.48-2.18-1.17-3.18-1.9C188.13,202.3,187.26,201.22,186.33,199.8z"/>
			<path class="st0" d="M161.58,183c-1.1,1.11-0.91,3.36-0.22,4.61c1.22,2.21,4.15,3.77,4.15,3.77s1.13,0.28,0.9,0.57
				c0.14-0.08,0.29-0.16,0.42-0.25c0.33-0.22,0.38-0.15,0.18-0.42c-0.42-0.56-1.48-0.88-2.12-1.31c-0.77-0.52-1.42-1.12-1.91-1.78
				c-0.52-0.7-0.86-1.45-1.15-2.21C161.43,184.92,161.43,184.05,161.58,183z"/>
			<path class="st0" d="M137.39,158.76c0.64,1.43,2.81,2.06,4.23,1.86c2.51-0.35,5.01-2.51,5.01-2.51s0.66-0.96,0.85-0.64
				c-0.03-0.16-0.05-0.33-0.08-0.48c-0.08-0.39,0-0.41-0.33-0.32c-0.68,0.19-1.59,0.64-2.22,1.08c-0.76,0.53-1.55,0.92-2.35,1.14
				c-0.84,0.23-1.67,0.28-2.48,0.28C138.89,159.16,138.32,159.27,137.39,158.76z"/>
			<path class="st0" d="M188.51,90.39c0.36,1.53-0.98,3.34-2.23,4.04c-2.2,1.24-5.51,1.04-5.51,1.04s-1.11-0.36-1.06,0.01
				c-0.08-0.14-0.16-0.29-0.23-0.43c-0.17-0.36-0.25-0.33,0.07-0.46c0.65-0.26,1.65-0.46,2.42-0.49c0.92-0.04,1.79-0.21,2.56-0.52
				c0.81-0.32,1.49-0.79,2.14-1.28C187.55,91.62,188.08,91.36,188.51,90.39z"/>
			<path class="st0" d="M182.04,87.05c0.36,1.53-0.98,3.34-2.23,4.04c-2.2,1.24-5.51,1.04-5.51,1.04s-1.11-0.36-1.06,0.01
				c-0.08-0.14-0.16-0.29-0.23-0.43c-0.17-0.36-0.25-0.33,0.07-0.46c0.65-0.26,1.65-0.46,2.42-0.49c0.92-0.04,1.79-0.21,2.56-0.52
				c0.81-0.32,1.49-0.79,2.14-1.28C181.08,88.28,181.61,88.02,182.04,87.05z"/>
			<path class="st0" d="M166.59,100.91c-1.87,0.93-4.14-0.5-5.04-2.1c-1.6-2.82-1.47-7.62-1.47-7.62s0.4-1.69-0.05-1.52
				c0.17-0.15,0.35-0.31,0.52-0.44c0.43-0.34,0.4-0.45,0.56-0.03c0.34,0.87,0.62,2.24,0.69,3.34c0.08,1.31,0.32,2.51,0.72,3.53
				c0.43,1.07,1.02,1.93,1.65,2.71C165.05,99.88,165.38,100.57,166.59,100.91z"/>
			<path class="st0" d="M144.95,180.19c0,0-1.22,7.01,3.16,10.66c4.38,3.65,4.86,3.65,7.54,3.53c2.67-0.12,4.37-1.99,4.37-1.99
				l2.23-0.26c0,0-3.43,1.09-3.68,2.98c-0.25,1.88-3.68,1.76-3.68,1.76s-3.54,0.06-2.85,3.59c0.69,3.53,2.45,7.11,2.45,7.11
				s6.93,9.06,12.7,9.66l-9.12,1.4l-12.28-9.54c0,0-4.56-9.87-14.4-9.67s-12.95,5.42-12.95,5.42s-7.78,4.5-15.62,2.49
				c0,0,9.54-9.3,7.35-33c0,0-0.2-4.65-1.01-6.16s-2.92-2.31-2.67-6.08c0.24-3.77-1.46-3.45-1.46-3.45s-1.94-1.05-1.13-2.92
				s0-4.46,0-4.46s-4.62-4.21-1.62-9.48c0,0,1.38-0.83-0.16-4.43c0,0-1.94-0.76-1.62-4.16c0,0-2.43-5.51-0.97-8.99
				c0,0,0.16-1.38-0.89-2.92c0,0-2.27,0.08-2.11-9.72c0,0,1.05-7.46,3-9.4s3.24,0.08,5.43-3.57c2.19-3.65-0.24,4.25,1.09,5.47
				c1.34,1.22,4.74-6.42,4.74-6.42s2.8,0.71,0.61,5.82c0,0-0.61,1.46,0.36,2.51c0.97,1.05,2.27,3.08,0.81,4.38
				c0,0,2.76,0.65,2.92-3.65c0.16-4.29,2.11-8.91,0.32-12.16c0,0-0.32-4.54,2.43-1.38c2.76,3.16,1.46,14.42,1.46,14.42
				s-0.16,3.65,5.35,2.43c0,0,2.43,0.24,4.94-1.46c2.51-1.7,1.86-0.16,1.86-0.16s-1.54,2.43-2.35,2.51c0,0-0.81,1.78,1.7,0.65
				s2.03-1.78,2.03-1.78s4.29-0.89,0.81,2.27c-3.48,3.16-6.81,3.4-6.81,3.4s-4.13,1.3-6.81-0.73c-2.67-2.03-4.13-2.59-4.46-1.3
				s-4.78,3.48-3.48,6.48s0.65,6,0.65,6s0.81,3,2.27,1.13c1.46-1.86-0.57-5.59-0.57-5.59s-0.24-3.08,0.89-2.84
				c1.13,0.24,0.73,9.72,2.59,9.48c1.86-0.24,1.7-3,1.7-3l1.05-5.27c0,0,1.13,3,0.81,5.43s1.54-1.3,1.54-1.3s0.81,1.46,0.32,3.32
				s2.03,1.94,2.03,1.94s2.03,0.73,2.43,2.51c0.41,1.78,4.21,3.73,6.89,2.84c0,0,1.05-1.05-0.89-2.84
				c-1.94-1.78,0.73-3.32,0.73-3.32s9.08,0.24,12.07-0.73c0,0-3.97,2.51-7.29,2.27c0,0-3.08,1.54,0,1.78c0,0,4.86,1.3,8.67-0.41
				c0,0-1.46,3.4-8.59,3.73c0,0-3.81,1.59-0.97,3.99c0,0,3.4,1.48,6.48,0c0,0-0.49,2.49-6.48,2.97c0,0-2.27,0.73,0,1.54
				c2.27,0.81,7.54,0,7.54,0s-1.7,2.41-6.4,3.07c0,0-3.73,0.47-2.03,2.1c0,0,3.89,1.44,6.81,0c0,0-3.57,2.85-6.89,2.04
				c0,0-2.76,0.49-1.38,1.54c0,0,0.89,1.46,4.94,0.73c0,0-3.89,1.74-4.05,2.29c0,0-5.19-0.34-6.24,3.3c0,0-1.3,0.41-0.97-1.46
				c0,0-0.24-5.35-4.62-6.4c0,0-1.62-3-3.48-0.49c0,0-2.59,1.22-2.51-0.89c0,0-5.51-3.24-6.56-7.21c0,0-1.86-1.62-1.46,1.38
				c0,0,0.57,5.79,7.05,11.77c0,0,2.76,1.03,2.59,2.65c0,0,1.98,6.39,7.05,2.27c0,0,1.38-1.22,2.03,0c0,0,2.11,1.54,1.13,4.05
				c0,0,0.65,3.41,1.86,1.22l0.65-3.89c0,0,1.13-1.46,1.22,0.81c0,0-0.65,5.84,0.57,5.72c0,0,1.46,0.52,1.3,1.74
				c0,0,0.97,4.22,4.7,3.89c0,0,3.16,1.46,2.11,2.59c0,0-1.01,1.05,0.08,2.43L144.95,180.19z"/>
			<path class="st0" d="M192.2,174.6c0,0,4.34,2.27,1.99,3.4c0,0,0.24,2.11-3.97,1.54l-6.27-0.89c0,0-1.32,0.57,0,0.89
				c1.32,0.32,5.54,1.54,7.16,1.38c1.62-0.16,4.15-0.57,3.78,1.46c0,0-0.21,2.43-0.7,2.59c0,0,0.66,2.68,2.82,0.48l0.34-5.26
				l-2.37-5.02l-1.7-0.91l-1.34,0.3"/>
			<path class="st0" d="M183.95,186.32c0,0,4.09-3.29,8.83-0.82c0,0,0.84,1.34-1.26,1.18c-2.11-0.16-1.54-2.08-6.56,0.01
				C184.94,186.69,182.54,188.16,183.95,186.32z"/>
			<path class="st0" d="M132.51,117.72c0,0,1.46,1.94,0,2.51c0,0-3.08,2.84,0.65,1.94c0,0,5.51,0.89,3.65,2.59c0,0-0.65,1.7,2.84,0
				c3.48-1.7,3.48-4.02,5.51-3.15c2.03,0.88,6.56,1.74,6.24,3.9c0,0-1.7,4.11,1.94,1.84c0,0,6.89-3.57,9.44-11.02
				c0,0-4.66,5.43-6.77,4.86c0,0-3.57-0.32-0.57-1.7c0,0-4.21,1.7-7.54,0.16c0,0-1.96-0.57-0.86-2.03c0,0-0.44-0.81-1.61,0.16
				s-2.8,1.42-2.8,1.42s-1.78-0.12-0.41-1.34c1.38-1.22,0.73-2.19-0.49-2.59c-1.22-0.41-5.92,0-5.92,0s3.89,2.76,0.89,2.76
				S132.51,117.72,132.51,117.72z"/>
			<path class="st0" d="M152.04,92.04c0,0-2.96,8.49,3.48,10.19c0,0,1.58,1.09,0,2.8c-1.58,1.7-0.36,3.77-0.36,3.77
				s-5.71-4.74-10.09-5.11l-4.01,0.73c0,0-2.55-0.36-1.94-2.19c0.61-1.82-1.94-6.08-4.25-6.08c0,0,0.85-3.01-1.46-4.12
				c0,0-3.53-1.6-5.23-1.23c-1.7,0.36-2.8-1.46,0-2.55c0,0,1.09-0.85-0.73-2.55c-1.82-1.7,2.31-4.98,2.67-3.28
				c0.36,1.7,0.12,6.93,3.65,6.08c0,0-0.85-9.48,3.53-11.43c0,0-3.28,9.85,0.12,10.33c0,0,1.54-2.92,3.93-3.16
				c0,0-8.37,12.4,5.7,16.77c0,0-1-2.92,1.43-8.08c0,0-0.47,5.37,1.46,5.77C149.94,98.71,149.29,94,152.04,92.04z"/>
			<path class="st0" d="M129.23,93.73c0,0,4.01,5.13-4.16,12.56C125.07,106.28,135.7,101.15,129.23,93.73z"/>
			<path class="st0" d="M132.36,95.07c0,0,4.01,5.13-4.16,12.56C128.19,107.62,138.83,102.49,132.36,95.07z"/>
			<path class="st0" d="M143.12,104.7c0,0,3.22,4.25-3.34,10.4C139.77,115.1,148.32,110.85,143.12,104.7z"/>
			<path class="st0" d="M141.27,105.1c0,0,2.01,4.94-5.92,9.18C135.36,114.28,144.71,112.38,141.27,105.1z"/>
			<path class="st0" d="M137.93,102.42c0,0,2.01,4.94-5.92,9.18C132.02,111.6,141.37,109.7,137.93,102.42z"/>
			<path class="st0" d="M159.38,112.34c0,0-0.75,5.28-9.74,4.95C149.65,117.29,158.68,120.37,159.38,112.34z"/>
			<path class="st0" d="M157.36,108.13c0,0,0.2,5.33-8.71,6.59C148.65,114.72,158.08,116.15,157.36,108.13z"/>
			<path class="st0" d="M166.06,93.73c0,0,0.81-6.46,11.83-5.91C177.9,87.82,166.76,83.9,166.06,93.73z"/>
			<path class="st0" d="M194.06,93.07c0,0-0.85,4.67-8.86,3.81C185.2,96.89,193.16,100.21,194.06,93.07z"/>
			<path class="st0" d="M199.02,96.62c0,0-0.85,4.67-8.86,3.81C190.16,100.43,198.12,103.75,199.02,96.62z"/>
			<path class="st0" d="M202.46,96.36c0,0,1.27,4.58-6.33,7.28C196.13,103.65,204.74,103.18,202.46,96.36z"/>
			<path class="st0" d="M164.24,90.39c0,0,0.81-6.46,11.83-5.91C176.08,84.48,164.94,80.56,164.24,90.39z"/>
			<path class="st0" d="M158.98,78.7c0,0,0.81-6.46,11.83-5.91C170.81,72.8,159.68,68.88,158.98,78.7z"/>
			<path class="st0" d="M115.32,89.44c0,0,0.81-6.46,11.83-5.91C127.15,83.53,116.02,79.61,115.32,89.44z"/>
			<path class="st0" d="M162.78,86.1c0,0,0.81-6.46,11.83-5.91C174.62,80.19,163.48,76.27,162.78,86.1z"/>
			<path class="st0" d="M133.3,77.72c0,0,2.69-5.93,13.05-2.14C146.35,75.59,136.87,68.55,133.3,77.72z"/>
			<path class="st0" d="M110.71,90.39c0,0-1.17-6.4,9.51-9.19C120.22,81.2,108.42,80.81,110.71,90.39z"/>
			<path class="st0" d="M103.66,97.54c0,0-1.17-6.4,9.51-9.19C113.17,88.34,101.37,87.96,103.66,97.54z"/>
			<path class="st0" d="M157.35,195.29c0,0-0.09,5.81,6.5,8.93c6.59,3.12,7.3,13.61,7.3,13.61l-7.19,1.66l-15.42-13.33v-10.33h4.01
				L157.35,195.29z"/>
			<path class="st0" d="M160.04,164c0,0,5.45,3.56,0.13,13.23C160.17,177.22,168.57,168.93,160.04,164z"/>
			<path class="st0" d="M154.34,161.33c0,0,5.36,0.68,3.76,9.9C158.1,171.22,162.54,161.92,154.34,161.33z"/>
			<path class="st0" d="M166.69,183.62c0,0-4.98-2.1-0.97-10.54C165.72,173.07,158.95,180.84,166.69,183.62z"/>
			<path class="st0" d="M165.63,186.43c0,0,4.86-2.37,8.57,6.21C174.2,192.64,172.81,182.43,165.63,186.43z"/>
			<path class="st0" d="M172.61,201.5c0,0-5.09,1.81-7.83-7.13C164.79,194.38,165.02,204.68,172.61,201.5z"/>
			<path class="st0" d="M147.51,160.3c0,0,5.23-1.33,7.13,7.82C154.64,168.12,155.36,157.84,147.51,160.3z"/>
			<path class="st0" d="M196.13,137.12c0,0,4.78-4.7,9.89-2.88c0,0-8.14,6.52-6.81,10.9L196.13,137.12z"/>
		</g>
	</g>
</g>
</svg>
