<?xml version="1.0" encoding="utf-8"?>
<!-- Generator: Adobe Illustrator 19.1.0, SVG Export Plug-In . SVG Version: 6.00 Build 0)  -->
<svg version="1.1" id="Layer_1" xmlns="http://www.w3.org/2000/svg" xmlns:xlink="http://www.w3.org/1999/xlink" x="0px" y="0px"
	 viewBox="55 -6.6 160 37.6" style="enable-background:new 55 -6.6 160 37.6;" xml:space="preserve">
<style type="text/css">
	.st0{clip-path:url(#SVGID_2_);}
	.st1{fill:#070707;}
	.st2{fill:#FFFFFF;}
	.st3{fill:#021E4C;}
	.st4{fill:#666887;}
	.st5{fill:#284777;}
	.st6{fill:#5C4C61;}
	.st7{fill:#072B59;}
	.st8{fill:#496188;}
	.st9{fill:#02305E;}
	.st10{fill:#000636;}
	.st11{fill:#08386A;}
	.st12{fill:#04163E;}
	.st13{fill:#000029;}
	.st14{fill:#1C3D68;}
	.st15{fill:#165D9D;}
	.st16{fill:#81839B;}
	.st17{fill:#504F6F;}
	.st18{fill:#7087B1;}
	.st19{fill:#000328;}
	.st20{fill:#125088;}
	.st21{fill:#2C5D94;}
	.st22{fill:#8F9CB9;}
	.st23{fill:#023D70;}
	.st24{fill:#00113C;}
	.st25{fill:#00214B;}
	.st26{fill:#2F5282;}
	.st27{fill:#033767;}
	.st28{fill:#496FA6;}
	.st29{fill:#B0B9D0;}
	.st30{fill:#58608E;}
	.st31{fill:#9E7E96;}
	.st32{fill:#3F3E5C;}
	.st33{fill:#095A9B;}
	.st34{fill:#224E82;}
	.st35{fill:#5B6F9D;}
	.st36{fill:#325A92;}
	.st37{fill:#063361;}
	.st38{fill:#0E244F;}
	.st39{fill:#8E9CBF;}
	.st40{fill:#A5A3B8;}
	.st41{fill:#012D5A;}
	.st42{fill:#054178;}
	.st43{fill:#34598C;}
	.st44{fill:#032F60;}
	.st45{fill:#5873A2;}
	.st46{fill:#04528F;}
	.st47{fill:#001944;}
	.st48{fill:#6F7590;}
	.st49{fill:#004481;}
	.st50{fill:#596C91;}
	.st51{fill:#000228;}
</style>
<g>
	<g>
		<defs>
			<rect id="SVGID_1_" x="55.1" y="-3.5" width="159.8" height="34.3"/>
		</defs>
		<clipPath id="SVGID_2_">
			<use xlink:href="#SVGID_1_"  style="overflow:visible;"/>
		</clipPath>
		<g class="st0">
			<g>
				<path class="st1" d="M55.1,8.2c0-0.1,0-0.2,0-0.2c0-0.1,0.1-0.1,0.2-0.1c0.2-0.1,0.2-0.2,0.2-0.4c0-0.1,0-0.2,0-0.2
					C55.8,7.2,56,7,56.3,6.9h0.1c0,0.1,0,0.2-0.1,0.3c-0.3,0.1-0.6,0.4-0.6,0.7C55.7,8,55.8,8,55.8,8c0.3,0,0.6-0.1,0.9-0.2
					c0.1-0.1,0.3-0.1,0.4-0.1c0.3,0.1,0.5,0,0.8,0c0.2,0,0.4,0,0.5,0.1v0.1C58.1,8,57.8,8,57.5,8c-0.7,0.1-1.3,0.4-1.9,0.3
					C55.3,8.3,55.2,8.3,55.1,8.2z"/>
				<path class="st2" d="M59,8.1C59,8.1,59,8,59,8.1c-0.1-0.2-0.2-0.2-0.1-0.3c0.1-0.1,0.2,0,0.3,0h0.1C59.6,7.9,60,8,60.4,8.1
					c0.3,0.1,0.6,0,0.9,0.1l0.1,0.1v0.1c-0.1,0-0.1,0-0.2,0C60.4,8.4,59.7,8.3,59,8.1z"/>
				<path class="st1" d="M58.3,7.8c-0.7,0-1.3,0-1.9,0.3c-0.3,0.1-0.7,0.1-1.1,0.1c0.3-0.2,0.4-0.4,0.5-0.7c0.1-0.2,0.2-0.2,0.4-0.3
					c0,0,0,0,0.1,0c0.1,0.1,0,0.2-0.1,0.3c-0.1,0.1-0.2,0.2-0.1,0.4c0.1,0.1,0.3,0,0.4-0.1s0.2-0.1,0.2-0.2c0.1-0.2,0.3-0.3,0.5-0.2
					s0.4,0.1,0.6,0.1s0.4,0,0.6,0.1C58.3,7.7,58.3,7.8,58.3,7.8z"/>
				<path class="st1" d="M58.3,7.8V7.7c-0.1-0.2,0-0.3,0.1-0.5V7.1C58.5,7,58.6,7,58.7,7c0.2,0,0.4-0.2,0.6-0.2c0,0,0.1,0,0.1,0.1V7
					c0,0.2-0.2,0.2-0.3,0.3c-0.1,0-0.2,0.1-0.3,0.1c-0.1,0.1-0.2,0.2-0.1,0.4c0,0.1,0,0.2-0.1,0.2C58.4,7.9,58.3,7.8,58.3,7.8
					L58.3,7.8z"/>
				<path class="st1" d="M56.2,7.1L56.2,7.1c0-0.1,0.1-0.1,0.2-0.2l0,0c0.2,0,0.3-0.2,0.5-0.3c0.2-0.1,0.4-0.2,0.7-0.2v0.1
					c0,0.1,0,0.1-0.1,0.2c-0.4,0.1-0.7,0.3-1,0.5C56.4,7.2,56.3,7.2,56.2,7.1z"/>
				<path class="st1" d="M58.5,7.9c0.1-0.1,0-0.2,0-0.3c0-0.2,0-0.3,0.2-0.4c0.1,0,0,0.1,0,0.1c-0.1,0.2,0.1,0.3,0.2,0.4
					c0,0.1,0,0.1,0,0.2c-0.1,0-0.1,0-0.2,0C58.7,8,58.6,7.9,58.5,7.9z"/>
				<path class="st1" d="M57.6,6.3c0.1,0,0.2,0,0.3,0c0,0.2-0.2,0.3-0.3,0.2c-0.3,0-0.6,0.1-0.8,0.3c-0.1,0.1-0.2,0.1-0.4,0.1
					C56.7,6.6,57.2,6.4,57.6,6.3z"/>
				<path class="st2" d="M58.9,7.8c-0.2-0.1-0.4-0.2-0.2-0.5c0.4-0.2,0.5-0.2,0.7,0.1c0.2,0.2,0.4,0.4,0.7,0.4c0.1,0,0.2,0,0.2,0.1
					V8c-0.4-0.1-0.7-0.1-1.1-0.3c0,0,0,0,0-0.1c0,0,0,0-0.1,0.1C59.1,7.8,59,7.8,58.9,7.8z"/>
				<path class="st1" d="M62.8,8.4c-0.5,0-1,0-1.5,0V8.3c0.3-0.2,0.5-0.1,0.8-0.1c0.1,0,0.3,0,0.4,0s0.3-0.1,0.4,0
					C62.9,8.4,62.8,8.4,62.8,8.4z"/>
				<path class="st2" d="M60.2,8.1L60.2,8.1C60.3,7.9,60.4,8,60.5,8c0.2,0.1,0.4,0,0.6,0.1v0.1l0,0C60.8,8.2,60.5,8.2,60.2,8.1z"/>
				<path class="st2" d="M62,8.3c-0.3-0.1-0.5,0-0.8-0.1c0,0,0,0-0.1,0l0,0c0.3-0.1,0.7-0.1,1,0C62.2,8.4,62.1,8.3,62,8.3z"/>
				<path class="st1" d="M63.6,8.4c-0.2,0-0.5,0-0.7,0h-0.1c0,0,0.1,0,0.1-0.1c0.1-0.1,0.2-0.1,0.3-0.1s0.3,0,0.4,0
					c0.2,0,0.4-0.1,0.4-0.3c0-0.1,0.1-0.1,0.1-0.1c0.1,0.2,0.1,0.4,0,0.6C64,8.5,63.8,8.5,63.6,8.4z"/>
				<path class="st1" d="M70.3,7c-0.1,0-0.2,0-0.3,0.1c-0.3,0-0.6,0.1-0.9,0.1c-0.4,0.1-0.5,0.2-0.5,0.6c0,0.1,0.1,0.2,0,0.4
					c-0.1,0-0.1-0.1-0.1-0.1c0-0.2,0-0.4,0-0.6c0-0.3,0.2-0.4,0.5-0.4s0.7,0,1-0.1c0.1,0,0.1,0,0.1-0.1c0.2-0.1,0-0.2,0-0.3
					C70,6.4,70,6.2,70.1,6c0-0.1,0.1-0.1,0.2-0.1c0.1,0.2,0.1,0.5,0.4,0.6c0.2,0.2,0.1,0.3-0.1,0.4C70.5,6.9,70.4,7,70.3,7z"/>
				<path class="st1" d="M59.4,3.8c-0.3,0-0.5,0.1-0.8,0.2c-0.2,0.1-0.4,0-0.5-0.1L58,3.8c-0.1-0.1-0.3-0.1-0.4,0.1
					c0,0.1-0.1,0.2-0.2,0.3c-0.1,0.2-0.3,0.3-0.5,0.1c-0.1-0.1-0.2,0-0.2,0c-0.1,0-0.2,0-0.4,0c-0.1-0.1-0.2-0.1-0.2,0
					c-0.1,0.1-0.3,0.1-0.4-0.1c-0.1-0.2,0-0.3,0.1-0.4c0.4-0.3,0.9-0.2,1.4-0.3C57.6,3.4,57.8,3.2,58,3c0.3-0.3,0.7-0.4,1.1-0.4
					c0,0,0,0,0,0.1c0,0.1-0.2,0.2-0.4,0.2c-0.1,0-0.3,0.1-0.4,0.2c-0.2,0.1-0.3,0.3-0.2,0.5c0.1,0.2,0.2,0.2,0.4,0.2
					s0.3-0.1,0.5-0.1c0.3,0,0.5-0.1,0.8-0.2c0.1-0.1,0.3,0,0.4,0c0.2,0.1,0.4,0.1,0.5,0.2c0,0.1,0.1,0.1,0,0.2L60.6,4
					C60.3,3.8,59.8,3.9,59.4,3.8z"/>
				<path class="st1" d="M59.4,3.8c0.2,0,0.5,0,0.7-0.1c0.2-0.1,0.4,0.1,0.7,0.1l0,0c0.1,0,0.1,0.1,0.2,0.1c0.1,0.2,0.1,0.3,0.4,0.3
					c0.1,0,0.1,0.1,0.1,0.2c-0.1,0.1-0.3,0.1-0.4,0c-0.2-0.2-0.4-0.2-0.6-0.3C60.1,4.1,59.8,3.9,59.4,3.8z"/>
				<path class="st1" d="M59.1,2.6c-0.4,0-0.8,0.2-1.1,0.5c-0.2,0.2-0.5,0.3-0.8,0.3c0.3-0.1,0.6-0.2,0.8-0.5l0.1-0.1
					c0.2-0.3,0.5-0.4,0.8-0.3c0.1,0,0.3,0,0.4-0.1c0.3-0.5,0.8-0.3,1.2-0.3c0.3,0.1,0.4,0.2,0.5,0.3c0.1,0,0.1,0.1,0.1,0.2
					c0,0.1-0.1,0.1-0.2,0.1c-0.4-0.4-0.9-0.3-1.3-0.1C59.4,2.7,59.3,2.7,59.1,2.6z"/>
				<path class="st1" d="M55.9,3.7c-0.1,0.1-0.2,0.2-0.1,0.4c0.1,0.1,0.2,0,0.4,0c0.3,0,0.6,0,0.9,0.1c0.3,0.1,0.4-0.1,0.5-0.2
					c0.2-0.4,0.3-0.4,0.6,0c-0.2-0.1-0.4-0.1-0.6,0.2c-0.3,0.2-0.4,0.2-0.8,0.1c-0.2,0-0.5-0.1-0.8,0c-0.2,0.1-0.3,0-0.4-0.2
					C55.6,3.9,55.7,3.8,55.9,3.7z"/>
				<path class="st1" d="M56.2,7.1c0.5-0.1,0.9-0.5,1.4-0.6c0.1,0,0.1,0,0.2-0.1c0.1,0,0.2,0,0.3,0.1c0,0.1,0,0.2-0.1,0.3
					c-0.2,0.1-0.2,0.3,0,0.4c0,0.1,0,0.1,0,0.2c0.2,0,0.2-0.4,0.5-0.1c-0.1,0.2-0.1,0.3-0.2,0.5c-0.3,0-0.5-0.1-0.8,0h-0.1
					c-0.4-0.2-0.7-0.1-1,0.2c-0.1,0.1-0.3,0.1-0.4,0.2c-0.1,0-0.2,0-0.2-0.1c-0.1-0.1,0-0.2,0-0.2C55.9,7.5,56,7.3,56.2,7.1z"/>
				<path class="st1" d="M59.3,6.9L59.3,6.9c-0.2-0.1-0.1-0.1,0-0.2c0.2-0.2,0.4-0.3,0.7-0.5c0.6-0.2,1.2-0.1,1.8-0.1
					c0.6,0,1.2,0.1,1.7,0.4c0.5,0,0.8,0.4,1,0.8c0.1,0.2,0.3,0.5,0.4,0.7c0.1,0.1,0.1,0.3,0,0.4c-0.2,0.1-0.3,0-0.4-0.1
					c0,0,0,0-0.1-0.1c-0.2-0.4-0.4-0.8-0.8-1.1c0,0,0,0-0.1-0.1c-0.3-0.2-0.6-0.4-1-0.5c-0.4-0.1-0.9-0.1-1.4-0.1
					c-0.6,0-1.1,0.1-1.6,0.5C59.4,7,59.4,7,59.3,6.9z"/>
				<path class="st1" d="M59.9,6.3c-0.2,0.2-0.5,0.4-0.7,0.6C59,7,58.9,7,58.7,7.1c-0.1,0-0.2,0-0.2,0.1l0,0c-0.1,0-0.2,0-0.2,0.1
					c-0.1,0.3-0.4,0.1-0.6,0.2c0,0-0.1,0-0.1-0.1s0-0.1,0.1-0.2c0.1,0,0.2,0,0.3-0.1l0,0c0-0.1,0.1-0.2,0.1-0.3l0.1-0.1
					c0.2,0,0.4-0.1,0.6-0.2c0.1-0.1,0.1-0.1,0.2-0.1c0.3,0,0.5-0.2,0.8-0.2C59.8,6.3,59.9,6.3,59.9,6.3L59.9,6.3z"/>
				<path class="st3" d="M59.3,6.9c0.1,0,0.1,0,0.2-0.1c0.2-0.1,0.4-0.2,0.6-0.3c0.1,0,0.1-0.1,0.2,0c0,0,0,0,0,0.1v0.1
					c-0.1,0.4-0.1,0.4,0.3,0.4h0.1c0,0,0.1,0,0.1,0.1s0,0.2-0.1,0.2c-0.2,0-0.4,0.2-0.6,0.1c0,0,0.1,0.2,0.2,0.2
					c0.1,0,0.1,0,0.2,0.1c0.3,0.1,0.6,0.1,0.9,0.3v0.1c-0.1,0.1-0.2,0.1-0.3,0c-0.2-0.1-0.4-0.1-0.6-0.1c-0.3-0.2-0.5-0.4-0.6-0.7
					C59.8,7.2,59.7,7,59.4,7C59.4,7,59.3,7,59.3,6.9C59.3,7,59.3,6.9,59.3,6.9z"/>
				<path class="st4" d="M60.5,8.1c-0.1,0-0.2,0-0.3,0h-0.1c-0.4,0-0.7-0.2-0.8-0.5c-0.1-0.3-0.4-0.2-0.6-0.1V7.4
					c0.1,0,0.2-0.1,0.3-0.1s0.3-0.1,0.4,0c0.2,0.1,0.3,0.4,0.5,0.5C60,7.9,60.1,7.9,60.2,8C60.3,7.9,60.5,7.9,60.5,8.1z"/>
				<path class="st5" d="M59.4,7.3c-0.1,0-0.2-0.1-0.4-0.1c0.1-0.1,0.2-0.1,0.3-0.2h0.1c0,0,0.1,0,0.1,0.1
					C59.6,7.2,59.5,7.2,59.4,7.3z"/>
				<path class="st1" d="M58.5,7.2c0.1-0.1,0.1-0.1,0.2-0.1C58.6,7.1,58.5,7.2,58.5,7.2z"/>
				<path class="st1" d="M57.8,6.5c-0.1,0-0.2,0-0.2,0s0,0,0-0.1c0.1,0,0.2-0.1,0.3-0.2l0,0c0,0,0.1,0,0.1-0.1
					C58.3,6,58.6,5.9,58.9,6c0.1,0,0.2,0,0.2-0.1c0.1-0.1,0.2-0.2,0.3-0.2c0.3,0,0.6,0,0.8-0.1c0.1,0,0.2,0,0.2,0
					c0.1,0.3-0.2,0.3-0.3,0.3c-0.3,0.4-0.7,0.5-1.1,0.7c-0.3,0.1-0.6,0.2-0.9,0.3c-0.1,0-0.2,0.1-0.3,0c-0.1-0.1,0-0.2,0.1-0.2
					C58,6.7,58,6.6,58,6.5C58,6.5,57.9,6.5,57.8,6.5z"/>
				<path class="st1" d="M58.1,6.3L58.1,6.3c-0.1-0.1,0-0.1,0.1-0.1c0.5-0.2,1-0.4,1.6-0.4c0.4,0,0.7,0,1.1-0.1c0.1-0.1,0.3,0,0.4,0
					c0.3,0,0.6-0.1,0.9-0.1c0.1,0,0.2,0,0.2-0.1s0-0.1-0.1-0.2c-0.3-0.2-0.5-0.4-0.6-0.6c-0.1-0.1-0.2-0.3-0.4-0.3
					c-0.1,0-0.2-0.1-0.2-0.2C61.1,4.1,61,4,60.9,4l0,0c0,0,0-0.1-0.1-0.1l0.1-0.1c0.3,0,0.4,0.3,0.6,0.4c0.2,0.1,0.5,0.2,0.8,0.5
					c0.2,0.1,0.4,0.3,0.6,0.5c0.1,0.1,0.2,0.2,0.2,0.3c-0.1,0.2-0.2,0.3-0.4,0.3s-0.5,0-0.7,0c-0.4,0-0.7,0-1.1,0.1h-0.1
					c-0.5,0-0.9,0-1.4,0.1c0,0-0.1,0-0.1,0.1c-0.1,0.1-0.2,0.1-0.3,0.1C58.7,6.1,58.4,6.2,58.1,6.3z"/>
				<path class="st1" d="M60.8,3.8h0.1c0.2,0.4,0.8,0.5,1,0.9C62,4.9,62.2,5,62.3,5.1c0.1,0.1,0.2,0.1,0.2,0.2
					c0.1,0,0.1,0.1,0.1,0.2c0,0.1-0.1,0.1-0.2,0.1c-0.5,0-1.1,0.1-1.6,0.1c0,0,0,0,0-0.1c0.3,0,0.7,0,1-0.1c0.1-0.1,0.2,0,0.3,0
					c0.1,0,0.2-0.1,0.1-0.2c-0.1-0.1-0.1-0.1-0.2-0.2c-0.3-0.2-0.4-0.5-0.6-0.7l0,0C61.1,4.3,60.9,4.1,60.8,3.8z"/>
				<path class="st1" d="M68.5,3.2c0.5,0,0.9,0.2,1.3,0.5c0.3,0.2,0.6,0.4,0.6,0.8c0,0.1,0.1,0.2,0.2,0.2c0.2,0.1,0.2,0.3,0,0.4
					c-0.1,0.1-0.2,0.1-0.3,0.2c0,0.1-0.1,0.1-0.1,0.2l0,0c-0.1-0.1,0-0.2,0-0.3c0.1-0.1,0.2-0.3,0-0.4l-0.1-0.1
					c0-0.3-0.2-0.5-0.4-0.7c-0.1,0-0.1-0.2-0.2-0.2c0,0-0.1,0-0.1-0.1C69.2,3.6,68.8,3.3,68.5,3.2C68.4,3.2,68.4,3.2,68.5,3.2
					L68.5,3.2z"/>
				<path class="st1" d="M66.9,8.8L66.9,8.8c-0.1-0.1,0-0.2,0-0.2H67h0.1c0.1,0.1,0.2,0,0.3-0.1s0.3-0.1,0.4-0.1
					c0.3-0.1,0.4-0.2,0.5-0.6c0-0.2,0-0.4,0-0.7c0-0.1,0-0.2-0.1-0.2c-0.2-0.1-0.1-0.2,0-0.4c0.3-0.3,0.9-0.2,1.1,0.1
					c0.1,0.1,0.1,0.1,0.2,0.1c0.2,0,0.3-0.1,0.5,0.1c-0.3,0.1-0.6,0.1-1,0.1C68.5,7,68.4,7,68.4,7.6c0,0.1,0,0.3,0.1,0.4l0,0
					c0.1,0.2,0,0.3-0.2,0.4c-0.3,0.2-0.6,0.3-0.9,0.4h-0.1c-0.1,0-0.2-0.1-0.3-0.1C67,8.8,67,8.8,66.9,8.8z"/>
				<path class="st1" d="M68.6,8.1c0-0.9,0-0.9,0.8-1c0.2,0,0.4,0,0.6,0c0,0,0,0,0,0.1c-0.3,0-0.6,0-0.8,0.1
					C68.8,7.4,68.6,7.6,68.6,8.1c0.1,0.1,0.1,0.1,0.1,0.2c0,0.3-0.1,0.6-0.1,1c0,0.2-0.3,0.3-0.5,0.2c-0.3-0.2-0.5-0.3-0.8-0.3
					c0.1-0.1,0.2,0,0.2-0.1l0,0c0.3-0.1,0.5,0,0.8,0.1c-0.1-0.3,0-0.4,0.3-0.5C68.6,8.5,68.6,8.3,68.6,8.1L68.6,8.1z"/>
				<path class="st1" d="M67.4,8.9c-0.1,0-0.1,0.1-0.2,0.1l-0.1-0.1C67.2,8.9,67.3,8.9,67.4,8.9z"/>
				<path class="st2" d="M59.1,7.8c0-0.1-0.1-0.1-0.1-0.2c-0.1-0.1-0.2-0.1-0.1-0.2c0.1-0.1,0.2,0,0.2,0C59.3,7.6,59.4,7.7,59.1,7.8
					C59.2,7.8,59.1,7.8,59.1,7.8z"/>
				<path class="st2" d="M64.1,7.8c0,0.4-0.1,0.4-0.5,0.5c-0.3,0-0.5,0-0.8,0c-0.1-0.1-0.3,0-0.4,0c-0.1,0-0.2,0-0.2-0.1V8.1h0.1
					c0.4,0.1,0.8,0.2,1.3,0.1c0.3,0,0.3-0.1,0.2-0.3c0-0.1,0-0.1,0-0.2l0.1-0.1C64.1,7.6,64.2,7.7,64.1,7.8z"/>
				<path class="st1" d="M62.4,8.2l0.1,0.1c-0.2,0-0.3,0-0.5,0c0.1,0,0.1,0,0.2-0.1C62.2,8.2,62.3,8.2,62.4,8.2z"/>
				<path class="st6" d="M60.5,8.1C60.4,8,60.3,8,60.2,7.9c0.1-0.1,0.2-0.1,0.2,0c0.3,0,0.6,0.2,1,0.2c0.1-0.1,0.2-0.1,0.2,0v0.1
					c-0.2,0.1-0.4,0.1-0.5,0C60.9,8.1,60.7,8.1,60.5,8.1z"/>
				<path class="st2" d="M61.2,8.2c0.2,0,0.4,0,0.5-0.1C61.7,8,61.8,8,61.9,8c0.1,0,0.2,0,0.4,0h0.1v0.1v0.1c-0.1,0-0.1,0-0.2,0
					C61.9,8.2,61.5,8.3,61.2,8.2L61.2,8.2z"/>
				<path class="st1" d="M64.1,7.8c0-0.1-0.1-0.2-0.1-0.3c-0.1-0.1-0.2-0.2-0.3-0.3c-0.1-0.1-0.1-0.1-0.1-0.2c0,0,0,0,0.1,0
					c0.4,0.3,0.5,0.7,0.7,1.2c0,0,0,0.1,0.1,0.1v0.1c-0.1,0.1-0.1,0.1-0.2,0h-0.1V8.3C64.2,8.2,64.3,8,64.1,7.8z"/>
				<path class="st1" d="M70.2,5.9C70,6.2,70,6.4,70.3,6.5c0.1,0,0.2,0.1,0.2,0.2c0,0.1-0.1,0.2-0.3,0.2h-0.1c0-0.3-0.3-0.4-0.3-0.7
					c0-0.1,0-0.2,0-0.3c0.1-0.3,0.1-0.5-0.1-0.8c-0.1-0.1,0-0.3,0-0.4V4.6c0-0.1-0.1-0.2-0.2-0.3S69.3,4.1,69.3,4V3.9
					c-0.4,0-0.5-0.5-0.9-0.4h-0.1c-0.1,0-0.2,0-0.3,0c-0.4,0.2-0.7,0.1-1.1,0c-0.1,0-0.3-0.1-0.4,0c-0.1,0-0.2,0-0.2,0
					c-0.2-0.2-0.4-0.1-0.6-0.1c-0.3,0-0.6-0.1-0.8,0.1h-0.1c0-0.2,0.1-0.5,0.4-0.4c0.4,0.1,0.9,0,1.2,0.3h0.1c0.1,0.1,0.2,0,0.4,0
					H67c0.1,0,0.3,0,0.4,0.1c0.1,0,0.3,0.1,0.4,0c0.1,0,0.1,0,0.2,0c0.3,0.1,0.5,0,0.8,0c0.2,0,0.4,0,0.5,0.2s0.3,0.1,0.5,0.2
					c0.2,0.2,0.3,0.4,0.5,0.5c0.1,0,0.1,0.2,0.1,0.3c0,0.2,0,0.3,0.1,0.5c0.1,0.1,0,0.2,0,0.3C70.2,5.4,70.3,5.6,70.2,5.9L70.2,5.9z
					"/>
				<path class="st1" d="M70,6.2c0,0.2,0,0.3,0.2,0.4c0.3,0.2,0.3,0.2,0,0.4c0,0-0.1,0-0.1,0.1c-0.2,0-0.4,0-0.6,0
					c-0.1,0-0.3,0-0.3-0.2c0,0,0-0.1-0.1-0.1c-0.2-0.1-0.5-0.2-0.7,0c-0.1,0-0.2,0.1-0.1,0.2c0.3,0.3,0.1,0.7,0.2,1.1
					c-0.1,0-0.1-0.1-0.1-0.2c0-0.1,0-0.3-0.1-0.4V7.4c0-0.1-0.1-0.1-0.1-0.2c-0.1-0.2-0.1-0.3,0-0.5c0.2-0.2,0.7-0.4,1-0.3
					c0.1,0,0.2,0.1,0.3,0.2c0,0.1,0.1,0.1,0.1,0.2c0.1,0.1,0.2,0.1,0.3,0.1C70,6.9,70,6.8,70,6.7c0-0.1,0-0.2,0-0.3
					C69.9,6.2,69.9,6.1,70,6.2z"/>
				<path class="st1" d="M70.3,5.6c0,0.1,0,0.1,0,0.2c-0.1,0.3,0,0.6,0.3,0.7c-0.4-0.1-0.4-0.1-0.4-0.6l0,0
					C70.3,5.8,70.1,5.6,70.3,5.6L70.3,5.6z"/>
				<path class="st1" d="M57.5,3.7c0,0.2-0.2,0.3-0.4,0.3H57c-0.3,0.2-0.6,0-1,0.1c-0.1,0-0.1,0-0.2,0c0-0.1,0-0.1,0.1-0.2
					c0,0,0,0,0.1,0c0.4-0.1,0.8-0.2,1.2-0.3C57.4,3.5,57.5,3.5,57.5,3.7z"/>
				<path class="st1" d="M59.1,3.7c-0.2,0.1-0.5,0.1-0.7,0.2c-0.2,0-0.4-0.2-0.4-0.4c-0.1-0.2,0-0.3,0.2-0.5c0.3-0.2,0.6-0.3,1-0.4
					h0.1c0.1,0.1,0,0.2-0.1,0.2C59,3,58.9,3.1,58.7,3.2c-0.1,0-0.2,0.1-0.2,0.3c0,0.1,0.2,0.1,0.3,0.2C58.9,3.6,59,3.6,59.1,3.7
					L59.1,3.7z"/>
				<path class="st1" d="M59.3,2.7L59.3,2.7c-0.1,0-0.1,0-0.1-0.1c0.2,0,0.4-0.1,0.6-0.2c0.4-0.2,0.8-0.2,1.2,0.1
					c-0.2,0.1-0.3,0.2-0.2,0.4c0.1,0.1,0,0.2-0.1,0.2c-0.3,0-0.6,0.1-0.8-0.2c-0.1-0.1-0.3-0.2-0.5-0.2H59.3z"/>
				<path class="st1" d="M59.1,3.7L59.1,3.7c0.2-0.4,0.4-0.6,0.8-0.5c0.4,0.1,0.7,0.1,1,0.4v0.1h-0.1c-0.2-0.1-0.3-0.1-0.5-0.2
					c-0.2-0.1-0.4-0.1-0.5,0.1c-0.1,0.1-0.2,0.1-0.3,0.1C59.4,3.7,59.2,3.7,59.1,3.7z"/>
				<path class="st1" d="M61.4,4.4c0.3,0.1,0.3,0.4,0.5,0.5c0.2,0.1,0.3,0.2,0.5,0.3c0.1,0,0.1,0.1,0.1,0.1c0,0.1-0.1,0.1-0.2,0.1
					c-0.2,0-0.3,0-0.5,0c0.2,0,0.4,0.1,0.4,0s-0.1-0.2-0.3-0.3C61.7,4.9,61.6,4.7,61.4,4.4z"/>
				<path class="st1" d="M59.9,2.8C60.1,2.9,60.2,3,60.5,3c0.1,0,0.1,0,0.2-0.1c0-0.1,0-0.1-0.1-0.2l-0.1-0.1c0,0-0.1-0.1-0.1-0.2
					c0-0.1,0.1,0,0.2,0c0.1,0,0.2,0.1,0.3,0.1c0.1,0,0.1,0,0.2,0h0.1c0,0,0,0,0.1,0.1l0,0l0,0c-0.2,0.2-0.2,0.3-0.1,0.5
					c0.1,0.2,0,0.3-0.2,0.3c-0.1,0-0.2,0-0.3-0.1c-0.2-0.1-0.4-0.1-0.6-0.2C60,3.1,59.8,3,59.9,2.8z"/>
				<path class="st1" d="M57.8,6.5c0.1,0,0.2-0.1,0.3,0C58.2,6.6,58,6.7,58,6.7l-0.1,0.1c0,0.1,0.1,0,0.2,0c0.3-0.1,0.6-0.3,1-0.3
					c0,0,0,0,0,0.1c-0.1,0-0.1,0-0.2,0.1c-0.2,0.1-0.4,0.2-0.6,0.2c0,0-0.1,0-0.1,0.1c-0.1,0.1-0.1,0.2-0.2,0.2l0,0
					c-0.1,0-0.2,0-0.3-0.1c-0.1-0.1,0.1-0.2,0.1-0.3S58.1,6.6,57.8,6.5z"/>
				<path class="st1" d="M64.4,8.3V8.2c0.1,0,0.1,0.1,0.2,0.1c0.2,0.1,0.3,0,0.2-0.2c-0.3-0.5-0.4-1-0.9-1.4
					c-0.1-0.1-0.2-0.1-0.3-0.1c-0.1-0.1-0.1-0.1-0.1-0.2c0,0,0,0,0.1-0.1c0.4,0,0.7,0.1,1,0.3c-0.3-0.2-0.7-0.2-1-0.3
					c-0.1,0-0.1-0.1-0.2-0.2c-0.1,0-0.1-0.1-0.1-0.2c0-0.1,0.1-0.2,0.2-0.2c0.2,0,0.3-0.1,0.5-0.1c0.2,0,0.4-0.1,0.5-0.1
					s0.1,0,0.1-0.1c-0.1,0-0.1,0-0.2,0s-0.2,0-0.3,0c-0.3-0.1-0.5-0.3-0.8-0.4c-0.1,0-0.1-0.1-0.1-0.2c0.1-0.2,0.4-0.2,0.6-0.2
					s0.4,0,0.5,0c0.9-0.2,1.7-0.1,2.6,0.3C67,5,67.1,5,67.3,5c0.3,0,0.6,0.1,0.8,0.3c0.1,0.1,0.1,0.1,0.2,0.1
					c0.1,0.1,0.2,0.2,0.1,0.4c-0.1,0.1-0.2,0.2-0.4,0c0,0-0.1-0.1-0.2,0c0,0,0,0-0.1,0l0,0C67.6,6,67.5,6,67.3,6
					c-0.3,0-0.6,0.1-1,0.1c-0.2,0-0.3,0-0.5-0.2c-0.1-0.1-0.2-0.1-0.3-0.2c-0.1,0-0.2-0.1-0.2,0c-0.1,0.1,0,0.2,0.1,0.3
					c0.2,0.2,0.3,0.4,0.5,0.6c0.4,0.3,0.6,0.8,0.9,1.2c0.1,0.1,0.1,0.2,0.3,0.3c0.2,0.1,0.1,0.3,0.1,0.5S67,8.7,66.9,8.7
					c-0.3-0.2-0.6-0.5-0.8-0.7L66,7.9c-0.1-0.1-0.2-0.1-0.3-0.1c-0.1,0-0.1,0.2-0.1,0.2c0,0.2,0,0.3,0,0.5s-0.1,0.2-0.3,0.2
					c-0.2,0-0.4,0-0.7-0.1C64.6,8.5,64.4,8.4,64.4,8.3z"/>
				<path class="st1" d="M60.3,6.6c-0.3,0.1-0.5,0.2-0.8,0.3c0.3-0.3,0.6-0.5,1-0.5c1-0.1,2-0.1,2.9,0.4c0.1,0.1,0.2,0.1,0.3,0.2
					c-0.1,0.1-0.2,0-0.2,0s-0.1,0-0.1-0.1c-0.2-0.1-0.4-0.3-0.5-0.1c-0.3,0.2-0.5,0-0.8-0.1c-0.5-0.2-1-0.2-1.6-0.1
					C60.4,6.6,60.3,6.6,60.3,6.6z"/>
				<path class="st1" d="M63.4,6.5c0,0.1,0,0.1,0.1,0.2c-0.9-0.5-1.9-0.4-2.9-0.4c-0.2,0-0.4,0.1-0.7,0.1l0,0
					C60,6.3,60,6.2,60.2,6.1c0.5-0.2,1-0.1,1.5-0.1h0.1c0.1,0,0.3,0.1,0.4,0.1h0.1c0.3,0.1,0.7,0.1,1,0.3
					C63.4,6.3,63.4,6.4,63.4,6.5z"/>
				<path class="st7" d="M63.5,6.9c0.1,0,0.1,0,0.2,0.1c0,0,0,0,0,0.1c0,0,0,0-0.1,0.1c-0.1,0.1-0.2,0-0.2-0.1S63.4,7,63.5,6.9
					C63.4,6.9,63.4,6.9,63.5,6.9z"/>
				<path class="st1" d="M60.2,6c-0.1,0.1-0.1,0.2-0.2,0.3c-0.4,0.1-0.7,0.2-1,0.3c0,0,0,0,0-0.1c0.3-0.1,0.5-0.3,0.8-0.3
					C60,6.3,60,6.1,60.2,6C60.1,6,60.2,6,60.2,6z"/>
				<path class="st1" d="M58.2,6.9c0.2-0.1,0.4-0.2,0.6-0.2C58.7,6.8,58.4,6.9,58.2,6.9z"/>
				<path class="st1" d="M57.9,7.2C57.9,7.1,58,7,58.1,7C58.1,7.1,58,7.1,57.9,7.2z"/>
				<path class="st8" d="M60.7,7.1c-0.1,0-0.1,0-0.2,0.1c-0.2,0.1-0.3,0-0.4-0.2c-0.1-0.2,0-0.3,0.1-0.4c0.3-0.2,0.6-0.1,0.9-0.1
					c0.1,0,0.1,0.1,0.1,0.1c0,0.1,0,0.2,0,0.2C61.2,7.2,60.9,7.1,60.7,7.1z"/>
				<path class="st1" d="M60.7,7.3c0.1,0,0.1-0.1,0.2-0.1C61.3,7,61.3,7,61.5,7.3c0,0.3-0.1,0.4-0.3,0.4c-0.1,0-0.2,0-0.3,0h-0.1
					c-0.1,0-0.2-0.1-0.2-0.2C60.6,7.3,60.6,7.3,60.7,7.3z"/>
				<path class="st9" d="M61.2,6.6c-0.3,0-0.6,0-0.9,0c0,0,0,0,0-0.1c0,0,0.1,0,0.1-0.1c0.3-0.1,0.6-0.1,0.9,0c0.2,0,0.3,0,0.5,0
					c0.4,0,0.5,0.3,0.4,0.6c-0.1,0-0.1,0.1-0.2,0.1S61.9,7,61.9,6.9c0-0.2-0.1-0.3-0.3-0.3h-0.1C61.3,6.8,61.3,6.7,61.2,6.6z"/>
				<path class="st10" d="M60.7,7.3c0,0,0,0.1-0.1,0.1c0,0.1-0.1,0.3-0.2,0.3C60.1,7.6,60,7.4,60,7.1C60.2,7.3,60.4,7.4,60.7,7.3z"
					/>
				<path class="st11" d="M60.5,7.9c-0.1,0-0.2,0-0.2,0c-0.1,0-0.2-0.1-0.3-0.1c-0.2-0.1-0.2-0.3-0.2-0.4c-0.1-0.1-0.1-0.2-0.2-0.3
					c0,0-0.1,0-0.1-0.1c0.2-0.1,0.4-0.1,0.5,0.2C60,7.5,60.2,7.8,60.5,7.9z"/>
				<path class="st9" d="M61.4,7.2c-0.1-0.2-0.3-0.1-0.5-0.1h-0.1C60.9,7,61.1,7,61.3,6.9c0.2-0.1,0.3,0,0.4,0.1
					c0.1,0.1,0.3,0,0.4,0.2C61.8,7.5,61.7,7.5,61.4,7.2C61.4,7.3,61.4,7.3,61.4,7.2z"/>
				<path class="st12" d="M61.4,8c-0.3,0-0.6-0.2-0.9-0.2c0,0,0-0.1,0.1-0.1c0.2-0.1,0.4-0.2,0.6,0.1c0.1,0.1,0.3,0,0.4,0.1V8
					C61.6,8,61.5,8.1,61.4,8z"/>
				<path class="st13" d="M60.6,7.8L60.6,7.8c-0.1,0-0.2,0-0.2-0.1c0-0.2,0.1-0.3,0.2-0.3c0,0.1,0.1,0.1,0.1,0.2
					C60.8,7.7,60.7,7.7,60.6,7.8z"/>
				<path class="st14" d="M61.4,8c0.1,0,0.1,0,0.2-0.1c0.1-0.1,0.2-0.2,0.3-0.3c0.1,0,0.2-0.1,0.3,0c0,0.2-0.2,0.3-0.3,0.4
					c-0.1,0-0.2,0.1-0.3,0C61.6,8.1,61.5,8.1,61.4,8L61.4,8z"/>
				<path class="st15" d="M59.5,7c0.1-0.1,0.2,0,0.3,0.1c0.1,0.2,0.1,0.4,0.1,0.6c-0.2-0.1-0.4-0.3-0.5-0.5
					C59.5,7.2,59.5,7.1,59.5,7z"/>
				<path class="st1" d="M60.7,5.8L60.7,5.8c0.5-0.1,0.8,0,1.2,0c0.3,0,0.7,0.1,1-0.1c0.1,0,0.2-0.1,0.3-0.1c0.1-0.1,0.2-0.2,0-0.3
					c-0.1-0.1-0.1-0.1,0-0.2C63.4,5,63.5,5,63.7,5.2c0.2,0.1,0.4,0.2,0.6,0.2h0.1c0.1,0,0.1,0.1,0.1,0.1c0,0.1-0.1,0.1-0.1,0.2
					c-0.2,0.1-0.5,0.1-0.7,0.1c-0.1,0-0.2,0-0.3,0.1c-0.2,0.2-0.5,0.2-0.7,0.2c-0.3,0-0.6,0-0.9-0.1C61.4,5.9,61.1,6,60.7,5.8
					L60.7,5.8c-0.2,0.1-0.3,0.1-0.3,0.1c0-0.1,0-0.1,0.1-0.1C60.5,5.8,60.6,5.8,60.7,5.8z"/>
				<path class="st1" d="M58.1,6.3c0.2-0.2,0.5-0.2,0.8-0.3c0.1-0.1,0.2,0,0.3-0.1l0,0c0.1,0,0.2,0,0.2,0c-0.2,0.2-0.4,0.3-0.7,0.3
					C58.5,6.2,58.3,6.3,58.1,6.3z"/>
				<path class="st1" d="M59.4,5.9c-0.1,0-0.2,0-0.2,0c0.5-0.2,1-0.2,1.5-0.2c-0.1,0-0.2,0.1-0.3,0.1C60,6,59.7,5.9,59.4,5.9z"/>
				<path class="st1" d="M60.6,5.9c0.4,0,0.8-0.1,1.2,0.1l0,0l0,0c-0.5,0-1.1-0.1-1.6,0.1c0,0,0,0-0.1,0C60.3,6,60.4,5.9,60.6,5.9z"
					/>
				<path class="st1" d="M60.9,3.7L60.9,3.7C60.9,3.6,60.9,3.6,60.9,3.7c0.1-0.2,0.2-0.1,0.3,0c0.2,0.2,0.5,0.3,0.7,0.6
					c0,0.1,0.1,0.1,0.2,0.1c0.1,0,0.2,0,0.3,0.1c0.2,0.1,0.4,0.1,0.4,0.4c0,0.1,0.1,0.2,0.2,0.2c0.1,0.1,0.3,0.1,0.3,0.3
					S63.1,5.6,63,5.7c-0.3,0.1-0.7,0.1-1,0.1c0,0,0,0,0-0.1c0.2,0,0.5,0,0.7,0c0.1,0,0.2-0.1,0.3-0.2c0-0.1,0-0.2-0.1-0.2
					c-0.6-0.6-1.3-0.9-1.9-1.5C61,3.7,60.9,3.7,60.9,3.7z"/>
				<path class="st1" d="M62,5.7c0.4,0.1,0.7,0.1,1.1-0.1c0.2-0.1,0.2-0.2,0-0.4c-0.2-0.1-0.4-0.2-0.4-0.5c0-0.2-0.2-0.2-0.4-0.2
					c-0.1,0-0.3,0-0.3-0.1c0.4-0.2,0.8,0,1,0.3c0,0.1,0.1,0.2,0.1,0.2C63.2,5,63.2,5,63.3,5.1c0.2,0.2,0.2,0.3,0,0.5
					c0,0-0.1,0-0.1,0.1c-0.6,0.2-1.3,0-1.9,0c-0.1,0-0.2,0-0.3,0C61.2,5.6,61.6,5.7,62,5.7z"/>
				<path class="st1" d="M59.2,5.9C59.1,6,59,6,58.9,6C59,5.9,59.1,5.9,59.2,5.9z"/>
				<path class="st1" d="M76.2,10.8c-0.1,0-0.2-0.1-0.3-0.1c-0.3,0-0.5-0.3-0.6-0.5c0-0.1,0-0.1-0.1-0.2c-0.1-0.1-0.1-0.3,0-0.4
					c0.1-0.2,0.1-0.3,0-0.5c0-0.1,0-0.1,0-0.2c0.2-0.2,0.1-0.3,0-0.5c-0.1-0.1-0.1-0.2,0-0.3c0.2-0.3,0.2-0.6,0.4-0.9
					c0.1-0.2,0.2-0.4,0.2-0.6c0-0.3,0.1-0.7,0-1c0-0.2,0.1-0.4,0.2-0.7c0-0.1,0.2-0.2,0.3-0.1c0.3,0.1,1-0.1,1.2-0.2
					c0.2-0.2,0.4-0.4,0.6-0.6c0.2-0.1,0.4-0.2,0.6-0.1c0.4,0.2,0.8,0.1,1.1-0.1c0.2-0.1,0.4-0.1,0.6,0.1c0.1,0.1,0.2,0.1,0.3,0
					c0.2,0,0.3,0,0.4,0.2c0.1,0.2,0.2,0.2,0.4,0.2c0.1,0,0.2,0,0.3,0.1v0.1c-0.1,0.1-0.3,0-0.5,0c-0.1,0-0.2-0.1-0.3-0.1
					c-0.2,0-0.6,0-0.9,0c-0.3,0-0.5,0-0.8,0.2c-0.2,0.1-0.3,0.1-0.5,0c-0.4-0.2-0.7-0.1-1,0.2C77.6,5,77.3,5.2,77,5.4
					c-0.1,0-0.1,0-0.2,0c-0.2,0-0.4,0.1-0.6,0.2c-0.1,0-0.1,0.1-0.1,0.2c0,0.2,0,0.4,0.1,0.6c0.1,0.3,0,0.7-0.3,0.9
					c-0.4,0.4-0.4,0.8-0.4,1.3c0,0.2,0,0.5,0,0.7c0.1,0.3,0,0.6,0,0.9c0,0.2,0.1,0.3,0.2,0.3s0.2,0.1,0.3,0.1
					C76.2,10.7,76.3,10.7,76.2,10.8L76.2,10.8z"/>
				<path class="st1" d="M79.4,10.5C79.4,10.6,79.4,10.6,79.4,10.5c-0.1,0.1-0.2,0.1-0.2,0.1c-0.2-0.1-0.4-0.1-0.6-0.1
					c-0.3,0-0.3-0.1-0.4-0.4V10c0.1-0.1,0.1,0,0.2,0c0.1,0.1,0.3,0.1,0.5,0.2C79.1,10.2,79.4,10.2,79.4,10.5
					C79.5,10.5,79.5,10.5,79.4,10.5z"/>
				<path class="st1" d="M79.3,10.5c0.1,0,0.1,0,0.2,0.1c-0.2,0.2-0.8,0.3-1.1,0.1c-0.1-0.1-0.3-0.2-0.4,0h-0.1l0,0
					c0.1-0.2,0.3-0.3,0.6-0.2C78.7,10.6,79,10.5,79.3,10.5z"/>
				<path class="st1" d="M76.2,10.8L76.2,10.8c0.2-0.1,0.3-0.1,0.5-0.1c0.1,0,0.2-0.1,0.3-0.1c0.3-0.1,0.6-0.1,0.9,0l0,0
					c-0.1,0.1-0.3,0.1-0.5,0.1c-0.2,0-0.4,0.1-0.6,0.2c-0.1,0.1-0.2,0.1-0.3,0C76.3,10.9,76.2,10.9,76.2,10.8z"/>
				<path class="st1" d="M66.4,3.2C66,3,65.6,3.1,65.2,2.9c-0.2,0-0.3,0.2-0.4,0.4c-0.1,0.1-0.1,0.2-0.3,0.2c-0.4-0.1-0.9,0-1.2-0.2
					c-0.1-0.1-0.2-0.2-0.2-0.3l0,0h0.1c0.4,0.3,1,0.3,1.4-0.1c0.2,0,0.3-0.1,0.4-0.1C65.5,2.9,66,2.9,66.4,3.2
					C66.5,3.2,66.5,3.2,66.4,3.2C66.5,3.2,66.4,3.2,66.4,3.2z"/>
				<path class="st1" d="M66.4,3.2L66.4,3.2c0.3-0.1,0.6,0,0.9,0c0.3,0.1,0.7,0,1,0h0.1c0.5-0.1,0.8,0.3,1.2,0.4h-0.1
					c-0.2-0.1-0.4-0.1-0.6-0.3c0,0-0.1-0.1-0.2-0.1c-0.4,0.1-0.8,0-1.1,0.1c-0.1,0.1-0.3,0-0.4,0s-0.2,0.1-0.4,0l0,0
					C66.7,3.2,66.6,3.3,66.4,3.2L66.4,3.2z"/>
				<path class="st1" d="M69.5,3.6L69.5,3.6c0.1,0,0.1,0,0.2,0.1c0.1,0.1,0.1,0.2,0.2,0.2c0.3,0.1,0.4,0.3,0.4,0.6
					c0,0.1,0,0.1,0.1,0.2c0.4,0.2,0.1,0.3,0,0.5c0,0,0,0-0.1,0c0-0.3-0.2-0.6-0.1-0.9c0-0.1,0-0.2-0.1-0.2
					C69.7,4.1,69.7,3.9,69.5,3.6z"/>
				<path class="st1" d="M70.3,5.2L70.3,5.2c0,0.1,0,0.2,0,0.3s-0.1,0.2-0.1,0.3C70.2,5.7,70.2,5.4,70.3,5.2z"/>
				<path class="st1" d="M69.9,3.9c-0.1,0-0.2-0.1-0.2-0.2C69.8,3.7,69.8,3.8,69.9,3.9z"/>
				<path class="st1" d="M61.3,2.7C61.3,2.6,61.3,2.6,61.3,2.7c0-0.1,0.1-0.1,0.1-0.1c0.5,0.3,1,0.1,1.5,0.1C63,2.8,63.1,2.9,63.2,3
					l0,0C63.1,3.1,63,3,63,3c-0.1-0.1-0.2-0.1-0.3,0c-0.2,0.2-0.5,0.2-0.8,0c-0.2-0.1-0.3-0.2-0.5-0.2L61.3,2.7z"/>
				<path class="st1" d="M64.2,8.5c0.1,0,0.1,0,0.2-0.1c0.3,0.2,0.7,0.2,1.1,0.2c0.2,0,0.3-0.1,0.3-0.3c0,0,0,0,0-0.1
					c0-0.2-0.1-0.4,0.1-0.5c0.2-0.1,0.3,0.1,0.5,0.2c0.2,0.2,0.5,0.4,0.7,0.7c0,0,0.1,0,0.1,0.1c0,0-0.1,0-0.1,0.1c0,0,0,0-0.1-0.1
					c-0.1,0-0.1-0.1-0.2-0.1c-0.3-0.1-0.4-0.1-0.5,0.2C66.3,9,66.2,9,66,9c-0.4-0.1-0.9-0.2-1.3-0.3C64.3,8.6,64.3,8.6,64.2,8.5z"/>
				<path class="st1" d="M64.4,8.7c0.4,0.1,0.8,0.1,1.2,0.2C65.8,9,66,8.9,66,8.7c0.1-0.4,0.2-0.4,0.5-0.2c0.1,0.1,0.2,0.1,0.2,0.2
					C66.3,8.6,66.3,8.6,66,9c0,0.1-0.1,0.1-0.2,0.1C65.4,9,64.9,8.9,64.4,8.7z"/>
				<path class="st1" d="M83.5,5c0.1,0,0.1,0,0.2,0c0.2,0,0.4,0,0.3,0.3c0,0.1,0,0.1,0.1,0.2l0,0v0.1c-0.2,0.1-0.3,0-0.4-0.1
					c-0.3-0.3-0.6-0.2-0.9-0.2c-0.2,0-0.3,0-0.5,0c-0.2,0-0.4-0.1-0.3-0.4c0-0.1,0-0.1-0.1-0.2c-0.1,0-0.1,0-0.2-0.1
					c-0.3,0-0.6,0-0.8-0.3l0,0c-0.4,0-0.7-0.3-1.1-0.2c-0.2,0.1-0.4,0.1-0.6,0.2c-0.1,0.1-0.3,0.1-0.4,0c-0.3-0.2-0.5-0.2-0.8,0.1
					c-0.2,0.2-0.4,0.3-0.6,0.5c0,0,0,0-0.1,0c0.2-0.2,0.4-0.4,0.6-0.7c0.2-0.2,0.5-0.2,0.7,0c0.2,0.1,0.3,0.1,0.5,0
					c0.3-0.1,0.6-0.1,0.8-0.3c0.3,0.1,0.5,0.3,0.8,0.2c0.1,0,0.2,0.1,0.2,0.2c0,0.1,0.1,0.2,0.2,0.2l0,0c0.2,0.1,0.4,0,0.7,0
					s0.3,0,0.3,0.3c0,0.1,0,0.2,0.1,0.2C82.8,5.2,83.2,5,83.5,5z"/>
				<path class="st1" d="M67,8.7C66.9,8.7,66.9,8.7,67,8.7c-0.1-0.1-0.1-0.1-0.1-0.1l0,0c0.2-0.1,0.3-0.2,0.1-0.4
					c-0.2-0.1-0.2-0.3-0.3-0.5c0-0.1-0.1-0.1-0.1-0.2c0-0.1,0.1-0.1,0.2,0c0.1,0,0.1,0.1,0.2,0s0-0.2,0-0.2
					c-0.3-0.2-0.3-0.6-0.7-0.8c-0.1,0-0.3-0.2-0.2-0.4c0.2,0,0.4,0,0.6,0.1C67,6.3,67.3,6.1,67.6,6c0.1,0,0.1-0.2,0.2-0.3
					c0.1-0.1,0.2-0.2,0.3,0c0.1,0.1,0.1,0.2,0.3,0.1c0.1,0,0.2-0.1,0.4-0.1c0.1,0,0.1,0,0.1-0.1s0-0.1-0.1-0.2
					c-0.1,0-0.2-0.1-0.2-0.1c-0.1-0.1-0.1-0.2-0.1-0.3s0.1-0.1,0.2-0.1c0.2,0,0.4-0.1,0.5-0.2c0.1-0.1,0.1-0.2,0-0.2h-0.1
					c-0.2,0-0.3-0.2-0.4-0.4c0-0.1-0.1-0.2-0.1-0.3s0-0.1-0.1-0.2c0,0-0.1-0.1,0-0.2c0.1-0.1,0.2-0.1,0.3,0l0.1,0.1
					c0.1,0.3,0.2,0.6,0.6,0.8c0.1,0.1,0.2,0.2,0.1,0.4c-0.2,0.2-0.2,0.4-0.2,0.6c0,0.5-0.1,0.7-0.6,0.7c-0.1,0-0.2,0.1-0.4,0.1
					c-0.2,0.1-0.5,0.1-0.7,0.1c0.2,0.1,0.3,0.3,0.2,0.5c0,0.2,0,0.3,0.2,0.4c0.3,0.3,0.2,0.7,0.2,1c0,0.2-0.4,0.4-0.6,0.2
					c-0.1-0.1-0.1-0.1-0.2-0.1s-0.1,0.1-0.1,0.2C67.3,8.6,67.3,8.8,67,8.7L67,8.7z"/>
				<path class="st1" d="M67,8.7c0.1,0,0.2-0.1,0.2-0.3c0.1-0.3,0.3-0.4,0.5-0.2c0.2,0.2,0.4,0.1,0.5-0.2c0-0.3,0-0.6-0.2-0.9
					c-0.1-0.1-0.2-0.3-0.1-0.4c0-0.1,0-0.2-0.2-0.2c-0.1,0-0.3,0-0.3-0.2s0.2-0.4,0.4-0.3c0.4,0.2,0.8-0.1,1.2-0.1
					c0.3,0,0.4-0.3,0.3-0.5c-0.1-0.3,0-0.5,0.2-0.7c0.1-0.2,0.1-0.3-0.1-0.4c-0.3-0.2-0.4-0.4-0.5-0.8c0.1,0,0.1,0,0.2,0
					c0.1,0.2,0.4,0.4,0.6,0.6c0.1,0.1,0.2,0.2,0.2,0.4c-0.1,0.4-0.1,0.7-0.2,1.1C69.6,6,69.5,6,69.1,6.1c-0.3,0.1-0.8,0.1-0.9,0.5
					c-0.1,0.2-0.1,0.3,0.1,0.4c0.1,0.1,0.2,0.2,0.2,0.4c0,0.1,0,0.3,0,0.4c0,0.4-0.1,0.6-0.5,0.6c-0.2,0-0.4,0.1-0.6,0.2
					C67.3,8.8,67.2,8.8,67,8.7C67.1,8.7,67,8.7,67,8.7z"/>
				<path class="st1" d="M68.6,8.1c0.1,0.2,0.1,0.4-0.2,0.5c-0.1,0.1-0.1,0.2,0,0.2c0.1,0.1,0.1,0.2,0,0.3s-0.2,0-0.3-0.1
					c-0.2-0.1-0.4-0.3-0.7-0.2c0.2-0.1,0.4-0.2,0.6-0.3C68.3,8.5,68.6,8.5,68.6,8.1z"/>
				<path class="st1" d="M67.1,8.7c0.3-0.2,0.5-0.5,0.9-0.3c0.2,0.1,0.4-0.2,0.3-0.4c0-0.2,0-0.3,0-0.5c0-0.1-0.1-0.2,0-0.2
					c0.1,0.2,0,0.5,0.1,0.7c0,0.4-0.1,0.5-0.5,0.6c-0.2,0-0.4,0.1-0.5,0.2C67.3,8.8,67.2,8.8,67.1,8.7z"/>
				<path class="st2" d="M64,7.6c0,0.1,0.1,0.2,0.1,0.3c0,0.2,0,0.3-0.2,0.3c-0.5,0.1-1,0.2-1.5-0.1c-0.1-0.1-0.1-0.2,0-0.3h0.1
					C62.8,8.2,63.3,8,63.7,8c0.1,0,0.2-0.1,0.1-0.3c0-0.1-0.1-0.2,0-0.3c0,0,0,0,0.1,0C63.9,7.4,64,7.5,64,7.6z"/>
				<path class="st1" d="M64,7.6l-0.1-0.1c0-0.1-0.2-0.1,0-0.2C63.9,7.3,64,7.4,64,7.6L64,7.6z"/>
				<path class="st16" d="M62.5,7.8c0,0.1-0.1,0.2-0.1,0.3c0,0,0,0-0.1,0c0,0,0-0.1-0.1-0.1c-0.1,0-0.1-0.1,0-0.2
					C62.3,7.8,62.3,7.8,62.5,7.8C62.4,7.8,62.5,7.8,62.5,7.8z"/>
				<path class="st17" d="M62.3,7.9c0,0.1,0,0.1,0,0.2c0,0,0,0-0.1,0.1c-0.1,0-0.2,0-0.3,0c-0.1,0-0.2,0-0.2,0s0,0,0-0.1
					c0.1,0,0.2,0,0.3-0.1C62.1,7.9,62.2,7.8,62.3,7.9z"/>
				<path class="st6" d="M61.9,8.1c0.1,0,0.2,0,0.3,0C62.1,8.2,62,8.2,61.9,8.1z"/>
				<path class="st1" d="M66.9,8.6L66.9,8.6c-0.2-0.1-0.5-0.4-0.7-0.6c-0.1-0.1-0.2-0.2-0.4-0.1c-0.1,0.1-0.1,0.2,0,0.3
					c0.2,0.2,0,0.4,0,0.5c-0.1,0.2-0.2,0.1-0.4,0c-0.2-0.1-0.5-0.1-0.7-0.2c-0.2,0-0.3-0.1-0.4-0.2V8.2c0.3,0.1,0.5,0.2,0.8,0.2
					c0.2,0,0.3-0.1,0.3-0.3c0-0.3,0-0.6-0.1-0.9C66,7.7,66.5,8.1,66.9,8.6z"/>
				<path class="st18" d="M62.5,7.8C62.5,7.8,62.4,7.8,62.5,7.8c-0.1-0.2,0-0.3,0.1-0.4c0.1-0.2,0.3-0.3,0.5-0.5
					c0.1-0.1,0.3-0.2,0.4,0c0.1,0,0.1,0.1,0.2,0.1c0.1,0,0.1,0.1,0.2,0.1c0,0.1,0,0.2,0,0.2s0,0-0.1,0c-0.4-0.2-0.4-0.2-0.7,0.1
					C63,7.4,63,7.5,63,7.5C62.8,7.8,62.7,7.9,62.5,7.8C62.5,7.9,62.5,7.8,62.5,7.8z"/>
				<path class="st1" d="M68.3,7.3c0,0.1,0,0.2,0,0.2c-0.1-0.1-0.1-0.2-0.2-0.3c-0.2-0.3-0.2-0.7,0.1-0.9c0.2-0.1,0.4-0.2,0.6-0.3
					c0.4-0.1,0.6-0.3,0.7-0.7c0-0.2,0-0.4,0.1-0.6c0.1-0.1,0-0.3-0.1-0.4c-0.2-0.2-0.5-0.5-0.7-0.7c0,0,0,0-0.1-0.1
					c-0.1-0.1-0.2-0.1-0.3-0.1l0,0c0,0,0,0,0.1-0.1c0.2-0.1,0.3,0,0.4,0.1s0.2,0.3,0.4,0.3c0.1,0,0.1,0.1,0.1,0.1
					c0,0.1,0.1,0.3,0.3,0.3c0.1,0.1,0.2,0.2,0.1,0.3c-0.1,0.3-0.2,0.6,0,0.9c0.1,0.2,0.2,0.3,0.1,0.6c-0.1,0.1,0,0.3,0,0.5
					c0,0.1,0,0.2-0.1,0.3c-0.1,0.1-0.2,0-0.3-0.1c-0.2-0.2-0.3-0.4-0.6-0.4c-0.2,0-0.8,0.2-0.9,0.4c-0.1,0.1-0.1,0.3,0.1,0.4
					C68.2,7.1,68.3,7.2,68.3,7.3L68.3,7.3z"/>
				<path class="st1" d="M68.3,7.3c-0.4-0.3-0.4-0.7,0.1-0.9c0.5-0.3,0.7-0.2,1.1,0.2c0.1,0.1,0.1,0.2,0.3,0.1
					c0.1,0,0.1-0.2,0.1-0.3c0-0.4,0-0.8-0.2-1.2c-0.1-0.2,0-0.4,0.1-0.6c0-0.1,0.1-0.3,0-0.4c0.2,0,0.3,0,0.2,0.3l0,0
					c-0.1,0.2-0.1,0.4,0,0.6c0.1,0.2,0.2,0.4,0.1,0.6c0,0.1,0,0.2,0,0.3c-0.1,0.1-0.1,0.2,0,0.3c0,0.1,0.1,0.3-0.1,0.4
					c-0.2,0.1-0.3,0-0.4-0.2c-0.1-0.2-0.2-0.3-0.5-0.4c-0.2,0-0.7,0.2-0.8,0.4c-0.1,0.1-0.1,0.2,0,0.3C68.3,7.1,68.3,7.2,68.3,7.3z"
					/>
				<path class="st1" d="M64.8,3.3c0.5-0.1,1.1-0.2,1.6,0.1c0.1,0.1,0.3,0,0.4,0.1c0.5,0.2,1,0.1,1.5,0h0.1l0,0
					c-0.1,0.3-0.4,0.3-0.6,0.4c-0.1,0-0.2,0-0.2,0c-0.4-0.1-0.8-0.2-1.3-0.2c-0.1,0-0.2,0-0.3-0.2c0-0.1-0.1-0.1-0.3-0.1
					c-0.3,0.1-0.7,0-1,0.1C64.6,3.4,64.8,3.3,64.8,3.3z"/>
				<path class="st1" d="M69.9,4.6c0-0.1,0-0.3-0.2-0.3c-0.3-0.2-0.5-0.5-0.7-0.7c-0.1-0.1-0.3-0.2-0.5-0.2c0.1,0,0.2-0.1,0.2,0
					c0.3,0.2,0.7,0.3,0.8,0.7c0,0.1,0.1,0.2,0.2,0.2C70,4.3,70,4.4,69.9,4.6z"/>
				<path class="st1" d="M64.8,3.3c0,0.1-0.1,0.1-0.1,0.2l0,0c-0.5,0.2-1.2,0.1-1.4-0.3l0,0c0.3,0.2,0.7,0.1,1.1,0.2
					C64.5,3.4,64.6,3.3,64.8,3.3L64.8,3.3z"/>
				<path class="st1" d="M70,5.9c0-0.2,0-0.4-0.2-0.6c-0.2-0.2-0.1-0.4,0.1-0.7c0,0.2,0,0.4,0.1,0.6C70.1,5.4,70.1,5.6,70,5.9z"/>
				<path class="st1" d="M66.8,3.3c0.1,0,0.3,0,0.4,0.1C67.1,3.4,67,3.3,66.8,3.3z"/>
				<path class="st1" d="M66.4,3.2c0.1,0,0.3,0,0.4,0.1C66.7,3.3,66.6,3.3,66.4,3.2z"/>
				<path class="st1" d="M61.3,2.7c0.1,0,0.1,0,0.2,0.1c0,0,0.2,0,0.1,0.1c-0.2,0-0.2,0.1-0.2,0.3c0.1,0.2-0.1,0.3-0.3,0.3
					c-0.2,0-0.5-0.1-0.7-0.2c0.1,0.1,0.4,0,0.4,0.3l0,0c-0.3-0.1-0.6-0.2-1-0.3c-0.2-0.1-0.4-0.1-0.5,0.1c-0.1,0.1-0.2,0.1-0.3,0.2
					c-0.1,0-0.2,0-0.3,0.1c-0.4,0-0.5,0-0.5-0.4c0-0.1,0.1-0.2,0.2-0.2c0.4,0,0.6-0.2,0.9-0.4c0.3-0.1,0.5-0.1,0.7,0.2
					c0,0,0,0.1,0.1,0.1c0.3,0.1,0.6,0.1,0.9,0.3h0.1V3.2l0,0c-0.1-0.3-0.4-0.3-0.3-0.5C60.9,2.5,61.1,2.7,61.3,2.7z"/>
				<path class="st1" d="M60.2,2.6c0.1,0,0.2,0.1,0.2,0.2c0,0.1-0.1,0.1-0.2,0.1c-0.1,0-0.2-0.1-0.2-0.2C60.1,2.7,60.1,2.6,60.2,2.6
					z"/>
				<path class="st1" d="M68.3,5.4c0,0.1-0.1,0.2-0.2,0.1c-0.2-0.3-0.5-0.4-0.8-0.3c-0.1,0-0.2,0-0.3-0.1c-0.8-0.5-1.7-0.5-2.6-0.3
					c-0.1,0-0.1,0-0.1,0.1c0,0.2-0.1,0.2-0.2,0.1c-0.2-0.3-0.5-0.2-0.7-0.2c-0.2,0.2-0.3-0.1-0.5-0.2c-0.1,0-0.1-0.1-0.2-0.2
					c0,0-0.1,0-0.2-0.1c-0.3-0.2-0.3-0.2-0.1-0.5c0.1-0.1,0.2-0.2,0.2-0.4c0-0.1,0.1-0.1,0.1-0.1c0.2-0.1,0.3-0.1,0.4,0
					c0.4,0.2,0.8,0.4,1.2,0.3c0.3-0.1,0.7-0.1,1-0.1c0.2,0,0.4,0,0.6,0.1c0.3,0.1,0.6,0.2,0.9,0.1c0.3-0.1,0.6,0,0.8,0
					c0.1,0,0.1,0.1,0.2,0.1c0.3,0.1,0.6,0.4,0.9,0.5c0.2,0.1,0.1,0.3-0.1,0.4h-0.1c-0.2,0.1-0.3,0.1-0.3,0.4
					C68.4,5.3,68.3,5.4,68.3,5.4z"/>
				<path class="st1" d="M67.8,5.7c-0.1,0.3-0.4,0.4-0.6,0.6c0,0.1-0.1,0.1-0.2,0c-0.3-0.2-0.6-0.2-0.9-0.3C66,6,66,6,65.9,6
					s-0.1-0.1-0.2,0c0,0.1,0,0.2,0.1,0.2c0.3,0.2,0.5,0.6,0.8,0.9c0.1,0.1,0.2,0.2,0.2,0.4c0,0.1,0,0.2,0.1,0.2
					c-0.2-0.3-0.5-0.5-0.7-0.9c-0.1-0.2-0.4-0.3-0.5-0.5c-0.1-0.2-0.2-0.4-0.4-0.6c-0.1-0.2,0-0.2,0.2-0.2c0.2,0,0.4,0.1,0.6,0.3
					C66.4,6.1,66.7,6,67,5.9c0.2-0.1,0.3-0.1,0.5,0C67.7,6,67.8,5.9,67.8,5.7L67.8,5.7C67.7,5.6,67.7,5.6,67.8,5.7
					C67.7,5.6,67.7,5.6,67.8,5.7L67.8,5.7z"/>
				<path class="st1" d="M67.8,5.6C67.7,5.6,67.7,5.6,67.8,5.6c0-0.1,0.1-0.2,0.3-0.1c0.1,0.1,0.1,0.2,0.2,0.1
					c0.1-0.1,0.1-0.2,0-0.3c-0.1-0.4-0.1-0.5,0.3-0.6c0.1,0,0.1,0,0.1-0.1s0-0.1-0.1-0.2c-0.3-0.1-0.5-0.3-0.8-0.5
					c0.2-0.1,0.4-0.2,0.5-0.4c0-0.1,0.1-0.1,0.2,0c0,0,0.1,0,0.1,0.1c0.1,0.1,0,0.2,0,0.3c-0.1,0.2,0,0.4,0.2,0.4h0.1
					c0.1,0,0.2,0,0.2,0.1s0,0.2-0.1,0.2c-0.1,0.1-0.3,0.2-0.5,0.1c-0.1,0-0.2-0.1-0.3,0.1c0,0.1,0,0.3,0.1,0.4
					c0.3,0.2,0.3,0.2,0,0.4c-0.1,0-0.1,0.1-0.2,0.1C67.9,5.8,67.8,5.7,67.8,5.6C68,5.6,67.9,5.6,67.8,5.6z"/>
				<path class="st1" d="M63.7,6.1c0.2,0.1,0.4,0.2,0.6,0.2c0.2,0,0.3,0.1,0.4,0.3c0.1,0.1,0.2,0.2,0.1,0.3c-0.1,0.1-0.2,0.1-0.3,0
					c-0.3-0.3-0.7-0.3-1-0.4l-0.1-0.1c0,0-0.1-0.1-0.1-0.2c0-0.1,0.1-0.1,0.1-0.1C63.5,6.1,63.6,6.1,63.7,6.1z"/>
				<path class="st1" d="M63.7,6.1h-0.1c-0.3,0-0.3,0.1-0.1,0.3c0,0,0,0-0.1,0c-0.1,0-0.1-0.1-0.2-0.1C63,6.1,62.7,6,62.4,6
					c-0.1,0-0.1,0-0.2,0l0,0c-0.1-0.1-0.3,0-0.5-0.1l0,0c0,0,0,0,0-0.1c0.4,0,0.7,0.1,1.1,0c0.4-0.1,0.9-0.2,1.3-0.2
					c0.1,0,0.2,0,0.2-0.1c0.1-0.1,0-0.1-0.1-0.1l0,0l0,0c0.2,0,0.4,0,0.6,0.1c0.1,0,0.1,0,0.1,0.1s-0.1,0.1-0.1,0.1
					c-0.4,0.1-0.7,0.2-1.1,0.2c-0.1,0-0.1,0-0.2,0s-0.2,0-0.2,0.1s0.1,0.1,0.1,0.1C63.6,6.1,63.7,6.1,63.7,6.1z"/>
				<path class="st1" d="M62.9,4.5c0.2,0,0.2,0.3,0.4,0.3c0.3,0.2,0.6,0.3,0.9,0.5l0,0l0,0C63.8,5.1,63.3,5,63,4.6
					C62.9,4.6,62.9,4.6,62.9,4.5L62.9,4.5z"/>
				<path class="st1" d="M67.6,5.6l-0.1-0.1l0,0C67.7,5.5,67.6,5.6,67.6,5.6L67.6,5.6z"/>
				<path class="st19" d="M62.1,7.1c0.1-0.3,0-0.5-0.3-0.5c-0.4,0-0.9-0.1-1.3-0.1c0-0.1,0.1-0.1,0.2,0c0.4,0,0.7,0,1.1,0.1
					c0.2,0,0.4,0.2,0.5,0.3c0.2,0.1,0.3-0.2,0.6-0.1c0.2,0.1,0.3,0.1,0.4,0.2c-0.1,0.1-0.2,0.1-0.3,0.1c-0.2,0-0.4,0-0.4,0.3
					c0,0.1-0.1,0.2-0.1,0.2c-0.1,0.1-0.1,0.1-0.3,0.1c-0.1,0-0.1,0-0.2,0c-0.2,0-0.3-0.1-0.1-0.3C62,7.2,62,7.1,62.1,7.1z"/>
				<path class="st7" d="M62.5,7.4c0.1-0.5,0.5-0.6,0.9-0.5c0,0,0,0,0.1,0l0,0c-0.1,0-0.2,0-0.2,0c-0.2,0-0.4,0.2-0.5,0.4
					c0,0,0,0-0.1,0.1C62.6,7.4,62.6,7.5,62.5,7.4C62.4,7.4,62.4,7.4,62.5,7.4z"/>
				<path class="st1" d="M62.2,6c0.1,0,0.2,0,0.3,0c0.3-0.1,0.6,0,0.8,0.3C63,6.2,62.6,6.2,62.2,6z"/>
				<path class="st1" d="M61.8,6c0.2,0,0.3,0,0.5,0.1C62.1,6,61.9,6.1,61.8,6z"/>
				<path class="st20" d="M63.2,6.9c0.1,0,0.2,0,0.3,0l0,0c-0.1,0-0.3,0.1-0.4,0.1C63,7,63,7.2,62.8,7.2C62.7,7,63,7,63.2,6.9z"/>
				<path class="st21" d="M61.5,7.1c-0.1-0.1-0.1-0.2-0.3-0.2c0-0.1,0-0.1,0.1-0.2c0.1-0.1,0.2,0,0.2-0.1l0,0
					c0.2-0.1,0.4-0.1,0.4,0.2c0,0.1,0,0.2-0.1,0.3C61.7,7.2,61.6,7.3,61.5,7.1z"/>
				<path class="st22" d="M60.5,6.7c0.1,0,0.3,0,0.2,0.1C60.7,7,60.5,7,60.3,7c-0.1,0-0.2-0.1-0.2-0.2C60.3,6.8,60.4,6.7,60.5,6.7z"
					/>
				<path class="st23" d="M61.5,6.7c-0.1,0-0.1,0-0.2,0.1c0,0,0-0.1-0.1-0.1C61.3,6.6,61.4,6.7,61.5,6.7z"/>
				<path class="st24" d="M62.1,7.1C62,7.5,62,7.5,62.3,7.5v0.1c-0.2,0.1-0.4,0.2-0.7,0.3c-0.2,0-0.5,0.1-0.6-0.2
					c-0.1-0.1-0.2,0.1-0.3,0.1c0-0.1,0.1-0.2,0.1-0.2s0,0,0.1,0c0.1,0,0.3-0.1,0.4,0c0.2,0.1,0.3,0,0.2-0.2V7.3
					c0.2,0.1,0.3,0.1,0.5-0.1C62,7.1,62,7.1,62.1,7.1C62,7.1,62,7.1,62.1,7.1z"/>
				<path class="st13" d="M61.4,7.3c0,0.1,0.1,0.2,0.1,0.2c0.1,0.1,0.2,0.2,0.1,0.3c-0.1,0.1-0.2,0.1-0.3,0
					c-0.1-0.2-0.3-0.2-0.5-0.2c0.1-0.1,0.2-0.1,0.3-0.1C61.3,7.5,61.4,7.4,61.4,7.3C61.4,7.2,61.4,7.3,61.4,7.3z"/>
				<path class="st23" d="M62,7.1C61.9,7.2,61.9,7.2,62,7.1c-0.2,0.1-0.3,0.2-0.5,0c0.2,0.1,0.4,0.1,0.4-0.2s-0.2-0.3-0.4-0.3
					C61.9,6.6,62.1,6.7,62,7.1z"/>
				<path class="st25" d="M61.6,7.9c0.2-0.2,0.4-0.3,0.7-0.4c0.1-0.1,0.1-0.1,0.2-0.1c0,0,0,0,0,0.1s0,0.2-0.2,0.2
					c-0.1,0-0.2,0.1-0.3,0.1C61.9,7.9,61.8,7.9,61.6,7.9L61.6,7.9z"/>
				<path class="st26" d="M62.7,7.3c0.1-0.1,0.2-0.1,0.3-0.2c-0.2,0.2-0.4,0.5-0.6,0.7c0,0-0.1,0-0.1,0.1C62.2,7.9,62.1,8,62,8
					c0.1-0.1,0.2-0.2,0.3-0.3C62.4,7.5,62.6,7.5,62.7,7.3L62.7,7.3C62.7,7.3,62.7,7.2,62.7,7.3z"/>
				<path class="st27" d="M62.6,7.3c-0.1,0.2-0.2,0.3-0.4,0.4c-0.1,0-0.2,0-0.3,0.1c0.1-0.2,0.4-0.1,0.5-0.3
					C62.5,7.4,62.6,7.4,62.6,7.3z"/>
				<path class="st1" d="M62.9,4.6c0.4,0.4,0.8,0.6,1.3,0.7c0,0,0,0,0,0.1c-0.2,0-0.4-0.1-0.6-0.2c-0.1-0.1-0.3-0.1-0.4-0.1l0,0
					c-0.1,0-0.2-0.1-0.3-0.2C62.9,4.8,62.8,4.7,62.9,4.6z"/>
				<path class="st1" d="M63,5.8l0.1-0.1c0.2-0.2,0.2-0.3,0-0.5C63,5.2,63,5.1,63,5.1l0,0c0.1,0,0.1,0,0.2,0l0,0
					c0.1,0.1,0.3,0.1,0.2,0.3C63.4,5.6,63.3,5.7,63,5.8z"/>
				<path class="st1" d="M62.9,4.6c0,0.1,0,0.2,0.1,0.3C63,5,63.1,5,63,5.1l0,0c-0.1,0-0.1-0.1-0.1-0.2c0-0.3-0.2-0.4-0.6-0.4
					c-0.1,0-0.2,0-0.3,0c-0.2-0.3-0.6-0.4-0.8-0.7c-0.1-0.1-0.2-0.1-0.3-0.1c-0.1-0.1-0.2-0.2-0.4-0.2c-0.1-0.1-0.3-0.1-0.4-0.3
					c0.2-0.1,0.4-0.1,0.5,0c0.1,0,0.1,0.1,0.2,0.1c0.1,0,0.3,0.1,0.4,0C61.3,3.2,61.1,3.1,61,3c0.1-0.1,0-0.1,0-0.2s0.1,0,0.2,0
					c0.1,0,0.2,0,0.3,0.1l0,0c0,0,0.1,0,0.1,0.1c0.2,0.1,0.4,0.2,0.6,0.4c0,0.1,0.2,0.1,0.3,0c0.1-0.2,0.3-0.3,0.5-0.3
					c0,0,0,0,0.1,0.1v0.1c-0.1,0-0.2,0-0.3,0.1c-0.1,0.1-0.2,0.2-0.3,0.3C62.2,4,62.1,4,61.8,3.8c0,0-0.1,0-0.2,0
					c0.1,0.1,0.2,0.1,0.3,0.2C62,4,62,4.1,62.1,4.2c0.1,0.1,0.3,0.1,0.5,0.2C62.7,4.4,62.8,4.4,62.9,4.6L62.9,4.6z"/>
				<path class="st1" d="M75.4,9.3c-0.1-0.1-0.1-0.2,0-0.3c0-0.1,0.1-0.2,0-0.3c-0.2-0.6,0.1-1.1,0.4-1.5c0.3-0.4,0.3-0.9,0.2-1.3
					c-0.1-0.2,0-0.4,0.2-0.5c0.2-0.2,0.5-0.3,0.8-0.3s0.6-0.3,0.8-0.5c0.3-0.3,0.6-0.4,1.1-0.2c0.1,0.1,0.2,0.1,0.4,0
					c0.7-0.3,1.4-0.3,2,0.2l0,0c-0.1,0.1-0.1,0-0.2,0s-0.1,0-0.2,0c-0.5-0.3-1-0.2-1.5-0.1c-0.1,0-0.2,0.1-0.3,0.1H79
					c-0.1,0-0.1-0.1-0.2-0.1c-0.1-0.1-0.3-0.1-0.4,0c-0.2,0.3-0.5,0.4-0.7,0.6c-0.1,0.1-0.1,0.1-0.2,0.2c-0.2,0.2-0.3,0.4-0.6,0.4
					c-0.2,0-0.3,0.2-0.3,0.5c0,0.4,0,0.7-0.2,1c-0.1,0.1-0.1,0.2-0.2,0.3C76,7.7,75.9,7.9,76,8.1c0,0.1,0.1,0.2,0,0.2
					C75.7,8.7,75.7,9,75.4,9.3C75.5,9.3,75.4,9.3,75.4,9.3z"/>
				<path class="st1" d="M75.4,9.3L75.4,9.3c0.1,0,0.1,0,0.2,0c0.1,0.2,0,0.4,0,0.6c0.1-0.1,0.2-0.2,0.2-0.2c0.1,0,0.1-0.1,0.2-0.1
					c0.2,0.1,0.4,0,0.6-0.1c0.1,0,0.1-0.1,0.2-0.1s0.2-0.1,0.2,0c0.1,0,0.2,0.1,0.2,0.2s0,0.2-0.1,0.2C77,9.9,76.9,10,76.8,10
					c-0.2,0.1-0.5,0.2-0.6,0.4c-0.2,0.2-0.1,0.2,0.1,0.3c0.2,0,0.4-0.1,0.6,0.1c-0.2,0.2-0.5,0.1-0.7,0.1c-0.1-0.1-0.2-0.1-0.4-0.2
					c-0.5-0.1-0.7-0.5-0.5-0.9C75.4,9.6,75.5,9.5,75.4,9.3z"/>
				<path class="st1" d="M77.4,4.8C77.4,4.8,77.5,4.8,77.4,4.8C77.3,5,77.1,5,76.9,5c-0.3,0-0.5,0.1-0.8,0c0,0-0.1,0-0.1,0.1
					c0.1,0.3-0.3,0.6-0.1,0.9c0,0.1,0.1,0.1,0.1,0.2c-0.1,0.4-0.1,0.9-0.4,1.2V7.3c0.1-0.2,0.1-0.4,0-0.6c-0.1-0.1-0.1-0.2-0.2-0.3
					s0-0.2,0.1-0.3c0.4-0.2,0.4-0.6,0.4-0.9c0-0.3,0.1-0.4,0.5-0.3C76.7,5,77.1,5,77.4,4.8C77.3,4.8,77.4,4.8,77.4,4.8z"/>
				<path class="st1" d="M81.8,4.6c0.3,0,0.4,0,0.4,0.4c0,0.1,0.1,0.1,0.2,0.2c0.2,0,0.4,0.1,0.5,0c0.3-0.1,0.5-0.1,0.8-0.1
					c0.1,0,0.2,0,0.2,0.1c-0.1,0.3,0.2,0.2,0.3,0.3c0.2,0,0.3,0,0.5,0.1c0.1,0,0.2,0.1,0.3,0.1v0.1c-0.1,0.1-0.1,0.1-0.2,0
					c-0.2-0.1-0.4-0.1-0.6-0.1c-0.6-0.1-1.2-0.3-1.9-0.3c-0.2,0-0.4-0.1-0.3-0.3C81.9,4.8,81.8,4.8,81.8,4.6L81.8,4.6z"/>
				<path class="st1" d="M81.8,4.7c0.1,0,0.2,0.1,0.2,0.2c0,0.3,0.2,0.3,0.4,0.3c0.6,0,1.2,0.2,1.8,0.3v0.1c0,0,0,0-0.1,0.1H84
					c-0.1,0-0.2,0-0.3-0.1c-0.6,0-1.1-0.3-1.7-0.3c-0.1,0-0.3-0.1-0.3-0.2c0-0.3-0.2-0.3-0.4-0.4c-0.1,0-0.1,0-0.1-0.1l0,0
					C81.4,4.7,81.6,4.7,81.8,4.7z"/>
				<path class="st1" d="M77,10.7c-0.2,0.1-0.5,0-0.7,0c-0.2-0.1-0.3-0.2-0.1-0.4c0.1-0.1,0.1-0.3,0.3-0.3c0.1,0.1,0,0.2-0.1,0.3
					c-0.1,0.2,0,0.2,0.1,0.2c0.2,0,0.3-0.1,0.5-0.1c0.5,0.1,0.9-0.1,1.2-0.5h0.1c0,0.2,0.2,0.3,0.4,0.3c0.2,0,0.4,0.1,0.6,0.2
					c-0.2,0.2-0.7,0.2-0.9,0.1c-0.2-0.2-0.4-0.2-0.6,0C77.5,10.7,77.2,10.6,77,10.7z"/>
				<path class="st1" d="M79.4,10.5c-0.3-0.2-0.7-0.3-1-0.5c-0.1-0.3,0.1-0.4,0.2-0.6c0.1-0.1,0.2-0.1,0.3-0.2
					c0.2-0.1,0.3-0.2,0.5-0.1v0.1c-0.1,0.1-0.2,0.1-0.4,0.2c-0.1,0-0.2,0.1-0.2,0.2c0,0.2,0.2,0.2,0.3,0.3c0.1,0.1,0.3,0.1,0.3,0.3
					C79.5,10.4,79.5,10.4,79.4,10.5L79.4,10.5z"/>
				<path class="st1" d="M78.7,9.5c-0.1,0.1-0.3,0.3-0.3,0.5c-0.1,0-0.1,0-0.2-0.1c-0.1-0.1-0.1-0.2,0-0.3
					C78.4,9.5,78.5,9.4,78.7,9.5z"/>
				<path class="st1" d="M78.4,9.7c0,0.1-0.1,0.1-0.1,0.2c0,0,0,0,0,0.1l0,0c-0.1,0-0.1-0.1-0.1-0.2S78.2,9.7,78.4,9.7L78.4,9.7z"/>
				<path class="st1" d="M80.8,12.3c0.1,0,0.3,0,0.3,0.1c0.2,0.2,0.5,0.2,0.8,0.2c0.2,0,0.4,0,0.6,0.1c0.1,0.1,0.3,0.1,0.5,0.1
					c0.2,0,0.4,0,0.5,0.1c0.1,0.1,0,0.2-0.1,0.3c-0.1,0.2-0.3,0.1-0.5,0.1c-0.5-0.1-0.9-0.3-1.4-0.5c-0.2-0.1-0.4-0.1-0.7-0.1
					c-0.1,0-0.3,0-0.4-0.1c-0.1,0-0.1-0.1-0.1-0.2s0.1-0.1,0.2-0.1C80.6,12.3,80.7,12.3,80.8,12.3z"/>
				<path class="st1" d="M84.8,12.4c-0.2-0.1-0.4-0.2-0.7-0.1c-0.2,0.1-0.3,0-0.2-0.2c0-0.3-0.1-0.4-0.4-0.4c-0.1,0-0.2-0.1-0.3-0.1
					l-0.1-0.1c-0.2-0.1-0.2,0.1-0.3,0.1c-0.2,0-0.5,0-0.4-0.3c0.1-0.2,0.3-0.1,0.5-0.1c0.3,0.1,0.6,0.2,1,0.3c0.1,0,0.2,0.2,0.3,0.3
					c0,0.2,0.2,0.3,0.3,0.3s0.2,0,0.2,0.1c0.2,0.1,0.2,0,0.3-0.1c0.1-0.2,0.1-0.4,0.3-0.5h0.1c0,0.1,0,0.2,0,0.3
					C85.4,12.2,85.1,12.4,84.8,12.4z"/>
				<path class="st1" d="M82.9,11.3c-0.2,0-0.4,0-0.6,0c0,0-0.1,0-0.1-0.1v-0.1c0-0.1,0.1-0.1,0.1-0.1c0.2-0.1,0.3,0,0.5,0h0.1
					c0.1,0.1,0.2,0.1,0.3,0.1c0.1,0,0.3,0,0.4,0.1v0.1c0,0,0,0.1-0.1,0.1c-0.1,0.1-0.3,0-0.4,0C83.1,11.3,83,11.2,82.9,11.3z"/>
				<path class="st1" d="M61.6,2.8l-0.1-0.1c0.2,0,0.3,0.1,0.4,0.2c0.2,0.1,0.5,0.2,0.7,0c0.1-0.1,0.3-0.1,0.4,0
					c0,0,0.1,0.1,0.2,0.1c0,0.1,0.1,0.1,0.1,0.2l0,0c0,0-0.1,0.1-0.1,0c-0.2-0.2-0.4-0.1-0.7,0c-0.2,0.1-0.6,0-0.8-0.2
					C61.6,2.9,61.6,2.9,61.6,2.8L61.6,2.8z"/>
				<path class="st1" d="M85,7.5c-0.1-0.1-0.2-0.1-0.3,0c-0.3,0.1-0.5,0-0.7-0.1c0-0.1,0.1-0.1,0.2-0.1c0.3,0.1,0.6,0,0.9-0.1
					c0.2-0.1,0.4-0.4,0.7-0.5c0.1-0.1-0.2-0.6-0.3-0.6s-0.2,0-0.2-0.1h-0.1c-0.1,0-0.2-0.1-0.3-0.1c0,0,0,0,0-0.1V5.7
					c0.4,0.1,0.7,0.2,1.2,0.1c0.1,0,0.2,0.1,0.1,0.3c-0.2,0.2-0.2,0.3,0,0.5c0.1,0.1,0,0.6-0.2,0.7C85.7,7.6,85.4,7.6,85,7.5z"/>
				<path class="st1" d="M81.8,8.1c0.2,0,0.4,0,0.6,0.1c0.1-0.1,0.3,0,0.4,0c0.1,0,0.2,0,0.3,0.2l0,0c0.2,0.2,0.4,0.1,0.6,0
					c0.1-0.1,0.2-0.1,0.3-0.1s0.2,0.1,0.1,0.2c-0.1,0.2,0,0.3,0.2,0.3c0.2,0,0.4,0.1,0.5,0.3c0.1,0.2,0.3,0.3,0.4,0.5
					c0,0,0,0.1,0.1,0.1c0.1,0,0.1,0.1,0.2,0.2c0,0.1,0,0.1,0.1,0.2c0.1,0.2,0,0.4,0.1,0.6c0,0,0,0.1,0.1,0.1c0.1,0.3,0,0.5-0.2,0.6
					c-0.1-0.1-0.1-0.2,0-0.2c0.1-0.2,0.1-0.3,0-0.5c0-0.1-0.1-0.1-0.1-0.2c0.1-0.3,0-0.5-0.2-0.7c-0.2-0.2-0.4-0.4-0.6-0.6l-0.1-0.1
					c-0.4-0.1-0.8-0.4-1.2-0.4c-0.4-0.1-0.8-0.3-1.2-0.4C81.9,8.2,81.8,8.2,81.8,8.1L81.8,8.1z"/>
				<path class="st1" d="M66.7,7.5c-0.4-0.3-0.6-0.8-1-1c-0.1-0.1-0.1-0.2-0.2-0.3s-0.1-0.3,0-0.4c0.1-0.1,0.2,0,0.4,0.1
					C66,6,66,6,66.1,6.1c0.2,0.1,0.3,0.4,0.6,0.4c0.1,0,0.1,0.1,0.1,0.2c0,0.2,0.1,0.4,0.3,0.5c0.2,0.1,0.2,0.5,0,0.6
					c-0.1,0.1-0.2,0.1-0.2,0C66.8,7.6,66.7,7.6,66.7,7.5z"/>
				<path class="st1" d="M63,3.2L63,3.2C63,3.1,63.1,3.1,63,3.2c0.4,0.2,0.7,0.3,1,0.3c0.3,0,0.5,0.1,0.7-0.1l0,0
					c0.4-0.2,0.8,0,1.2-0.2c0.1,0,0.2,0,0.2,0.1c0.1,0.2,0.3,0.2,0.5,0.2c0.3,0,0.5,0,0.7,0.1c0.4,0.2,0.8,0.1,1.1-0.2
					c0.1,0,0.3,0,0.3,0.1c-0.1,0-0.2-0.1-0.3,0C68.2,3.7,68,4,67.6,3.9c-0.3-0.2-0.6-0.2-0.9-0.1c-0.3,0-0.7,0-1-0.2
					c-0.1-0.1-0.2-0.1-0.3,0c-0.4,0.1-0.9,0-1.3,0.3H64C64,3.9,63.2,3.5,63,3.2z"/>
				<path class="st1" d="M67.8,5.6C67.9,5.5,68,5.5,68,5.7c0,0.1,0.1,0.2,0.2,0.2c0.2,0,0.3-0.1,0.4-0.2c0.1-0.1,0-0.2-0.1-0.2
					c-0.1-0.1-0.2-0.3-0.1-0.4C68.5,4.9,68.6,5,68.8,5C68.9,5,69,5,69,4.9c0.1,0,0.2-0.1,0.1-0.2c0-0.1-0.1-0.1-0.2-0.1
					c-0.1,0-0.2-0.1-0.3-0.1c-0.1-0.1-0.3-0.2-0.1-0.4c0.1-0.1,0.1-0.2,0.1-0.3c0.1,0.1,0.1,0.2,0.1,0.3c0,0.2,0,0.3,0.2,0.4
					c0.1,0,0.3,0,0.3,0.2S69.1,4.9,68.9,5c-0.1,0.1-0.3,0.1-0.4,0.1s-0.2,0-0.2,0.1s0.1,0.2,0.1,0.2c0.1,0,0.2,0.1,0.3,0.1
					c0.1,0,0.2,0.1,0.2,0.2c0,0.1-0.1,0.2-0.2,0.2c-0.2,0-0.4,0.1-0.6,0.2c-0.2,0.1-0.3,0-0.3-0.2C67.9,5.7,67.9,5.7,67.8,5.6
					C67.8,5.7,67.8,5.7,67.8,5.6z"/>
				<path class="st1" d="M67.3,7.7c0.1-0.2,0.2-0.5,0.2-0.8c0-0.1,0.1-0.1,0.1-0.1c0.1,0,0.1,0,0.1,0.1c0,0.2,0.2,0.3,0.3,0.5
					c0.2,0.2,0.1,0.4-0.1,0.5c-0.1,0-0.3,0.1-0.4,0.1C67.3,8,67.2,7.9,67.3,7.7z"/>
				<path class="st1" d="M67.8,3.9c0.3,0,0.5-0.3,0.7-0.3c0,0,0.1,0,0.1,0.1c-0.1,0-0.2,0.1-0.2,0.2c-0.1,0.2-0.3,0.3-0.5,0.2
					C67.8,4,67.8,4,67.8,3.9C67.7,4,67.7,3.9,67.8,3.9z"/>
				<path class="st2" d="M62.5,7.9c0.1-0.1,0.2-0.2,0.3-0.3c0.2,0,0.2,0.2,0.4,0.2c0.1,0,0.2,0,0.3-0.1c0-0.1,0-0.1,0-0.2
					c-0.1-0.1-0.2-0.1-0.3,0c-0.1,0.1-0.2,0.1-0.3,0C63,7.4,63,7.4,63,7.3c0.4-0.4,0.5-0.4,0.8,0.1C64,8.1,64,8.1,63.3,8.1
					c-0.1,0-0.3,0-0.4,0C62.7,8.1,62.6,8,62.5,7.9z"/>
				<path class="st2" d="M62.9,7.4c0.1,0,0.2,0,0.2-0.1c0.1-0.1,0.2-0.3,0.4-0.1c0.2,0.1,0.3,0.3,0.3,0.6c0,0.1-0.1,0.1-0.1,0.2
					c-0.3,0.1-0.5,0-0.8-0.1c-0.2-0.1,0-0.2,0-0.3C62.9,7.5,62.9,7.5,62.9,7.4z"/>
				<path class="st1" d="M64.7,3.5c-0.2,0.2-0.4,0.2-0.7,0.1c-0.3-0.1-0.7-0.2-1-0.4c0,0,0,0-0.1,0c-0.2-0.1-0.2,0-0.3,0.1
					c-0.2,0.2-0.3,0.2-0.6,0c-0.1-0.1-0.3-0.2-0.4-0.4c0,0,0-0.1-0.1-0.1c0.1,0.1,0.2,0.1,0.3,0.2c0.3,0.2,0.5,0.3,0.9,0.1
					c0.2-0.1,0.4,0.1,0.6,0.1C63.7,3.6,64.2,3.5,64.7,3.5z"/>
				<path class="st1" d="M59.6,3.2c-0.2-0.1-0.3,0-0.4,0.2c0,0.1-0.1,0.1-0.2,0.1c0,0-0.1-0.1-0.1-0.1c-0.1-0.1,0-0.2,0.1-0.2
					c0-0.1,0.1-0.2,0.2-0.3c0.2-0.2,0.4-0.2,0.6-0.1c0,0,0.2,0.1,0.1,0.3C59.9,3.2,59.7,3.2,59.6,3.2z"/>
				<path class="st1" d="M67.8,3.9C67.8,3.9,67.8,4,67.8,3.9c-0.3-0.1-0.6-0.1-1,0c-0.3,0.1-0.5,0-0.8-0.1s-0.5-0.2-0.8,0l-0.1,0.1
					c-0.3-0.1-0.6,0-0.9,0c-0.4,0-0.7-0.2-1-0.4c-0.1-0.1-0.2-0.1-0.4,0V3.4C62.9,3.3,63,3.2,63,3.2c0.3,0.4,0.7,0.4,1.1,0.6
					c0.2,0.1,0.5-0.1,0.7-0.2c0.4-0.2,0.8-0.1,1.1,0c0.3,0.1,0.6,0.2,0.9,0.2C67.2,3.7,67.5,3.7,67.8,3.9z"/>
				<path class="st1" d="M62.8,3.3v0.1c0,0,0,0.1-0.1,0.1c-0.2,0.1-0.3,0.3-0.4,0.4c-0.1,0.1-0.1,0.2,0.1,0.3
					c0.1,0.1,0.2,0.1,0.4,0.1c0.1,0,0.1,0.1,0.2,0.1c0,0,0,0,0,0.1c-0.3-0.1-0.5,0-0.7-0.1c-0.1,0-0.2,0-0.3-0.1
					c-0.1-0.3-0.3-0.4-0.6-0.4c-0.1,0-0.1-0.1-0.1-0.2c0.1-0.1,0.2-0.2,0.4-0.2l0,0C62.2,4,62.5,3.6,62.8,3.3
					C62.8,3.4,62.8,3.4,62.8,3.3z"/>
				<path class="st1" d="M62.8,4.4c-0.2,0-0.3,0-0.5-0.1c-0.2,0-0.2-0.2-0.1-0.3c0.2-0.2,0.3-0.3,0.6-0.4c0,0.1-0.1,0.1-0.1,0.2
					C62.3,4.1,62.3,4.1,62.8,4.4z"/>
				<path class="st27" d="M62.7,7.3c0,0-0.1,0-0.1,0.1C62.7,7.1,62.8,7,63.1,7C63,7,62.8,7,62.7,7.3z"/>
				<path class="st28" d="M61.7,6.8c0.1,0,0.1,0.1,0.1,0.2c0,0.1-0.1,0.1-0.2,0.1c-0.1,0-0.1-0.1-0.1-0.2
					C61.5,6.8,61.6,6.8,61.7,6.8z"/>
				<path class="st29" d="M60.6,6.9C60.6,7,60.5,7,60.6,6.9c-0.2,0.1-0.2,0.1-0.2,0C60.4,6.9,60.4,6.8,60.6,6.9
					C60.5,6.8,60.6,6.9,60.6,6.9z"/>
				<path class="st1" d="M63,5.1C63,5,63,5,63,4.9C63.1,5,63.2,5,63.2,5.1C63.1,5.1,63.1,5.1,63,5.1z"/>
				<path class="st1" d="M61.6,2.9C61.7,3,61.9,3.1,62,3.2c0.2,0.1,0.5,0.2,0.7,0c0.1-0.1,0.2-0.1,0.3,0c-0.2,0-0.3,0.1-0.4,0.2
					c-0.3,0.2-0.4,0.2-0.6,0C61.9,3.2,61.6,3.2,61.6,2.9z"/>
				<path class="st1" d="M61,3.5C61.1,3.5,61.1,3.5,61,3.5C61.1,3.5,61.1,3.5,61,3.5C61.1,3.6,61.1,3.6,61,3.5
					C61.1,3.5,61.1,3.5,61,3.5z"/>
				<path class="st1" d="M85.4,10.6c0.2,0.3,0.1,0.5-0.1,0.7c0,0,0,0,0,0.1s0,0.1-0.1,0.2c0,0,0,0-0.1,0l0,0c-0.1-0.1-0.1-0.2,0-0.3
					c0.2-0.4,0.2-0.4-0.2-0.4c-0.1-0.1-0.1-0.3,0-0.4c0.1-0.2,0.1-0.4-0.2-0.6c-0.1,0-0.1-0.1-0.2-0.2c-0.2-0.3-0.6-0.3-0.9-0.5
					c-0.1,0-0.1-0.1-0.1-0.2c0,0,0-0.1,0.1,0c0.3,0.2,0.7,0.2,1,0.5c0.2,0.2,0.4,0.4,0.6,0.6c0.2,0.1,0.2,0.3,0.1,0.5
					C85.2,10.5,85.3,10.5,85.4,10.6z"/>
				<path class="st1" d="M78.2,9.8c0,0.1,0,0.1,0,0.2c-0.1,0.4-0.4,0.6-0.9,0.5c-0.2,0-0.3,0-0.5,0c-0.1,0-0.2,0-0.3,0.1
					c-0.1,0-0.2,0-0.3-0.1s0-0.2,0.1-0.3c0-0.1,0.1-0.1,0.1-0.2c0.1-0.2,0.3-0.2,0.4-0.2c0.2,0,0.3-0.1,0.4-0.3
					c0-0.3-0.2-0.4-0.4-0.2c-0.4,0.3-0.7,0-1.1,0.1c-0.1,0-0.3-0.2-0.2-0.3c0.1-0.2,0.1-0.5,0.3-0.6c0.1-0.1,0.1-0.2,0.1-0.4
					c-0.1-0.2,0-0.4,0.1-0.6c0.4-0.3,0.5-0.8,0.4-1.2c0-0.4,0.1-0.6,0.4-0.6c0.2,0,0.3-0.1,0.3-0.2c0.1-0.1,0.2-0.3,0.3-0.4
					c0.1,0,0.2-0.1,0.3-0.1c0.2,0,0.3-0.1,0.4-0.3c0.2-0.3,0.4-0.3,0.7,0h0.1c0.3,0,0.6-0.1,0.9-0.1c0.3,0,0.7-0.1,1,0.1
					c0.1,0,0.1,0,0.2,0s0.2,0.1,0.3,0.1c0.1,0,0.1,0.1,0.1,0.1C81.3,5,81.3,5,81.2,5c-0.4-0.1-0.8-0.2-1.2-0.1c-0.4,0.3-0.8,0-1.1,0
					l0,0c0,0,0,0.1,0.1,0.1c0,0.1,0.2,0.2,0.1,0.4c-0.1,0.1-0.3,0.1-0.4,0.1c-0.3-0.1-0.5,0-0.7,0c0,0,0,0-0.1,0h-0.1c0,0,0,0-0.1,0
					c-0.1,0.3-0.3,0.5-0.5,0.6c-0.1,0-0.1,0.1,0,0.2c0.1,0.1,0.1,0.2-0.1,0.3c-0.2,0.2-0.2,0.4-0.3,0.6c0,0.1,0,0.2,0.1,0.3
					c0.3,0.3,0.2,0.3-0.1,0.5c-0.2,0.1-0.5,0.2-0.5,0.4c0,0.1-0.1,0.2-0.2,0.3S75.9,8.8,76,8.9C76.1,9,76.2,9,76.3,9h0.1
					c0.1,0,0.2,0,0.2-0.2s0-0.3,0.1-0.4c0.1-0.2,0.2-0.3,0.4-0.2c0.2,0.1,0.3,0.2,0.2,0.4c0,0.1-0.1,0.2,0,0.3s0.2,0,0.3-0.1
					c0.1,0,0.1,0,0.2,0C77.9,8.9,78,9,78.2,8.9c0.1-0.1,0.2-0.1,0.4-0.1c0.1,0,0.1,0.1,0.2,0.1c0.1,0.2,0,0.3-0.2,0.3
					c-0.5,0.1-0.8,0.2-1.1,0.6c-0.1,0.1-0.2,0.1-0.3,0.2c-0.1,0-0.2,0.1-0.3,0.3c0.3-0.1,0.7,0,1-0.1c0.1,0,0.2-0.1,0.2-0.2
					C78,9.9,78.1,9.7,78.2,9.8z"/>
				<path class="st1" d="M77.5,5.1c-0.1,0.2-0.2,0.3-0.2,0.5c-0.1,0.1-0.2,0.2-0.3,0.2c-0.3,0-0.4,0.2-0.4,0.5
					c0,0.4-0.2,0.8-0.3,1.2l-0.1,0.1C76,7.7,75.9,7.9,76,8.1c0,0.2,0,0.3-0.1,0.4c-0.1,0.1-0.2,0.3-0.2,0.5c0,0.1-0.1,0.2,0,0.3
					c0.1,0.1,0.2,0.1,0.3,0.1c0.2-0.1,0.4-0.1,0.5,0.1c0.2,0.1,0.3,0,0.4-0.1c0.2-0.1,0.3-0.1,0.5,0c0.1,0.1,0.1,0.2,0.1,0.3
					c-0.2-0.3-0.2-0.3-0.5-0.2l-0.1,0.1c-0.2,0-0.4,0.1-0.6,0c-0.1,0-0.1,0-0.2,0c-0.2,0.2-0.3,0.2-0.3-0.1V9.4c0,0,0,0-0.1-0.1
					c0-0.1,0-0.2,0.1-0.4c0.1-0.4,0.4-0.7,0.2-1.1c-0.1-0.1,0.1-0.3,0.2-0.3c0.4-0.3,0.5-0.7,0.4-1.3s0-0.7,0.6-0.7
					c0.1,0,0.2-0.1,0.3-0.2C77.3,5.3,77.4,5.1,77.5,5.1L77.5,5.1L77.5,5.1z"/>
				<path class="st1" d="M81.4,4.8c-0.1-0.1-0.3-0.1-0.3-0.2c0.1,0,0.2,0,0.2,0c0.1,0,0.2,0.1,0.3,0.1s0.2,0.1,0.2,0.2
					c0,0.2,0.2,0.3,0.4,0.3c0.5,0,1,0.2,1.5,0.3c-0.1,0.1-0.2,0.1-0.4,0.1c-0.2,0-0.4,0-0.6-0.1c-0.1-0.1-0.3-0.1-0.4-0.1
					c-0.2,0-0.4,0-0.6-0.1c-0.1-0.1-0.3-0.1-0.2-0.3C81.5,5,81.4,4.9,81.4,4.8z"/>
				<path class="st1" d="M77.5,5.1L77.5,5.1c0.3-0.2,0.5-0.4,0.7-0.6c0.2-0.2,0.5-0.2,0.7,0.1c-0.3-0.2-0.5-0.1-0.6,0.2
					C78.3,5,78.2,5,78,5C77.8,5.1,77.6,5.1,77.5,5.1z"/>
				<path class="st1" d="M80.9,4.7c-0.5-0.1-1,0-1.5,0c-0.1,0-0.2,0-0.4,0c0.4-0.2,0.8-0.2,1.3-0.2C80.5,4.5,80.7,4.5,80.9,4.7z"/>
				<path class="st1" d="M75.5,9.4c0.1,0.2,0.2,0.4,0.4,0.1c0.1-0.1,0.2-0.1,0.3,0c0.1,0.1,0.3,0.1,0.4,0.1
					c-0.1,0.1-0.2,0.1-0.3,0.2c-0.1,0.1-0.2,0.1-0.3,0c-0.2-0.1-0.3,0-0.3,0.1c-0.1,0.1-0.1,0.4-0.3,0.3c-0.2-0.1-0.1-0.3,0-0.5
					C75.5,9.6,75.5,9.5,75.5,9.4z"/>
				<path class="st1" d="M76.8,9.4c0.3-0.2,0.4-0.1,0.5,0.2c-0.1,0.2-0.3,0.2-0.5,0.3c-0.1,0-0.3,0.1-0.4,0.2
					c-0.1,0-0.2,0.2-0.3,0.2c0-0.2,0.2-0.3,0.4-0.4c0.1,0,0.2-0.1,0.3-0.1c0.1,0,0.3-0.1,0.3-0.3C77.1,9.3,76.9,9.4,76.8,9.4z"/>
				<path class="st1" d="M85.4,10.6c-0.3,0-0.3,0-0.2-0.3c0.1-0.1,0.1-0.3,0-0.4c-0.4-0.6-1-1-1.7-1.1l0,0c-0.1,0-0.2,0-0.3,0
					c-0.2-0.1-0.5-0.1-0.7-0.2c-0.1,0-0.1,0-0.2-0.1c-0.2-0.1-0.4-0.2-0.7-0.2c-0.2,0-0.4-0.1-0.6-0.2c-0.1-0.1-0.3-0.2-0.5-0.2
					c-0.1,0-0.2,0-0.3-0.1c-0.1,0-0.2-0.1-0.2-0.2c0-0.1,0.1-0.2,0.2-0.2c0.2-0.1,0.4-0.1,0.6-0.2h0.1c0.5,0.1,1,0.1,1.6,0
					c0.7-0.2,1.3-0.1,2-0.1c0.3,0,0.6-0.1,0.8-0.4c0.1-0.2,0.1-0.4-0.1-0.6C85.1,6,84.9,6,84.7,5.9c0-0.1-0.1-0.1,0-0.2h0.1
					c0,0,0.1,0,0.1,0.1c0,0,0,0,0.1,0c0.1,0.1,0.2,0.1,0.3,0.1l0,0c0.4,0,0.5,0.3,0.6,0.6c0,0.1,0,0.2-0.1,0.2
					c-0.2,0.1-0.3,0.2-0.4,0.3c0,0.1-0.1,0.2-0.2,0.2c-0.3,0-0.6,0.2-0.9,0c-0.1,0-0.2,0-0.3,0c-0.1,0-0.3,0-0.4,0h-0.1
					c-0.3,0-0.5,0.1-0.7,0.3c-0.1,0.1-0.3,0.1-0.4,0c-0.3-0.2-0.7-0.1-1.1,0c-0.2,0-0.1,0.2,0,0.3s0.3,0.2,0.5,0.3
					c0.7,0.2,1.5,0.4,2.2,0.7c0.6,0.2,0.9,0.6,1.3,1c0.1,0.1,0.2,0.3,0.1,0.5C85.4,10.4,85.4,10.5,85.4,10.6z"/>
				<path class="st1" d="M84.8,5.7h-0.1c-0.2,0.2-0.3,0.1-0.5-0.1c0,0,0,0,0-0.1C84.4,5.6,84.6,5.6,84.8,5.7z"/>
				<path class="st1" d="M84.2,5.6c0.2,0,0.3,0,0.5,0.1c0,0,0,0.1,0.1,0.1C84.9,5.9,85,5.9,85.1,6c0.3,0.1,0.4,0.4,0.3,0.6
					c-0.1,0.3-0.3,0.5-0.6,0.5c-0.1-0.1-0.1-0.1,0-0.2c0.3-0.3,0.3-0.3,0-0.5l-0.1-0.1c0.1-0.3-0.2-0.4-0.4-0.4
					C84.2,5.8,84.2,5.8,84.2,5.6C84.1,5.7,84.1,5.7,84.2,5.6L84.2,5.6z"/>
				<path class="st1" d="M84.1,5.7L84.1,5.7c0,0.1,0,0.1-0.1,0.1c-0.3,0.1-0.5,0.2-0.8-0.1c0,0,0-0.1,0.1-0.1c0.2,0,0.4,0,0.7,0
					C84.1,5.6,84.1,5.6,84.1,5.7z"/>
				<path class="st1" d="M84,5.6c-0.2,0-0.5,0-0.7,0l0,0l0,0c0.1,0,0.3,0,0.4,0C83.8,5.6,83.9,5.6,84,5.6z"/>
				<path class="st30" d="M79.4,9.3L79.4,9.3c0.1-0.2,0.2-0.2,0.3-0.1c0.1,0,0.1,0.1,0.1,0.2c-0.1,0.5,0,0.6,0.5,0.7
					c0.1,0,0.1,0,0.2,0h0.1c0.6,0.1,1.2,0.3,1.8,0.4c0,0,0,0,0.1,0.1c0,0.1,0.1,0.1,0.1,0.2c-0.1,0.2-0.3,0.1-0.4,0.1
					c-0.4-0.1-0.7-0.3-1.1-0.4c-0.3-0.1-0.5-0.1-0.8-0.1h-0.1c-0.1,0-0.2-0.1-0.4-0.1c-0.1,0-0.1-0.1-0.1-0.1
					C79.4,10,79.3,9.7,79.4,9.3z"/>
				<path class="st2" d="M82.3,11.1c0,0-0.1,0-0.1,0.1c-0.4-0.1-0.7-0.4-1.1-0.4c-0.1-0.1-0.3,0-0.5-0.1l0,0
					c-0.4-0.1-0.8-0.1-1.2-0.3c-0.1-0.1-0.3-0.1-0.3-0.2c0.2-0.1,0.4,0.1,0.6,0.1c0.3,0.1,0.6,0.2,1,0.2c0.3,0,0.5,0.1,0.8,0.2
					C81.8,10.8,82,11,82.3,11.1C82.3,11,82.3,11,82.3,11.1z"/>
				<path class="st1" d="M78.7,9.5c-0.2,0-0.2,0.2-0.3,0.2l0,0c-0.2-0.3,0.1-0.3,0.2-0.4C78.8,9.2,78.9,9.1,79,9
					c0.1,0,0.3,0,0.4-0.1C79.5,9,79.7,9,79.7,9.1v0.1c0,0,0,0-0.1,0c-0.3-0.1-0.5,0-0.7,0.1C78.9,9.4,78.8,9.5,78.7,9.5z"/>
				<path class="st31" d="M79.4,9.3c0.1,0.1,0.1,0.2,0.1,0.3c0,0.2,0.1,0.4,0.2,0.6c0,0.1,0,0.1-0.1,0.1c-0.2,0-0.3-0.1-0.4-0.2V10
					c0-0.2,0-0.3-0.2-0.4l-0.1-0.1C79.1,9.4,79.3,9.4,79.4,9.3z"/>
				<path class="st2" d="M79.4,10c0.1,0.1,0.2,0.2,0.3,0.2c0,0,0,0,0,0.1c-0.2,0-0.4-0.1-0.6-0.2c-0.1,0-0.2-0.1-0.3-0.1
					c-0.1-0.1-0.2-0.1-0.1-0.3c0.1,0,0.2,0,0.3,0.1C79.1,9.9,79.3,9.9,79.4,10z"/>
				<path class="st2" d="M79,10c-0.1,0-0.2-0.1-0.3-0.2c0.1-0.1,0.2-0.2,0.4-0.2c0.1,0,0.1,0,0.2,0v0.1C79.2,9.7,79,9.7,79,10
					C79,9.9,79,10,79,10z"/>
				<path class="st1" d="M79,9.4c0.2-0.2,0.4-0.3,0.7-0.2c0,0,0,0,0.1,0l0,0c-0.1,0-0.2,0-0.2,0C79.3,9.2,79.1,9.4,79,9.4z"/>
				<path class="st1" d="M79,9c0,0.2-0.1,0.3-0.3,0.3c-0.2,0.1-0.3,0.2-0.4,0.4c-0.1,0-0.1,0.1-0.2,0.1S78,9.9,77.9,10
					c0,0.3-0.3,0.4-0.5,0.4c-0.3,0-0.6,0-0.8,0.1c-0.1,0-0.2,0-0.3-0.1c0-0.1,0-0.2,0.1-0.3c0,0,0,0,0.1-0.1
					c0.7-0.2,1.1-0.9,1.9-0.9c0.1,0,0.1-0.1,0.2-0.1C78.7,8.9,78.9,8.9,79,9z"/>
				<path class="st1" d="M83.2,12.8c0.1,0,0.2,0,0.2,0.1s-0.1,0.2-0.2,0.2c-0.1,0-0.2,0-0.2-0.2C82.9,12.8,83,12.8,83.2,12.8z"/>
				<path class="st1" d="M81,12.4c0,0.1-0.1,0.1-0.1,0.1c-0.1,0-0.1,0-0.2-0.1c0-0.1,0.1-0.1,0.1-0.1C80.9,12.3,81,12.3,81,12.4z"/>
				<path class="st1" d="M82.9,11.3c0.2-0.1,0.5,0,0.7-0.1c0.3,0,0.5,0.2,0.6,0.5c0,0.1,0.1,0.2,0.2,0.2c0.2,0,0.3,0,0.4-0.1
					c0.1-0.1,0.2-0.2,0.3-0.3c0,0,0,0,0.1,0h0.1l0,0c0,0.2-0.1,0.4-0.3,0.6c0,0.1-0.1,0.1-0.2,0.1c-0.3,0-0.7-0.2-0.8-0.4
					c0-0.1-0.1-0.2-0.2-0.2C83.4,11.6,83.2,11.4,82.9,11.3z"/>
				<path class="st2" d="M79.7,10.3L79.7,10.3c0-0.1,0-0.1,0.1-0.1c0,0,0.1,0,0.1,0.1c0.1,0.1,0.2,0.1,0.3,0.1l0,0
					c0.3,0.1,0.6,0.1,0.9,0.1c0.3,0,0.5,0.2,0.8,0.3c0.2,0.1,0.4,0.2,0.6,0.1c0,0,0,0,0.1-0.1h0.1c0.1,0,0.2-0.1,0.3-0.1h0.1v0.1
					c0,0.1-0.1,0.1-0.2,0.2c-0.2,0-0.4,0-0.5,0c-0.7-0.3-1.4-0.6-2.1-0.6C80,10.4,79.8,10.4,79.7,10.3z"/>
				<path class="st32" d="M82.8,11c0-0.1,0.1-0.1,0.1-0.2c0,0,0-0.1,0.1-0.2c0.2-0.3,0.1-0.4-0.2-0.5h-0.1c-0.1-0.1-0.2-0.2-0.2-0.3
					c0-0.1,0-0.1,0.1-0.1s0.2,0.1,0.4,0.1c0.3,0,0.4,0.3,0.5,0.5c0,0.2,0.1,0.4,0,0.5C83.3,11.1,83.1,11.1,82.8,11
					C82.9,11.1,82.9,11,82.8,11z"/>
				<path class="st1" d="M85.2,11.6c-0.2,0.4-0.4,0.6-0.8,0.5c-0.1,0-0.3-0.1-0.3-0.2c0-0.4-0.3-0.5-0.6-0.7c0,0,0,0,0.1,0
					c0.1-0.2,0.3-0.1,0.4,0c0.1,0.1,0.3,0.2,0.3,0.4c0,0.1,0.1,0.2,0.2,0.1c0.1,0,0.1-0.1,0.2-0.1C84.9,11.6,85,11.5,85.2,11.6z"/>
				<path class="st1" d="M84.7,11.9c0,0.1-0.1,0.2-0.2,0.2s-0.2-0.1-0.2-0.2c-0.1-0.4-0.3-0.5-0.6-0.6c0,0,0,0,0-0.1l0.1-0.1
					c0.2,0,0.3,0,0.5,0.1c0.1,0,0.1,0,0.2,0.1c0.2,0.1,0.2,0.3,0.2,0.5C84.6,11.8,84.7,11.8,84.7,11.9z"/>
				<path class="st1" d="M83.8,11.2h-0.1c-0.2-0.1-0.5,0.1-0.7-0.1c0.1-0.1,0.3-0.1,0.4-0.2c0.1-0.1,0.2,0,0.3,0.1l0.1,0.1
					C83.8,11.1,83.8,11.1,83.8,11.2z"/>
				<path class="st1" d="M81.8,8.1C81.5,8,81.2,7.9,81,7.7c-0.1,0-0.1-0.1-0.1-0.2c0-0.1,0.1-0.1,0.2-0.1c0.4,0,0.9,0,1.3,0
					c0.1,0,0.3,0,0.4-0.1c0.2-0.2,0.5-0.2,0.7-0.2c0,0,0,0,0,0.1c-0.2,0.1-0.5,0.2-0.6,0.4s-0.3,0.1-0.5,0c-0.2-0.2-0.5-0.2-0.8-0.1
					c-0.1,0-0.2,0-0.2,0.1s0.1,0.1,0.1,0.2C81.6,8,81.7,8,81.8,8.1L81.8,8.1z"/>
				<path class="st1" d="M83.9,7.2c0.3,0,0.7,0.1,1,0c0.2,0,0.3-0.1,0.4-0.3c0-0.1,0.1-0.1,0.2-0.2c0.2-0.2,0.3-0.3,0.1-0.6
					c-0.1-0.1-0.2-0.2-0.3-0.3c0.1,0,0.3,0.1,0.4,0.1c0.1,0,0.2,0.1,0.2,0.3s0.1,0.3,0.2,0.4c0.1,0.1,0,0.2-0.1,0.2
					c-0.3,0-0.4,0-0.5,0.3c0,0.1-0.1,0.1-0.3,0.2c-0.4,0.1-0.7,0.1-1.1,0C84.1,7.3,84.1,7.3,83.9,7.2C84,7.3,83.9,7.3,83.9,7.2
					L83.9,7.2z"/>
				<path class="st1" d="M83.9,7.3C83.9,7.3,84,7.3,83.9,7.3c-0.1,0.1-0.3,0.1-0.5,0.1c0,0,0,0,0-0.1c0,0,0,0,0.1,0
					C83.7,7.2,83.8,7.2,83.9,7.3z"/>
				<path class="st1" d="M85.2,5.9c-0.1,0-0.2,0-0.3-0.1C85.1,5.8,85.2,5.8,85.2,5.9z"/>
				<path class="st1" d="M67.9,7.5c-0.1,0.2-0.2,0.3-0.4,0.3c-0.1,0-0.2,0-0.1-0.1c0-0.2,0.1-0.4,0.3-0.4
					C67.8,7.3,67.9,7.4,67.9,7.5z"/>
				<path class="st1" d="M84.7,11.9c-0.1,0-0.2,0.1-0.3,0c0.3-0.2,0.3-0.5,0.4-0.9c0-0.4,0.1-0.7,0-1.1c0-0.2-0.1-0.2-0.2-0.3
					c-0.1,0-0.2-0.1-0.3-0.2c-0.2-0.1-0.3-0.3-0.5-0.3C83.7,9,83.5,9,83.4,8.9c-0.1-0.1-0.2-0.1-0.1-0.3c0.2-0.1,0.3,0.1,0.5,0.1
					c0.5,0.2,0.9,0.4,1.2,0.8c0.2,0.2,0.3,0.4,0.1,0.7c0,0.1,0,0.2,0,0.3l0.1,0.1c0.1,0.2-0.1,0.5,0,0.7c0,0.1-0.2,0.2-0.2,0.2
					C84.8,11.7,84.7,11.8,84.7,11.9z"/>
				<path class="st1" d="M85.1,10.7C85,10.7,85,10.7,85.1,10.7c0.4,0,0.4,0,0.2,0.4c-0.1,0.1-0.1,0.2-0.1,0.4c0,0,0,0-0.1,0
					C85,11.4,85,11.2,85,11.1C85.1,11,85.2,10.8,85.1,10.7z"/>
				<path class="st1" d="M83.7,8.9c-0.2,0-0.3-0.1-0.5-0.1c-0.1,0.1-0.2,0.1-0.4,0c-0.2,0-0.4-0.1-0.3-0.3c0.3,0,0.5,0.1,0.7,0.2
					c0.1,0,0.2,0.1,0.3,0.1l0,0C83.6,8.8,83.7,8.8,83.7,8.9z"/>
				<path class="st1" d="M76.1,8.5C76.2,8.2,76.3,8,76.6,8c0.1,0,0.2,0,0.3-0.1c0-0.1-0.1-0.2-0.2-0.3c-0.2-0.2-0.2-0.5,0-0.8
					c0.1-0.2,0.3-0.3,0.1-0.5c-0.1-0.1,0-0.2,0.1-0.2c0.3-0.1,0.5-0.3,0.5-0.6l0.1-0.1c0.2,0.2,0.4,0.3,0.4,0.6
					c0,0.1-0.1,0.2-0.2,0.2c-0.3,0.1-0.1,0.2,0,0.2c0,0,0,0,0,0.1c0,0.2-0.1,0.3-0.3,0.4C77.2,7,77,7,77,7.3c0,0.3,0.1,0.5,0.4,0.5
					c0.1,0,0.1-0.1,0.2-0.2c0.1-0.2,0.3-0.3,0.6-0.2c0,0.1,0,0.1,0,0.2c0,0-0.1,0.1-0.1,0.2C78,8.1,78,8.1,77.8,8.3
					c0.3-0.1,0.6-0.2,0.9-0.1c0.1,0.1,0,0.2-0.1,0.2c-0.3,0-0.5,0.2-0.8,0.3c-0.1,0-0.2,0-0.2,0.2c0,0.1,0.1,0.1,0.2,0.2l0,0
					c-0.1,0.2-0.2,0.2-0.4,0.2c-0.2-0.1-0.2-0.2-0.1-0.4c0.1-0.2,0-0.3-0.1-0.4c-0.2-0.1-0.3,0-0.3,0.2c0,0.1-0.1,0.3,0,0.4
					c0,0.1,0.1,0.2,0,0.3s-0.2,0-0.2-0.1c-0.1,0-0.1-0.1-0.2-0.1c0-0.1,0.1-0.2,0.1-0.3c0-0.2,0.2-0.4,0.3-0.6
					C76.3,8.2,76.4,8.5,76.1,8.5L76.1,8.5z"/>
				<path class="st1" d="M78.8,4.8c0.4,0.1,0.8,0.2,1.1,0.1c0,0,0,0,0.1,0.1c0,0.1,0,0.2-0.1,0.3c0,0.1-0.1,0.1-0.2,0.2
					c-0.1,0-0.2,0-0.3,0.1c-0.1,0-0.1,0-0.2-0.1c0,0-0.1-0.1-0.1,0s0,0.1-0.1,0.2h-0.1c-0.4,0-0.7,0.1-1.1,0c-0.1,0-0.2-0.1-0.2-0.2
					c0.3,0,0.6,0.1,0.9,0.1c0.1,0,0.1,0,0.2-0.1c0-0.1,0-0.1-0.1-0.2c-0.1-0.1-0.2-0.1-0.2-0.2c-0.1-0.1-0.1-0.2-0.1-0.3
					C78.6,4.6,78.7,4.7,78.8,4.8C78.7,4.8,78.8,4.8,78.8,4.8z"/>
				<path class="st1" d="M80,4.9L80,4.9c0.2-0.2,0.4-0.2,0.7-0.1c0.2,0,0.4,0,0.5,0.1c0.2,0,0.4,0,0.4,0.4c0,0.1,0.1,0.1,0.2,0.2
					c0.2,0.1,0.5,0.1,0.8,0.1c0.1,0,0.3-0.1,0.2,0.1c-0.2,0.2-0.5,0.1-0.8,0.1c-0.2,0-0.3-0.1-0.5-0.1c-0.1,0-0.3-0.1-0.3-0.2
					c-0.2-0.4-0.5-0.4-0.8-0.4C80.1,5,80,5,80,4.9z"/>
				<path class="st1" d="M82.7,5.5c-0.2-0.1-0.4-0.1-0.6-0.1c-0.2,0-0.4,0-0.6-0.1c-0.1,0-0.2-0.1-0.2-0.2c0-0.2-0.1-0.3-0.2-0.3
					c0.1,0,0.2,0,0.2,0c0.1,0,0.3,0,0.2,0.2c0,0.2,0.1,0.3,0.3,0.3c0.2,0,0.4,0.1,0.5,0c0.1,0,0.3,0,0.4,0.1
					c0.2,0.1,0.3,0.1,0.5,0.1c0,0,0,0,0,0.1l0,0C83.1,5.8,82.9,5.8,82.7,5.5z"/>
				<path class="st1" d="M77.8,5.3c0.3,0.2,0.6,0.1,0.9,0.2c0.1,0,0.3,0,0.4,0c0,0.1-0.1,0.1-0.1,0.1c-0.1,0-0.2,0-0.3,0
					c-0.3,0-0.6-0.1-0.8,0.3h-0.1c0-0.1,0-0.2-0.1-0.2c-0.2-0.1-0.2-0.2-0.2-0.4c0,0,0,0,0.1-0.1C77.7,5.2,77.8,5.3,77.8,5.3
					L77.8,5.3z"/>
				<path class="st1" d="M78.4,9.1c-0.1,0-0.3,0.1-0.4,0.1c-0.3,0.1-0.4,0.1-0.3-0.3c0-0.2,0.1-0.2,0.3-0.3s0.4-0.1,0.6-0.2
					c0.2-0.1,0.5-0.2,0.7-0.2c0.1,0,0.2,0,0.3,0.1c0,0.2-0.1,0.3-0.3,0.3c-0.1,0-0.2,0.1-0.3,0.1c-0.2,0-0.4,0.1-0.6,0.2
					C78.3,9,78.4,9,78.4,9.1L78.4,9.1z"/>
				<path class="st1" d="M79,9c-0.1,0-0.3,0-0.4,0.1c-0.1,0-0.2,0-0.2,0l0,0c0-0.1,0.1-0.2,0.2-0.2c0.2,0,0.4-0.1,0.6-0.1
					c0.4-0.1,0.7-0.2,1.1-0.1c0,0,0.1,0,0.1,0.1S80.3,9,80.2,9c-0.3,0-0.5,0.1-0.8,0.1C79.3,9,79.2,9,79,9z"/>
				<path class="st1" d="M76.1,8.5L76.1,8.5C76.2,8.5,76.2,8.5,76.1,8.5c0.1,0.1,0.1,0.1,0.1,0.1c-0.1,0.3-0.1,0.3,0.2,0.2l0,0
					c0,0.2-0.1,0.3-0.3,0.3c-0.2,0-0.4,0.2-0.4,0c-0.1-0.1,0.1-0.3,0.2-0.4C75.9,8.6,76,8.5,76.1,8.5z"/>
				<path class="st1" d="M78.6,8.6c-0.3,0.2-0.6,0.1-0.9,0.3c0,0-0.1,0-0.1,0.1l0,0c-0.1-0.1-0.1-0.2,0-0.2
					C77.9,8.6,78.2,8.5,78.6,8.6C78.5,8.5,78.6,8.6,78.6,8.6z"/>
				<path class="st1" d="M78.8,4.8c0,0.1,0,0.1-0.1,0.1c-0.1,0-0.1,0-0.1-0.1C78.6,4.7,78.7,4.7,78.8,4.8
					C78.8,4.7,78.8,4.8,78.8,4.8z"/>
				<path class="st1" d="M77.8,5.3c-0.1,0-0.2,0-0.2-0.1C77.7,5.2,77.8,5.2,77.8,5.3z"/>
				<path class="st1" d="M80.4,8.8C80.4,8.8,80.4,8.7,80.4,8.8C80.3,8.7,80.3,8.7,80.4,8.8c-0.1-0.1,0-0.1,0-0.1
					c0.2,0,0.3,0,0.5-0.1c-0.2-0.1-0.5,0-0.8-0.1c0,0,0,0,0-0.1c0.1-0.2,0.3-0.2,0.5-0.2c-0.2-0.2-0.3-0.1-0.5-0.1
					c-0.2,0-0.4,0.1-0.6,0c-0.1-0.3-0.3-0.3-0.5-0.2c-0.1,0-0.2,0-0.4,0.1c0.1,0.1,0.2,0,0.3,0s0.3,0,0.2,0.2
					c-0.1,0.1-0.2,0.2-0.3,0.2c-0.2,0-0.5,0-0.7-0.1C77.9,8.2,78,8,78,7.9c0-0.2,0.1-0.3,0.3-0.3c0.1,0,0.2,0,0.3,0
					c0.5-0.2,1.1,0,1.7-0.2c0.1-0.1,0.3,0,0.4,0c0.1,0,0.1,0,0.2,0.1c-0.2,0.1-0.3,0-0.5,0.1c-0.1,0-0.2,0.1-0.1,0.2
					c0,0.1,0.1,0.1,0.2,0.1c0.3,0,0.6,0.2,0.9,0.3c0.2,0.1,0.5,0.2,0.7,0.2c0.2,0,0.3,0.1,0.4,0.2c-0.1,0.1-0.2,0.2-0.3,0.1
					c-0.2,0-0.4,0-0.5,0.1C81.6,8.9,81.4,9,81.2,9C80.9,8.8,80.6,8.9,80.4,8.8z"/>
				<path class="st1" d="M84.7,7c0.3,0,0.4-0.1,0.5-0.4c0.1-0.3,0-0.4-0.2-0.6c-0.1-0.1-0.2-0.2-0.3-0.3c0.2,0.1,0.3,0.1,0.5,0.2
					c0.2,0.1,0.3,0.3,0.2,0.5S85.2,6.8,85,6.9S84.7,7,84.5,7c-0.7,0-1.4-0.1-2,0.1l0,0V7c0.1-0.1,0.3-0.1,0.4-0.1
					c0.3,0,0.6,0,0.9-0.1c0.1,0,0.2,0,0.2,0C84.2,7,84.4,7,84.7,7L84.7,7z"/>
				<path class="st1" d="M82.8,7.1c-0.1,0-0.2,0.1-0.3,0.1c-0.1,0.1-0.3,0-0.4,0.1c-0.1,0-0.2,0-0.2,0c-0.2,0-0.3,0-0.5,0
					c-0.2-0.1-0.3,0-0.5,0l0,0c-0.1,0-0.1,0-0.2,0c0-0.1,0-0.1,0-0.1c0.1-0.1,0.3-0.1,0.5-0.1c0.5,0,1,0,1.5-0.1h0.1
					C82.8,6.9,82.8,7,82.8,7.1C82.9,7,82.8,7.1,82.8,7.1z"/>
				<path class="st1" d="M81.8,7.3c0.1,0,0.2,0,0.2,0c0.1,0,0.3,0,0.4,0l0,0c-0.5,0.2-1.1,0.1-1.6,0c0.2,0,0.3,0,0.5,0
					C81.5,7.3,81.7,7.3,81.8,7.3z"/>
				<path class="st1" d="M82.1,8.3c0.1,0,0.2,0,0.3,0.1c0,0,0.1,0,0.1,0.1c0.1,0.1,0.3,0.1,0.4,0.2c-0.2,0.2-0.4,0.1-0.6,0
					C82.2,8.6,82,8.6,82.1,8.3z"/>
				<path class="st1" d="M83.9,7.3c-0.1,0-0.3,0-0.4,0C83.6,7.2,83.8,7.2,83.9,7.3C83.9,7.2,83.9,7.2,83.9,7.3z"/>
				<path class="st1" d="M83.6,8.8c-0.1,0-0.2,0-0.3-0.1C83.4,8.6,83.5,8.7,83.6,8.8z"/>
				<path class="st1" d="M84,7c-0.1,0-0.2,0-0.2,0c-0.3,0-0.6,0-1,0l0,0c0-0.1,0-0.1,0.1-0.1c0.3-0.1,0.6-0.1,0.9-0.1h0.1
					c0.1,0,0.2,0,0.3,0c0.1,0.1,0.2,0,0.3-0.1s0-0.2,0-0.3c-0.1-0.2-0.1-0.4-0.4-0.5c-0.1,0-0.1-0.1,0-0.1c0,0,0,0,0.1,0
					c0.3,0.1,0.6,0.1,0.6,0.5c0,0.1,0.1,0.1,0.2,0.1s0.3,0,0.3,0.2S85.2,7,85,7c-0.1,0-0.1,0.1-0.2,0.1c0,0,0,0-0.1,0
					C84.5,7.1,84.2,7.1,84,7z"/>
				<path class="st1" d="M84.1,5.7c0.5,0.1,0.5,0.5,0.7,0.8c0.1,0.2-0.1,0.4-0.3,0.4s-0.4,0-0.6,0c0-0.1,0-0.1,0-0.2
					C84,6.5,84,6.2,83.7,6.1c-0.4-0.1-0.6-0.3-1-0.4c-0.2,0-0.5,0-0.7-0.1c-0.1,0-0.3,0-0.2-0.2c0.3,0,0.6,0,0.9,0
					c0.2,0.1,0.4,0.1,0.6,0.1C83.6,5.8,83.8,5.7,84.1,5.7z"/>
				<path class="st33" d="M82.8,10.1L82.8,10.1c0,0.3-0.2,0.6-0.4,0.7c0,0,0,0-0.1,0c-0.3-0.1-0.4-0.1-0.5-0.5
					c0-0.1,0.1-0.2,0.3-0.3c0.1,0.1,0.3,0.1,0.4,0C82.6,10,82.7,10,82.8,10.1z"/>
				<path class="st34" d="M81.9,10.3c0.1,0.2,0.2,0.4,0.4,0.5c-0.3,0-0.4-0.1-0.7-0.2c-0.4-0.1-0.8-0.2-1.2-0.3
					c0-0.1,0.1-0.1,0.2-0.1h0.1h0.1c0.4,0.1,0.5,0,0.7-0.4c0,0,0.1-0.1,0.2-0.1h0.1c0.1,0.1,0.1,0.2,0,0.2
					C81.8,10.2,81.8,10.2,81.9,10.3z"/>
				<path class="st35" d="M82.4,10.8c0.2-0.2,0.3-0.4,0.5-0.7c0.2,0,0.3,0.1,0.4,0.3c0.1,0.2-0.1,0.3-0.2,0.4v-0.1
					c-0.1-0.1,0-0.2-0.1-0.3c-0.1,0.1-0.2,0.2-0.3,0.3c0,0,0,0-0.1,0C82.4,10.8,82.4,10.8,82.4,10.8z"/>
				<path class="st36" d="M80.4,10.2c-0.1,0-0.2,0-0.4-0.1c-0.5-0.2-0.5-0.4-0.4-0.9l0,0c0.1,0,0.2,0,0.2,0.1
					c-0.1,0.4-0.1,0.4,0.4,0.7C80.4,10.1,80.5,10.1,80.4,10.2z"/>
				<path class="st37" d="M80.4,10.2c-0.1-0.1-0.1-0.1-0.2-0.2c-0.1-0.1-0.2-0.1-0.1-0.2c0.2-0.1,0.3,0.1,0.4,0.2
					c0,0.1,0.1,0.1,0.2,0.1v0.1C80.6,10.3,80.5,10.3,80.4,10.2C80.4,10.3,80.4,10.3,80.4,10.2z"/>
				<path class="st2" d="M81,10.5c-0.3,0-0.6,0-0.9-0.1C80.5,10.4,80.8,10.4,81,10.5z"/>
				<path class="st2" d="M80.2,10.4c-0.1,0-0.2,0-0.3-0.1C80,10.3,80.1,10.3,80.2,10.4z"/>
				<path class="st1" d="M82.9,9.9c-0.1,0-0.2-0.1-0.3-0.1s-0.2,0-0.2,0c-0.1-0.1-0.1-0.1-0.2-0.2c-0.1-0.3-0.3-0.3-0.5-0.3
					c-0.3-0.1-0.6-0.2-1-0.1c-0.2,0-0.4,0.1-0.7,0.1c-0.1,0-0.3,0.1-0.4-0.1l0,0C79.5,9,79.6,9,79.8,9c0.4-0.1,0.8-0.2,1.2-0.1
					c0.6,0,1.1,0.1,1.5,0.6c0.1,0.1,0.2,0.1,0.3,0.2C83.1,9.6,83.1,9.7,82.9,9.9z"/>
				<path class="st38" d="M79.7,9.2c0.2,0,0.3,0,0.5-0.1C80.4,9,80.6,9,80.8,9c0.1,0,0.2,0,0.4,0c0.2,0,0.3,0.1,0.2,0.3
					c-0.1,0.1-0.3,0-0.4,0c-0.3-0.3-0.5-0.2-0.7,0c-0.1,0-0.1,0-0.2,0c0,0-0.1,0-0.1-0.1C79.8,9.4,79.7,9.3,79.7,9.2
					C79.7,9.3,79.7,9.2,79.7,9.2L79.7,9.2z"/>
				<path class="st1" d="M81.2,8.8c-0.4,0-0.8,0-1.2,0.1c-0.1,0-0.2,0.1-0.3,0.2c-0.1,0-0.2,0-0.3-0.2c0.2-0.2,0.4-0.1,0.6-0.2
					c0.1,0,0.2,0,0.4-0.1C80.7,8.8,80.9,8.7,81.2,8.8L81.2,8.8L81.2,8.8z"/>
				<path class="st2" d="M79.1,9.6C79.2,9.5,79.2,9.5,79.1,9.6c0.3,0,0.3,0.2,0.2,0.4h-0.1C78.9,9.8,78.9,9.8,79.1,9.6z"/>
				<path class="st2" d="M79.3,10L79.3,10c0.1,0,0.1,0.1,0.1,0.1c-0.1,0-0.3,0-0.4-0.1l0,0C79.1,9.9,79.2,9.9,79.3,10z"/>
				<path class="st2" d="M79.3,10c-0.1,0-0.2,0-0.3,0c-0.2-0.2-0.2-0.3,0.2-0.4C79,9.7,79.1,9.8,79.3,10z"/>
				<path class="st1" d="M85.1,10.7c0.2,0.2,0.1,0.5,0.1,0.8c0,0,0,0,0,0.1c-0.1,0.1-0.2,0.1-0.3,0.1C85.1,11.4,85,11,85.1,10.7z"/>
				<path class="st39" d="M82.5,10.9c0-0.2,0.1-0.3,0.2-0.4c0.1-0.1,0.1-0.2,0.2-0.1s0.1,0.2,0,0.3c0,0.1-0.1,0.1-0.1,0.1s0,0-0.1,0
					C82.8,10.7,82.7,10.8,82.5,10.9C82.6,10.9,82.6,10.9,82.5,10.9z"/>
				<path class="st40" d="M82.6,10.9c0-0.1,0.1-0.1,0.1-0.2c0,0,0.1-0.1,0.2-0.1s0,0.1,0,0.2C82.8,10.9,82.7,10.9,82.6,10.9z"/>
				<path class="st1" d="M81.2,8.8L81.2,8.8c0.3-0.2,0.5-0.5,0.9-0.5c0.3,0.2,0.5,0.3,0.9,0.3c0.1,0,0.2,0.1,0.3,0.1
					c0.2,0.2,0.4,0.2,0.6,0.3C84,9.2,84,9.4,84,9.5c-0.1,0.4,0.1,0.7,0.1,1.1c0,0.2,0.1,0.4,0,0.6c-0.1,0-0.3,0-0.4-0.1
					c0,0-0.1,0-0.1-0.1v-0.1c0.1-0.2,0.1-0.5-0.2-0.6c0,0,0,0-0.1,0c-0.1-0.2-0.3-0.3-0.5-0.4c0-0.1,0-0.2-0.1-0.2
					c-0.2,0-0.3-0.2-0.4-0.3c-0.1-0.2-0.3-0.3-0.5-0.3C81.6,9,81.4,8.9,81.2,8.8z"/>
				<path class="st1" d="M83.7,11L83.7,11c-0.2,0-0.3-0.1-0.4-0.2c0.1-0.2,0.1-0.3,0.1-0.5l0,0C83.7,10.4,83.8,10.8,83.7,11z"/>
				<path class="st41" d="M82.5,9.7c0.1,0,0.1,0.1,0.2,0.1v0.1c-0.2,0.3-0.2,0.3-0.5,0.1l-0.1-0.1L82,9.8c0-0.1,0.1-0.1,0.1-0.2
					C82.2,9.6,82.3,9.6,82.5,9.7z"/>
				<path class="st42" d="M82.1,9.7l0.1,0.1c0.1,0.2,0.2,0.2,0.4,0.1c0.1,0,0.2,0.1,0.2,0.2c-0.1,0-0.2,0-0.3,0.1
					c-0.2,0.1-0.3,0.1-0.4-0.1C82,10,82,9.9,82.1,9.7z"/>
				<path class="st1" d="M84.3,9.3c0.1,0.1,0.2,0.1,0.2,0.2c0.3,0.3,0.2,0.7,0.2,1.1c0,0.2,0,0.4-0.1,0.6c0,0.1,0,0.2-0.1,0.3
					c-0.1,0-0.2-0.1-0.3-0.2c0,0-0.1,0-0.1-0.1c0,0,0,0,0-0.1c0-0.3,0-0.5-0.1-0.7c0-0.1,0-0.2,0-0.3c0.1-0.2,0.1-0.3,0.1-0.5
					C84.1,9.4,84.2,9.4,84.3,9.3z"/>
				<path class="st1" d="M84.3,11.3c0.3,0.2,0.3,0,0.3-0.2c0-0.5,0.1-1.1-0.1-1.6c0.2,0.1,0.3,0.2,0.3,0.4c0,0.3,0.1,0.6,0,1
					c-0.1,0.2,0,0.3,0,0.5c0,0.3-0.2,0.5-0.4,0.5C84.4,11.7,84.4,11.5,84.3,11.3z"/>
				<path class="st1" d="M84.2,11.2C84.2,11.2,84.2,11.3,84.2,11.2c-0.2,0-0.3,0-0.4-0.1V11c0.1,0,0.2,0.1,0.3,0.1
					C84.1,11.2,84.2,11.2,84.2,11.2z"/>
				<path class="st1" d="M84.2,11.2c0,0-0.1,0-0.1-0.1c0-0.4-0.2-0.8-0.3-1.2c0-0.1-0.1-0.2,0-0.2C84,9.5,83.9,9.3,83.9,9
					c0.2,0,0.4,0.2,0.5,0.3c0,0.1-0.1,0.2,0,0.3c0,0,0.1,0.1,0,0.2C84.1,10.3,84.3,10.7,84.2,11.2L84.2,11.2z"/>
				<path class="st1" d="M81.8,5.5c0.4,0.1,0.8,0,1.2,0.2h0.1c0.3,0.3,0.8,0.2,1,0.6c0.2,0.4,0.2,0.4-0.2,0.6l0,0
					c-0.2,0.1-0.5,0-0.7,0c-0.1,0-0.2,0-0.3,0c0,0,0,0-0.1,0.1c-0.7,0.2-1.4,0.1-2.1,0.2c-0.2-0.1-0.4,0-0.6,0
					c-0.3,0.1-0.6,0-0.9,0.1c-0.4,0.1-0.9,0-1.3,0.1c-0.3,0-0.6-0.1-0.8-0.1C76.9,7.3,77,7.1,77,7c0.1-0.2,0.2-0.3,0.4-0.2
					c0.2,0,0.3-0.1,0.2-0.2c0,0,0,0,0-0.1c-0.1-0.1-0.1-0.2,0.1-0.3c0.1,0,0.1-0.1,0.2-0.1c0.2-0.4,0.6-0.4,1-0.4
					c0.3,0,0.5-0.2,0.8-0.2c0.1,0,0.1-0.2,0.1-0.3s0.1-0.1,0.1-0.2c0.2-0.1,0.5,0,0.7,0c0.2,0,0.4,0.1,0.5,0.3
					c0.1,0.2,0.2,0.2,0.4,0.2C81.6,5.5,81.7,5.5,81.8,5.5z"/>
				<path class="st1" d="M78.6,8.6c-0.3,0-0.5,0-0.7,0.1c-0.1,0-0.2,0.1-0.2,0.2C77.6,9,77.5,9.1,77.3,9c-0.1-0.1-0.1-0.1-0.1-0.2
					c0-0.2,0.1-0.3,0.3-0.3c0.4,0,0.7-0.3,1.1-0.3c0.6-0.2,1.3-0.3,2-0.3c0.1,0,0.3,0,0.3,0.2s-0.2,0.1-0.3,0.1
					c-0.2,0-0.4,0-0.6,0.1c-0.2,0.2-0.5,0-0.7,0.1C79,8.5,78.8,8.6,78.6,8.6z"/>
				<path class="st1" d="M79.8,8.3c0.2-0.1,0.5-0.1,0.7-0.1c0.1,0,0.2,0,0.2-0.1S80.6,8,80.5,8c-0.7-0.1-1.3,0.1-2,0.2
					c-0.2,0-0.5,0-0.7,0.1c-0.1,0-0.2,0.1-0.3,0.1s-0.3,0-0.3-0.2S77.3,8,77.4,8c0.2,0,0.4-0.1,0.4-0.3c0-0.1,0.1-0.2,0.2-0.3l0,0
					c0.2,0,0.3-0.1,0.4,0.1c-0.5,0-0.6,0.1-0.5,0.5c0,0.2,0.1,0.2,0.3,0.2c0.2,0,0.5,0,0.7-0.2c0.1-0.1,0.2-0.2,0.3-0.1
					c0.3,0,0.6,0,0.9-0.1c0.2,0,0.3,0,0.5,0.1c0.1,0,0.1,0.1,0.1,0.2c0,0.1-0.1,0.1-0.1,0.1C80.4,8.3,80.1,8.2,79.8,8.3
					C80,8.4,79.9,8.4,79.8,8.3z"/>
				<path class="st1" d="M77.1,6.9c0,0.1,0,0.2,0.2,0.3c0.6,0.3,1.1,0.1,1.7,0.1c0.4,0,0.8,0,1.2-0.1c-0.1,0.1-0.3,0.2-0.5,0.2
					c-0.3,0-0.6-0.1-0.9,0.1c-0.1,0-0.3,0-0.4,0s-0.2,0-0.3,0l0,0c-0.2,0.1-0.5,0-0.4,0.4C77.7,8,77.5,8,77.4,8
					c-0.2,0.1-0.3-0.1-0.4-0.2C76.9,7.4,76.9,7,77.1,6.9z"/>
				<path class="st1" d="M79.8,5.1c0,0.3-0.1,0.4-0.3,0.4c-0.4,0.1-0.9,0-1.3,0.2c-0.2,0.1-0.6,0.4-0.6,0.7c-0.1-0.1-0.4,0-0.4-0.2
					s0.2-0.1,0.4-0.2c0.1,0,0.2-0.1,0.2-0.2c0.2-0.3,0.4-0.5,0.8-0.4c0.2,0,0.3,0,0.5,0l0,0c0.1-0.1,0-0.3,0.2-0.2
					c0,0,0.1,0,0.1,0.1c0.1,0.1,0.2,0,0.2-0.1C79.7,5.2,79.8,5.1,79.8,5.1z"/>
				<path class="st1" d="M77.1,6.9C77,7.1,77,7.3,77,7.5c0,0.2,0.2,0.4,0.4,0.4c-0.3,0.1-0.4,0-0.5-0.4c-0.2-0.4,0.1-0.8,0.5-0.9
					c0.1,0,0.2-0.1,0.2-0.2c0.1,0.1,0.1,0.1,0.1,0.2c-0.1,0.1-0.2,0.1-0.2,0.1C77.3,6.7,77.2,6.8,77.1,6.9z"/>
				<path class="st1" d="M76.2,8.5c0.1-0.3,0.3-0.4,0.6-0.4c0.1,0,0.1,0,0.1,0.1v0.1c-0.4,0.1-0.4,0.4-0.5,0.6l0,0
					C76.3,8.8,76.3,8.6,76.2,8.5L76.2,8.5z"/>
				<path class="st1" d="M79.4,5.2c-0.1,0-0.2,0.1-0.2,0.2c0-0.1-0.1-0.2-0.1-0.2c0-0.1-0.1-0.2,0-0.2C79.2,4.9,79.3,5,79.4,5.2
					C79.4,5.2,79.4,5.2,79.4,5.2z"/>
				<path class="st1" d="M79.7,5.2c-0.1,0.1-0.1,0.1-0.2,0.1C79.6,5.3,79.6,5.3,79.7,5.2z"/>
				<path class="st1" d="M80.4,8.7L80.4,8.7c-0.4,0.1-0.8,0-1.1,0.2c-0.1,0.1-0.2,0-0.4,0c-0.1,0-0.1,0-0.2-0.1
					c0-0.1,0.1-0.1,0.1-0.2c0.1,0,0.2-0.1,0.2-0.1c0.3,0,0.6-0.2,1-0.2h0.1c0.2,0,0.4,0,0.6,0c0.1,0,0.3,0,0.3,0.2s-0.2,0.2-0.3,0.2
					h-0.1c-0.1,0-0.3-0.2-0.4-0.1C80.2,8.6,80.3,8.6,80.4,8.7z"/>
				<path class="st1" d="M78.9,8.7c-0.1,0.1-0.1,0.2,0.1,0.2c0.1,0,0.2,0,0.3,0c-0.3,0.1-0.6,0-0.9,0.2c-0.1,0-0.2,0-0.3,0
					S77.9,9.2,77.9,9c0-0.1,0.1-0.2,0.2-0.2C78.3,8.8,78.6,8.8,78.9,8.7z"/>
				<path class="st1" d="M80.1,8.3c-0.3,0.2-0.6,0.3-1,0.2c0.1,0,0.3-0.1,0.4-0.1C79.7,8.4,79.9,8.3,80.1,8.3z"/>
				<path class="st1" d="M80.1,8.3c-0.2,0-0.4,0.1-0.6,0.1c-0.1,0-0.2,0-0.3,0c0.2-0.1,0.4-0.1,0.6-0.2C79.9,8.3,80,8.3,80.1,8.3
					L80.1,8.3L80.1,8.3L80.1,8.3z"/>
				<path class="st1" d="M76.2,8.5c0.1,0,0.2-0.1,0.3-0.1c0,0.2,0,0.4,0,0.5L76.4,9c-0.1,0.1-0.3,0.1-0.4,0.1c-0.2-0.1,0-0.2,0-0.3
					C76,8.6,76.1,8.6,76.2,8.5z"/>
				<path class="st1" d="M79.4,7.9c-0.1,0-0.2,0-0.3,0.1c-0.2,0-0.4,0.1-0.6,0.1S78.3,8,78.3,7.9c0-0.1,0-0.3,0.2-0.3s0.5,0,0.7-0.1
					c0.1,0,0.1,0,0.2,0s0.2,0,0.3,0.1C79.6,7.8,79.5,7.8,79.4,7.9z"/>
				<path class="st1" d="M78.1,7.4c0.5-0.1,0.9-0.1,1.4-0.1c0.2,0,0.5,0,0.7-0.1c0.2,0,0.4-0.1,0.5,0.1c0,0,0,0-0.1,0.1
					c-0.2-0.1-0.4,0-0.6,0c-0.1,0-0.2,0.1-0.3,0.1c-0.4-0.1-0.8,0-1.2,0.1C78.4,7.3,78.3,7.4,78.1,7.4z"/>
				<path class="st1" d="M80.4,8.7c-0.1,0-0.1,0-0.2,0c-0.1,0-0.3,0-0.3-0.1s0.2-0.1,0.3-0.2c0.1,0,0.2,0,0.3,0s0.1,0,0.1,0.1
					S80.5,8.6,80.4,8.7C80.5,8.7,80.4,8.7,80.4,8.7L80.4,8.7z"/>
				<path class="st1" d="M80.4,8.7c0,0,0.1,0,0.1-0.1c0.1,0,0.4,0.1,0.4-0.1c0-0.2-0.2-0.1-0.4-0.2c-0.2,0-0.3,0-0.5,0
					c0,0,0,0,0-0.1c0.3,0,0.5,0,0.8,0c0.1,0,0.2,0,0.3,0.2c0,0.2-0.1,0.2-0.2,0.2C80.7,8.7,80.6,8.7,80.4,8.7z"/>
				<path class="st1" d="M82.8,7c0.3,0,0.6,0,1,0C83.5,7.1,83.2,7.1,82.8,7C82.8,7.1,82.8,7,82.8,7z"/>
				<path class="st1" d="M84,7c0.2,0,0.4,0,0.6,0C84.5,7.1,84.2,7.1,84,7z"/>
				<path class="st1" d="M82.5,7.3c-0.1,0-0.3,0-0.4,0C82.2,7.2,82.3,7.2,82.5,7.3C82.5,7.2,82.5,7.2,82.5,7.3z"/>
				<path class="st1" d="M81.8,7.3c-0.2,0.1-0.3,0.1-0.5,0C81.5,7.3,81.7,7.3,81.8,7.3z"/>
				<path class="st1" d="M82.9,7c0.3-0.1,0.7,0,1-0.1C83.6,7,83.2,6.9,82.9,7z"/>
				<path class="st43" d="M82.1,9.7c0,0.1,0,0.2,0.1,0.3c-0.1,0.1-0.2,0.2-0.2,0.2c-0.3,0-0.2-0.2-0.2-0.4c0.1,0,0-0.1,0.1-0.2
					C81.9,9.7,81.9,9.7,82.1,9.7C82,9.7,82,9.7,82.1,9.7z"/>
				<path class="st44" d="M80.7,10.2L80.7,10.2c0-0.1,0.1-0.1,0.1-0.1c0.2,0,0.3-0.1,0.3-0.3V9.7c0.1-0.1,0.1-0.1,0.2-0.2h0.1h0.1
					c0.1,0.1,0.2,0.2,0.3,0.3c0,0.1,0,0.1-0.1,0.1c0,0-0.1,0-0.1,0.1C81.4,10.3,81.4,10.3,80.7,10.2L80.7,10.2z"/>
				<path class="st45" d="M81.7,9.8C81.8,9.8,81.8,9.8,81.7,9.8c0.1-0.1,0.1-0.1,0.1-0.1c0.1,0,0.2,0.1,0.2,0.2S81.9,10,81.9,10
					C81.8,10.1,81.8,10,81.7,9.8C81.7,9.9,81.7,9.9,81.7,9.8z"/>
				<path class="st37" d="M80.8,10.2c0.1,0,0.1,0,0.2,0c0.3,0,0.5-0.1,0.7-0.3c-0.1,0.4-0.1,0.4-0.5,0.4
					C81,10.3,80.9,10.3,80.8,10.2z"/>
				<path class="st46" d="M79.8,9.4C79.9,9.4,79.9,9.4,79.8,9.4c0.2,0,0.3,0.1,0.3,0.2c0,0,0,0,0,0.1S80,9.8,80,9.9l0,0
					c0,0.1,0.1,0.1,0.1,0.2c-0.1,0-0.2-0.1-0.3-0.1C79.6,9.8,79.6,9.6,79.8,9.4z"/>
				<path class="st47" d="M81.2,9.7c0.2,0.4,0.2,0.4-0.2,0.4c-0.1,0-0.2,0-0.3,0c-0.1,0-0.1,0-0.2-0.1s-0.3-0.2-0.2-0.4h0.1
					c0.1,0,0.2,0.2,0.4,0.2c0-0.1-0.2-0.2-0.1-0.3C81.1,9.5,81.1,9.5,81.2,9.7z"/>
				<path class="st44" d="M80.4,9.8c0,0.1,0.1,0.2,0.2,0.3c-0.1-0.1-0.3-0.2-0.4-0.2l0,0c0-0.1-0.1-0.1,0-0.2
					C80.2,9.7,80.3,9.7,80.4,9.8z"/>
				<path class="st1" d="M82.5,9.7c-0.1,0-0.3,0-0.4,0S82,9.7,82,9.8c-0.2,0.1-0.4,0.1-0.5-0.1l0,0c-0.1,0-0.2,0-0.2-0.1l0,0
					c0-0.3-0.3-0.2-0.5-0.3c0.3,0,0.7,0,1,0.1c0.2,0.1,0.4,0.2,0.5,0.3C82.4,9.6,82.4,9.6,82.5,9.7z"/>
				<path class="st1" d="M82.3,9.5c-0.2-0.1-0.4-0.2-0.5-0.3C82,9.2,82.2,9.3,82.3,9.5z"/>
				<path class="st48" d="M80.1,9.3C80.4,9,80.5,9,80.9,9.2C81,9.4,81,9.5,80.6,9.6C80.4,9.7,80.1,9.7,80.1,9.3
					C80.1,9.4,80.1,9.4,80.1,9.3z"/>
				<path class="st44" d="M80.7,9.6C80.9,9.5,81,9.4,81,9.2c0.1,0,0.2,0.1,0.4,0.1l0,0c0,0,0,0,0,0.1s0,0.2-0.1,0.3l0,0
					c-0.1-0.1-0.2-0.2-0.4-0.1c0,0.1-0.1,0.1-0.2,0.1C80.6,9.8,80.6,9.7,80.7,9.6C80.6,9.6,80.6,9.6,80.7,9.6z"/>
				<path class="st36" d="M80.1,9.3C80.1,9.3,80.1,9.4,80.1,9.3c-0.1,0.1,0.1,0.2,0,0.3c-0.1,0-0.1-0.1-0.2-0.2
					C80,9.4,80.1,9.3,80.1,9.3z"/>
				<path class="st1" d="M83.7,11c0-0.3-0.1-0.5-0.2-0.7c0-0.1,0-0.2,0.1-0.1c0.2,0.2,0.2,0.4,0.3,0.6C83.9,11,83.8,11,83.7,11z"/>
				<path class="st38" d="M81.4,9.6c0.2,0.2,0.4,0,0.6,0.1l-0.1,0.1l-0.1,0.1c0,0,0,0-0.1,0C81.6,9.8,81.5,9.8,81.4,9.6z"/>
				<path class="st49" d="M81.2,9.7c0-0.1-0.2-0.2,0-0.3c0.1,0,0.1,0.1,0.1,0.1C81.4,9.7,81.4,9.8,81.2,9.7z"/>
				<path class="st38" d="M81.4,9.6l-0.1-0.1c0,0,0,0,0-0.1C81.3,9.4,81.4,9.5,81.4,9.6L81.4,9.6z"/>
				<path class="st37" d="M80.6,9.7L80.6,9.7c0,0.1,0,0.1-0.1,0.1h-0.1c-0.1,0-0.2,0-0.2,0.1c-0.1-0.1-0.1-0.2,0-0.2
					C80.3,9.6,80.4,9.6,80.6,9.7z"/>
				<path class="st50" d="M80.6,9.7c-0.2,0-0.3,0-0.5,0l0,0c0-0.1,0-0.2,0-0.2C80.2,9.7,80.4,9.6,80.6,9.7
					C80.6,9.6,80.6,9.7,80.6,9.7z"/>
				<path class="st51" d="M80.5,9.8c0,0,0.1,0,0.1-0.1c0.1,0,0.1,0,0.2-0.1c0.2,0,0.4,0.1,0.4,0.3c0,0.2-0.3,0.1-0.5,0.1
					C80.6,10,80.5,9.9,80.5,9.8z"/>
				<path class="st2" d="M80.5,9.2c0.1,0,0.2,0,0.2,0.2c0,0.1-0.1,0.2-0.2,0.2s-0.2,0-0.2-0.1C80.3,9.3,80.4,9.3,80.5,9.2z"/>
			</g>
		</g>
	</g>
</g>
<polygon class="st2" points="78.6,16.9 77.6,19 79.2,20.6 76.9,20.3 75.9,22.4 75.5,20.1 73.2,19.8 75.3,18.7 74.9,16.4 76.5,18 "/>
<path class="st2" d="M63,22.9c-1-3.6,1-7.3,4.6-8.3c2.1-0.6,4.2-0.1,5.8,1c-1.1-0.5-2.4-0.6-3.6-0.2c-2.9,0.8-4.6,3.8-3.7,6.7
	c0.8,2.9,3.8,4.6,6.7,3.7c1-0.3,1.9-0.9,2.6-1.7c-0.8,1.6-2.3,2.8-4.1,3.3C67.7,28.5,64,26.4,63,22.9L63,22.9z"/>
<g>
	<path class="st2" d="M142,13.7l0.5-8.4h19.6v1.8l-14.1,19l5.3-0.1c0,0,6.1,0.2,7.2-7.2h1.9l-0.2,9.3H141v-1.7l13.8-19
		c0,0-5.5-1-8.5,1.4c0,0-1.6,1.4-2.2,4.8L142,13.7L142,13.7z"/>
	<path class="st2" d="M183,14.9c0,0-1.8-7.5-6.9-7.4c-4.7,0.1-5.8,5.7-5.7,8.9c0.1,2.6-0.2,9.9,5.7,9.7s7-6.1,7-6.1l2.2,0.8
		c0.2,1.1-3,8.7-10.5,8.1s-11.6-5.8-11.2-12C164.4,5,174.1,5.4,174.1,5.4h10.3l0.6,9.5H183L183,14.9z"/>
	<path class="st2" d="M200.5,28.5c-7.8,0.3-11.1-2-11.4-7.1v-12c0-2.2-1.4-1.9-1.4-1.9H186v-2h12.5v2h-1.7c0,0-1.4-0.3-1.4,1.9v12.3
		c0,0-0.5,4.4,5.1,4.6s5.6-5.2,5.6-5.2v-11c0,0-0.2-2.6-3.6-2.6v-2h9.3v2c-2.9,0-3.2,2.6-3.2,2.6v11
		C208.6,21.1,209.4,28.2,200.5,28.5L200.5,28.5z"/>
	<path class="st2" d="M124,14.7v4.9c0,4,2.3,7.2,5.2,7.2c2.9,0,5.2-3.2,5.2-7.2v-4.9c0-4-2.3-7.2-5.2-7.2
		C126.3,7.5,124,10.7,124,14.7L124,14.7z M117,17.1c0-6.5,5.5-11.7,12.2-11.7s12.2,5.3,12.2,11.7c0,6.5-5.5,11.7-12.2,11.7
		C122.5,28.9,117,23.6,117,17.1L117,17.1z"/>
	<path class="st2" d="M114,6.2h-2.6c0,0-1.8-5.7-6.9-6.9c-5.1-1.2-8.1,0.3-8.4,2.3c-0.3,2,0.3,3.9,7.6,5.8
		c13.1,3.4,12.5,11.1,12.5,11.1c0,9.3-10.7,9.5-10.7,9.5H89.9V15.1h2.5c2.5,7.4,7.6,9.3,7.6,9.3s8.7,2.7,9.4-2.4s-5.7-6.2-7.7-6.9
		S90.6,12.9,90.3,4.8c-0.3-8.1,9.6-8.9,9.6-8.9H114V6.2L114,6.2z"/>
	<path class="st2" d="M201,3c0-1.1,0.9-2.1,2.1-2.1c1.1,0,2.1,0.9,2.1,2.1c0,1.1-0.9,2.1-2.1,2.1C201.9,5.1,201,4.2,201,3L201,3z"/>
	<path class="st2" d="M124.3,3.1c0-1.1,0.9-2.1,2.1-2.1c1.1,0,2.1,0.9,2.1,2.1c0,1.1-0.9,2.1-2.1,2.1C125.2,5.2,124.3,4.3,124.3,3.1
		L124.3,3.1z"/>
	<path class="st2" d="M130,3.1c0-1.1,0.9-2.1,2.1-2.1c1.1,0,2.1,0.9,2.1,2.1c0,1.1-0.9,2.1-2.1,2.1C130.9,5.2,130,4.3,130,3.1
		L130,3.1z"/>
	<path class="st2" d="M195.3,3c0-1.1,0.9-2.1,2.1-2.1c1.1,0,2.1,0.9,2.1,2.1c0,1.1-0.9,2.1-2.1,2.1C196.3,5.1,195.3,4.2,195.3,3
		L195.3,3z"/>
</g>
</svg>
